<svg width="24" height="24" viewBox="0 0 24 24" fill="none" xmlns="http://www.w3.org/2000/svg">
<path fill-rule="evenodd" clip-rule="evenodd" d="M19.1001 19.16C19.6901 18.26 19.9101 17.8 20.3601 16.79C17.0401 15.53 16.5101 10.8 19.7901 8.99C18.7901 7.73 17.3801 7 16.0501 7C15.0901 7 14.4301 7.25 13.8401 7.48C13.3401 7.67 12.8901 7.84 12.3301 7.84C11.7301 7.84 11.2001 7.65 10.6401 7.45C10.0401 7.23 9.40008 7 8.60008 7C7.11008 7 5.52008 7.91 4.51008 9.47C3.09008 11.67 3.34008 15.79 5.63008 19.31C6.45008 20.57 7.55008 21.98 8.98008 22C9.58008 22.01 9.97008 21.83 10.4001 21.64C10.8901 21.42 11.4201 21.18 12.3501 21.18C13.2801 21.17 13.8001 21.42 14.2901 21.64C14.7101 21.83 15.0901 22.01 15.6801 22C17.1201 21.98 18.2801 20.42 19.1001 19.16Z" fill="white"/>
<path opacity="0.4" fill-rule="evenodd" clip-rule="evenodd" d="M15.8399 2C15.9999 3.1 15.5499 4.19 14.9599 4.95C14.3299 5.77 13.2299 6.41 12.1699 6.37C11.9799 5.31 12.4699 4.22 13.0699 3.49C13.7399 2.69 14.8699 2.07 15.8399 2Z" fill="white"/>
</svg>
