<svg width="24" height="24" viewBox="0 0 24 24" fill="none" xmlns="http://www.w3.org/2000/svg">
<path opacity="0.4" d="M7.81 2H16.18C19.83 2 22 4.17 22 7.81V16.18C22 19.82 19.83 21.99 16.19 21.99H7.81C4.17 22 2 19.83 2 16.19V7.81C2 4.17 4.17 2 7.81 2Z" fill="white"/>
<path d="M5.47007 11.47L9.76007 7.18002C10.0501 6.89002 10.5301 6.89002 10.8201 7.18002C11.1101 7.47002 11.1101 7.95002 10.8201 8.24002L7.81007 11.25H18.0001C18.4101 11.25 18.7501 11.59 18.7501 12C18.7501 12.41 18.4101 12.75 18.0001 12.75H7.81007L10.8201 15.76C11.1101 16.05 11.1101 16.53 10.8201 16.82C10.6701 16.97 10.4801 17.04 10.2901 17.04C10.1001 17.04 9.91007 16.97 9.76007 16.82L5.47007 12.53C5.32962 12.3894 5.25073 12.1988 5.25073 12C5.25073 11.8013 5.32962 11.6107 5.47007 11.47Z" fill="white"/>
</svg>
