<svg width="24" height="24" viewBox="0 0 24 24" fill="none" xmlns="http://www.w3.org/2000/svg">
<path opacity="0.4" d="M19.24 5.57906H18.84L15.46 2.19906C15.328 2.06922 15.1502 1.99646 14.965 1.99646C14.7798 1.99646 14.602 2.06922 14.47 2.19906C14.2 2.46906 14.2 2.90906 14.47 3.18906L16.86 5.57906H7.14L9.53 3.18906C9.8 2.91906 9.8 2.47906 9.53 2.19906C9.39796 2.06922 9.22019 1.99646 9.035 1.99646C8.84981 1.99646 8.67204 2.06922 8.54 2.19906L5.17 5.57906H4.77C3.87 5.57906 2 5.57906 2 8.13906C2 9.10906 2.2 9.74906 2.62 10.1691C2.86 10.4191 3.15 10.5491 3.46 10.6191C3.75 10.6891 4.06 10.6991 4.36 10.6991H19.64C19.95 10.6991 20.24 10.6791 20.52 10.6191C21.36 10.4191 22 9.81906 22 8.13906C22 5.57906 20.13 5.57906 19.24 5.57906Z" fill="white"/>
<path d="M19.65 10.701H4.35996C4.05996 10.701 3.74996 10.691 3.45996 10.621L4.71996 18.301C4.99996 20.021 5.74996 22.001 9.07996 22.001H14.69C18.06 22.001 18.66 20.311 19.02 18.421L20.53 10.621C20.25 10.681 19.95 10.701 19.65 10.701ZM10.61 17.161C10.61 17.551 10.3 17.861 9.90996 17.861C9.51996 17.861 9.20996 17.551 9.20996 17.161V13.861C9.20996 13.471 9.51996 13.161 9.90996 13.161C10.3 13.161 10.61 13.471 10.61 13.861V17.161ZM14.89 17.161C14.89 17.551 14.58 17.861 14.19 17.861C13.8 17.861 13.49 17.551 13.49 17.161V13.861C13.49 13.471 13.8 13.161 14.19 13.161C14.58 13.161 14.89 13.471 14.89 13.861V17.161Z" fill="white"/>
</svg>
