<svg width="24" height="24" viewBox="0 0 24 24" fill="none" xmlns="http://www.w3.org/2000/svg">
<path opacity="0.4" d="M16.19 2H7.81C4.17 2 2 4.17 2 7.81V16.18C2 19.83 4.17 22 7.81 22H16.18C19.82 22 21.99 19.83 21.99 16.19V7.81C22 4.17 19.83 2 16.19 2Z" fill="#FF392A"/>
<path d="M13.0601 11.9999L15.3601 9.69994C15.6501 9.40994 15.6501 8.92994 15.3601 8.63994C15.219 8.50046 15.0285 8.42224 14.8301 8.42224C14.6317 8.42224 14.4412 8.50046 14.3001 8.63994L12.0001 10.9399L9.70011 8.63994C9.55897 8.50046 9.36854 8.42224 9.17011 8.42224C8.97168 8.42224 8.78125 8.50046 8.64011 8.63994C8.35011 8.92994 8.35011 9.40994 8.64011 9.69994L10.9401 11.9999L8.64011 14.2999C8.35011 14.5899 8.35011 15.0699 8.64011 15.3599C8.79011 15.5099 8.98011 15.5799 9.17011 15.5799C9.36011 15.5799 9.55011 15.5099 9.70011 15.3599L12.0001 13.0599L14.3001 15.3599C14.4501 15.5099 14.6401 15.5799 14.8301 15.5799C15.0201 15.5799 15.2101 15.5099 15.3601 15.3599C15.6501 15.0699 15.6501 14.5899 15.3601 14.2999L13.0601 11.9999Z" fill="#FF392A"/>
</svg>
