<svg width="18" height="18" viewBox="0 0 18 18" fill="none" xmlns="http://www.w3.org/2000/svg">
<g id="crossed-fingers 1">
<path id="Vector" d="M13.181 9.2566L12.995 8.9961L10.667 5.7346L11.807 5.7316L12.064 5.0486V2.1001H10.98L10.666 2.6826L8.865 2.9781C8.71029 3.1086 8.59927 3.28336 8.54688 3.47886C8.4945 3.67437 8.50326 3.88123 8.572 4.0716L9.4325 6.4351V7.8761L8.4675 9.1006C8.426 9.1161 8.1575 9.2571 8.081 9.3206L8 9.3891L6.1945 7.4121C5.98801 7.50367 5.8125 7.65316 5.68923 7.84245C5.56597 8.03174 5.50024 8.25271 5.5 8.4786V8.9586L3.5 11.0416L3.508 12.1356L8.5 17.5001C8.5 17.5001 13.759 9.8561 13.7715 9.8711C13.6297 9.6197 13.4266 9.4083 13.181 9.2566Z" fill="#EF9645"/>
<g id="Group">
<path id="Vector_2" d="M4.53084 12.5C4.77382 12.5001 5.01301 12.4397 5.22686 12.3243C5.4407 12.2089 5.62248 12.0422 5.75584 11.839C5.81734 11.9305 5.89134 12.012 5.97134 12.0875C6.56384 12.645 7.48834 12.6095 8.05484 12.0445C8.13084 11.9685 8.20634 11.892 8.26434 11.8005L8.26284 11.799C8.36334 11.8565 8.49984 12 8.99984 12H10.2683C10.0794 12.1469 9.90762 12.3146 9.75634 12.5C9.14234 13.2335 8.74984 14.303 8.74984 15.5C8.74984 15.5664 8.77618 15.6299 8.82306 15.6768C8.86994 15.7237 8.93353 15.75 8.99984 15.75C9.06614 15.75 9.12973 15.7237 9.17661 15.6768C9.2235 15.6299 9.24984 15.5664 9.24984 15.5C9.24984 14.226 9.72784 13.1125 10.4383 12.5C10.8043 12.1845 11.2303 12 11.6873 12C12.0438 12.0395 12.1108 11.5 11.7498 11.5H8.99984C8.73462 11.5 8.48027 11.3947 8.29273 11.2072C8.10519 11.0196 7.99984 10.7653 7.99984 10.5C7.99984 10.2348 8.10519 9.98048 8.29273 9.79294C8.48027 9.6054 8.73462 9.50005 8.99984 9.50005H12.9998C13.4288 9.50005 13.8298 9.79805 13.9563 10.2075L14.4998 12C14.5513 12.1675 14.7393 12.9355 14.7053 13.0955C14.7053 15.5 12.3573 18 9.49984 18C6.23134 18 3.57784 15.3845 3.50684 12.133L3.51384 12.138C3.77795 12.3702 4.11721 12.4988 4.46884 12.5H4.53084ZM8.99984 9.00005C8.64834 9.00005 8.46684 9.10105 8.46684 9.10105L9.43234 6.43555L10.3653 9.00005H8.99984Z" fill="#FFDC5D"/>
<path id="Vector_3" d="M4.458 8.00009H4.542C5.0715 8.00009 5.5 8.42909 5.5 8.95859V11.0416C5.50007 11.1674 5.47534 11.2921 5.42722 11.4084C5.37911 11.5246 5.30855 11.6303 5.21959 11.7193C5.13062 11.8083 5.02499 11.8789 4.90873 11.9271C4.79246 11.9753 4.66785 12.0001 4.542 12.0001H4.458C4.33215 12.0001 4.20754 11.9753 4.09127 11.9271C3.97501 11.8789 3.86938 11.8083 3.78041 11.7193C3.69145 11.6303 3.62089 11.5246 3.57278 11.4084C3.52467 11.2921 3.49993 11.1674 3.5 11.0416V8.95859C3.5 8.42909 3.9285 8.00009 4.458 8.00009ZM7.917 9.48009L7.889 9.51109C7.64095 9.78096 7.50227 10.1335 7.5 10.5001C7.5 10.5316 7.5065 10.5616 7.509 10.5926C7.531 10.9316 7.663 11.2386 7.873 11.4796C7.83629 11.5429 7.79287 11.6021 7.7435 11.6561C7.65151 11.7634 7.5375 11.8497 7.40921 11.909C7.28092 11.9684 7.14136 11.9995 7 12.0001C6.73478 12.0001 6.48043 11.8947 6.29289 11.7072C6.10536 11.5197 6 11.2653 6 11.0001V8.00009C6 7.77959 6.0735 7.57759 6.1945 7.41209C6.28673 7.28473 6.4078 7.18101 6.5478 7.1094C6.6878 7.03779 6.84275 7.00034 7 7.00009C7.26522 7.00009 7.51957 7.10544 7.70711 7.29298C7.89464 7.48052 8 7.73487 8 8.00009V9.38909C7.9695 9.41659 7.9455 9.45059 7.917 9.48009ZM11.113 1.85359C11.221 1.63293 11.4067 1.45994 11.6345 1.36784C11.8622 1.27574 12.116 1.27102 12.347 1.35459C12.4704 1.39946 12.5838 1.46822 12.6806 1.55692C12.7774 1.64562 12.8558 1.75253 12.9113 1.87154C12.9668 1.99054 12.9983 2.11932 13.004 2.2505C13.0097 2.38169 12.9895 2.51271 12.9445 2.63609L12.064 5.04659L12.0635 5.04809L10.98 2.10009L11.113 1.85359ZM13.0005 9.00009L11.8065 5.73159L10.7715 2.88759C10.7444 2.81538 10.709 2.74658 10.666 2.68259C10.5321 2.47702 10.3272 2.32797 10.0903 2.26385C9.85352 2.19973 9.60139 2.22505 9.38205 2.33497C9.16271 2.44489 8.99151 2.63171 8.90113 2.8598C8.81074 3.08788 8.80749 3.34126 8.892 3.57159L10.8665 9.00009H13.0005Z" fill="#FFDC5D"/>
</g>
</g>
</svg>
