<svg width="16" height="16" viewBox="0 0 16 16" fill="none" xmlns="http://www.w3.org/2000/svg">
<path id="Vector" d="M13.2538 0C14.204 0 14.9692 0.758 15.0143 1.651V16L13.2061 14.4845L12.2138 13.594L11.1288 12.6615L11.5804 14.1305H2.09633C1.14864 14.1305 0.380859 13.422 0.380859 12.4795V1.654C0.380859 0.761 1.14915 0.003 2.09938 0.003H13.2487L13.2538 0ZM9.1199 3.789H9.09861L8.96128 3.922C10.363 4.323 11.0411 4.948 11.0411 4.948C10.1385 4.5025 9.32261 4.2785 8.50973 4.1875C7.92388 4.099 7.33499 4.146 6.83885 4.1875H6.70151C6.38477 4.1875 5.70922 4.323 4.80359 4.6795C4.48938 4.815 4.30745 4.9035 4.30745 4.9035C4.30745 4.9035 4.983 4.234 6.477 3.8775L6.38477 3.789C6.38477 3.789 5.25514 3.7445 4.03581 4.6355C4.03581 4.6355 2.81648 6.732 2.81648 9.315C2.81648 9.315 3.49203 10.474 5.34535 10.518C5.34535 10.518 5.61699 10.164 5.88913 9.8515C4.8492 9.539 4.44276 8.914 4.44276 8.914C4.44276 8.914 4.535 8.9585 4.6698 9.047H4.70933C4.73062 9.047 4.74126 9.0575 4.75139 9.068V9.073C4.76204 9.0835 4.77268 9.091 4.79092 9.091C5.01543 9.182 5.2369 9.2705 5.41934 9.359C5.73608 9.492 6.13999 9.627 6.63614 9.716C7.26455 9.807 7.9847 9.849 8.80569 9.716C9.2096 9.625 9.61604 9.539 10.0225 9.359C10.284 9.226 10.6083 9.0935 10.9646 8.867C10.9646 8.867 10.5607 9.492 9.47567 9.8045C9.69764 10.1145 10.0113 10.471 10.0113 10.471C11.8667 10.4295 12.5873 9.2705 12.6269 9.32C12.6269 6.7395 11.3994 4.6405 11.3994 4.6405C10.2962 3.8305 9.26129 3.7995 9.07936 3.7995L9.11635 3.7865L9.1199 3.789ZM9.23342 6.732C9.70879 6.732 10.0914 7.1305 10.0914 7.62C10.0914 8.115 9.70625 8.513 9.23342 8.513C8.75805 8.513 8.37543 8.1145 8.37543 7.625C8.37543 7.13 8.76059 6.732 9.23342 6.732ZM6.16381 6.732C6.63614 6.732 7.01927 7.1305 7.01927 7.62C7.01927 8.115 6.63411 8.513 6.16128 8.513C5.68591 8.513 5.30075 8.1145 5.30075 7.625C5.30075 7.13 5.68591 6.732 6.16128 6.732H6.16381Z" fill="#A3A5A8"/>
</svg>
