<svg width="51" height="48" viewBox="0 0 51 48" fill="none" xmlns="http://www.w3.org/2000/svg">
<path id="Union" fill-rule="evenodd" clip-rule="evenodd" d="M45.2793 25.3582V18.4144H49.8717V25.5776C49.8717 29.4016 47.9914 31.291 44.1861 31.291H41.8678C38.0634 31.291 36.1821 29.4016 36.1821 25.5776V5.71328C36.1821 1.88948 38.0634 -6.10352e-05 41.8678 -6.10352e-05H44.1427C47.947 -6.10352e-05 49.7839 1.84588 49.7839 5.66897V11.9541H45.1921V5.93266C45.1921 4.70213 44.6233 4.13117 43.4424 4.13117H42.655C41.4306 4.13117 40.8618 4.70213 40.8618 5.93266V25.3582C40.8618 26.5889 41.4306 27.1599 42.655 27.1599H43.5303C44.7105 27.1599 45.2793 26.5889 45.2793 25.3582ZM5.80789 17.4909H11.3185V13.2284H5.80789V4.52631H11.5379V0.263738H1.12835V31.0273H11.6251V26.7645H5.80789V17.4909ZM50.0031 45.2677L49.9902 45.3955L49.9776 45.5358L49.9519 45.6636L49.9137 45.7912L49.8889 45.9062L49.8505 46.034L49.7995 46.1489L49.7483 46.2512L49.6981 46.366L49.6342 46.4682L49.5704 46.5705L49.4945 46.6726L49.4305 46.7747L49.3547 46.8641L49.2653 46.9535L49.1893 47.0302L49.0873 47.1196L48.9986 47.1963L48.8965 47.2729L48.795 47.3359L48.6936 47.4125L48.5786 47.4763L48.4644 47.5275L48.3503 47.5913L48.2225 47.6424L48.0956 47.6936L47.9686 47.7318L47.8417 47.7702L47.7267 47.8084L47.5998 47.834L47.4856 47.8595L47.3715 47.885L47.2437 47.9107L47.1166 47.9234L47.0025 47.9362L46.8747 47.949L46.7351 47.9618L46.608 47.9745H46.4811H46.3414H46.2009H46.074L45.9469 47.9618H45.8073L45.6802 47.949L45.5526 47.9362L45.4128 47.9234L45.2859 47.8979L45.159 47.885L45.0312 47.8595L44.9041 47.834L44.7772 47.8084L44.6503 47.7829L44.5226 47.7447L44.4084 47.7191L44.2815 47.6808L44.1544 47.6424L44.0396 47.5913L43.9126 47.553L43.7984 47.5148L43.6713 47.4637L43.5565 47.4125L43.4422 47.3614L43.328 47.2984L43.2132 47.2473L43.0989 47.1833L42.9975 47.1196L42.8825 47.0557L42.7811 46.9918L42.679 46.928L42.5775 46.8514L42.4761 46.7747L42.374 46.6981L42.2724 46.6215L42.1831 46.5448L42.0816 46.4555L42.1583 46.3534L42.2469 46.2639L42.3235 46.1616L42.4123 46.0595L42.4889 45.9701L42.5647 45.868L42.6542 45.7657L42.73 45.6764L42.8194 45.5743L42.8954 45.4848L42.9847 45.3827L43.0606 45.2804L43.1372 45.1911L43.2259 45.0889L43.3025 44.9866L43.3911 44.8973L43.4677 44.7952L43.5692 44.8718L43.6834 44.9485L43.7856 45.0251L43.8998 45.1017L44.0019 45.1656L44.1162 45.2421L44.2175 45.306L44.3326 45.357L44.4339 45.421L44.5481 45.4721L44.6631 45.5231L44.7772 45.5743L44.8916 45.6126L45.0064 45.6636L45.1333 45.7019L45.2604 45.7402L45.3745 45.7785L45.5023 45.8042L45.6292 45.8297L45.7562 45.8552L45.8959 45.868L46.0235 45.8935H46.1506L46.2902 45.9062H46.4173H46.5697L46.7095 45.8935L46.8373 45.868L46.9514 45.8424L47.0656 45.8169L47.1678 45.7785L47.2565 45.7275L47.3586 45.6509L47.4344 45.5614L47.4856 45.4592L47.524 45.3443L47.5366 45.2166V45.1911L47.524 45.0378L47.4729 44.91L47.4089 44.8207L47.3203 44.744L47.218 44.6674L47.1166 44.6164L47.0025 44.5652L46.8747 44.5141L46.7223 44.4504L46.6335 44.4248L46.5323 44.3993L46.4173 44.3608L46.303 44.3353L46.1761 44.297L46.0483 44.2715L45.9087 44.2332L45.7817 44.2077L45.6419 44.1694L45.515 44.1439L45.3872 44.1055L45.2604 44.0799L45.1333 44.0416L45.0184 44.0034L44.8916 43.9778L44.7772 43.9394L44.6631 43.9011L44.5481 43.8628L44.4084 43.8117L44.2815 43.7605L44.1544 43.7095L44.0267 43.6584L43.9126 43.5946L43.7856 43.5307L43.6834 43.4669L43.5692 43.4031L43.4677 43.3265L43.3656 43.2626L43.277 43.1858L43.1877 43.0965L43.0989 43.0071L43.0223 42.9176L42.9465 42.8283L42.8825 42.739L42.8194 42.6367L42.7556 42.5219L42.7045 42.4333L42.6661 42.331L42.6287 42.216L42.5904 42.1139L42.5647 41.9861L42.5392 41.8711L42.5264 41.7435L42.5137 41.6157L42.5009 41.4754V41.3348V41.3093V41.1815L42.5137 41.0538L42.5264 40.9389L42.5392 40.8111L42.5647 40.6963L42.5904 40.5813L42.6287 40.4662L42.6542 40.3514L42.7045 40.2364L42.7556 40.1215L42.8066 40.0067L42.8699 39.8916L42.9335 39.7767L43.0095 39.6744L43.0862 39.5723L43.1749 39.4702L43.2642 39.3808L43.3529 39.2786L43.4551 39.1891L43.5437 39.1253L43.6458 39.0486L43.7474 38.972L43.8487 38.9082L43.9636 38.8444L44.0779 38.7932L44.192 38.7294L44.307 38.6784L44.4339 38.6399L44.5608 38.5889L44.6758 38.5506L44.7772 38.525L44.8916 38.4995L45.0064 38.474L45.1333 38.4485L45.2476 38.4228L45.3745 38.4102L45.5023 38.3973L45.6292 38.3845L45.7562 38.3718H45.8831H46.0235H46.1634H46.303L46.4428 38.3845L46.5825 38.3973H46.7095L46.8499 38.4102L46.9769 38.4356L47.1166 38.4485L47.2437 38.474L47.3586 38.4995L47.4856 38.525L47.6125 38.5506L47.7267 38.5761L47.8544 38.6144L47.9686 38.6528L48.0829 38.6784L48.2105 38.7294L48.3248 38.7677L48.4389 38.8187L48.5531 38.8699L48.6808 38.921L48.795 38.9848L48.8965 39.036L49.0114 39.0998L49.1257 39.1636L49.2271 39.2276L49.3419 39.3042L49.4435 39.3679L49.5456 39.4447L49.6471 39.5213L49.7483 39.5978L49.6726 39.7001L49.6087 39.8022L49.5328 39.9044L49.4562 40.0067L49.3804 40.1215L49.3164 40.2236L49.2398 40.3259L49.1638 40.428L49.1002 40.5302L49.0241 40.6325L48.9476 40.7346L48.8836 40.8367L48.8078 40.9517L48.7311 41.0538L48.6553 41.156L48.5915 41.2581L48.5155 41.3603L48.4134 41.2838L48.2993 41.2198L48.1977 41.156L48.0956 41.0793L47.9815 41.0284L47.8792 40.9644L47.7651 40.9132L47.6636 40.8622L47.5487 40.8111L47.4473 40.7601L47.3331 40.7218L47.231 40.6706L47.0911 40.6325L46.9642 40.594L46.8373 40.5558L46.7095 40.5302L46.5825 40.5047L46.4556 40.479L46.3287 40.4662L46.2009 40.4535L46.0868 40.4407H45.9597H45.8073L45.6675 40.4662L45.5398 40.4919L45.4257 40.5174L45.3242 40.5685L45.2348 40.6195L45.1205 40.7218L45.0439 40.8367L44.9937 40.9517L44.9808 41.0793V41.105L44.9937 41.271L45.0567 41.4114L45.1078 41.4881L45.1964 41.5775L45.3114 41.6413L45.4128 41.7052L45.5398 41.7563L45.6802 41.8074L45.8328 41.8584L45.9342 41.8839L46.0357 41.9223L46.1506 41.9478L46.2647 41.9861L46.3917 42.0117L46.5323 42.05L46.672 42.0882L46.8118 42.1267L46.9514 42.1522L47.0783 42.1905L47.218 42.2288L47.3458 42.2543L47.4729 42.2926L47.5998 42.331L47.7139 42.3693L47.8417 42.4076L47.956 42.4459L48.0701 42.4842L48.2105 42.5345L48.3375 42.5985L48.4644 42.6495L48.5915 42.7133L48.7064 42.7773L48.8207 42.8411L48.922 42.9049L49.0241 42.9816L49.1257 43.0454L49.2271 43.1348L49.3292 43.2242L49.4178 43.3265L49.5072 43.4158L49.5831 43.5181L49.6597 43.6329L49.7228 43.735L49.7868 43.8501L49.8378 43.9523L49.8761 44.0671L49.9137 44.182L49.9392 44.297L49.9647 44.4248L49.9902 44.5526L50.0031 44.6802L50.0159 44.8207V44.9611V44.9866V45.1272L50.0031 45.2677ZM41.0862 47.8214H40.9585H40.8316H40.7047H40.5777H40.45H40.3229H40.1961H40.069H39.9286H39.8016H39.6747H39.5478H39.4199H39.2931H39.166H39.0391H38.9113H38.7844H38.6574H38.5305H38.4034H38.2758H38.1489H38.0219H37.8949H37.7671H37.6402H37.5132H37.3735H37.2458H37.1188H36.9918H36.8649H36.7373H36.6102H36.4833H36.3562H36.2286H36.1016H35.9747H35.8476H35.7198H35.5931H35.466H35.3391H35.2114H35.0843H34.9446H34.8177H34.6907H34.563H34.436H34.309H34.1822H34.0545H33.9275H33.8005V47.6936V47.5658V47.4382V47.3111V47.1833V47.0557V46.928V46.8004V46.6726V46.5448V46.4172V46.2894V46.1616V46.034V45.9062V45.7785V45.6509V45.5231V45.4082V45.2804V45.1527V45.0251V44.8973V44.7695V44.6419V44.5141V44.3863V44.2587V44.131V44.0034V43.8756V43.7478V43.6202V43.4924V43.3646V43.237V43.1092V42.9816V42.8539V42.7261V42.5985V42.4714V42.3438V42.216V42.0882V41.9606V41.8329V41.7052V41.5775V41.4497V41.322V41.1943V41.0665V40.9389V40.8239V40.6963V40.5685V40.4407V40.3131V40.1853V40.0577V39.9299V39.8022V39.6744V39.5468V39.419V39.2912V39.1636V39.036V38.9082V38.7805V38.6528V38.525H33.9275H34.0545H34.1822H34.309H34.436H34.563H34.6907H34.8177H34.9446H35.0717H35.1993H35.3264H35.4532H35.5802H35.6951H35.8221H35.9491H36.0761H36.2038H36.3307H36.4576H36.5847H36.7123H36.8393H36.9662H37.0933H37.221H37.348H37.4749H37.6018H37.7296H37.8567H37.9835H38.1104H38.2375H38.3653H38.4922H38.6191H38.746H38.8738H39.0007H39.1277H39.2546H39.3697H39.4966H39.6236H39.7506H39.8783H40.0052H40.1321H40.2591H40.3868H40.5138H40.6407H40.7678H40.8954H41.0225H41.1494V38.6528V38.7677V38.8954V39.0231V39.1508V39.2657V39.3935V39.5213V39.6361V39.7639V39.8916V40.0067V40.1343V40.2619V40.3897V40.5047V40.6325H41.0225H40.8954H40.7678H40.6407H40.5138H40.3868H40.2719H40.145H40.018H39.891H39.7633H39.6364H39.5093H39.3824H39.2546H39.1277H39.0007H38.8738H38.746H38.6319H38.5049H38.3779H38.2501H38.1234H37.9963H37.8694H37.7416H37.6147H37.4877H37.3608H37.233H37.1059H36.9918H36.8649H36.7373H36.6102H36.4833H36.3562H36.2286V40.7601V40.8877V41.0154V41.1432V41.271V41.3859V41.5136V41.6413V41.769V41.8968V42.0244V42.1522H36.3562H36.4833H36.6102H36.7373H36.8649H36.9918H37.1188H37.2458H37.3608H37.4877H37.6147H37.7416H37.8694H37.9963H38.1234H38.2501H38.3779H38.5049H38.6319H38.7589H38.8865H39.0134H39.1405H39.2676H39.3952H39.5221H39.6364H39.7633H39.891H40.018H40.145H40.2719H40.3995H40.5266H40.6535V42.2798V42.3948V42.5219V42.6495V42.7645V42.8921V43.0199V43.1348V43.2626V43.3903V43.5181V43.6329V43.7605V43.8883V44.0034V44.131H40.5266H40.3995H40.2719H40.145H40.018H39.891H39.7633H39.6364H39.5221H39.3952H39.2676H39.1405H39.0134H38.8865H38.7589H38.6319H38.5049H38.3779H38.2501H38.1234H37.9963H37.8694H37.7416H37.6147H37.4877H37.3608H37.2458H37.1188H36.9918H36.8649H36.7373H36.6102H36.4833H36.3562H36.2286V44.2587V44.3993V44.5269V44.6547V44.7952V44.923V45.0506V45.1911V45.3187V45.4465V45.5869V45.7146H36.3562H36.4833H36.6102H36.7373H36.8649H36.9918H37.1188H37.2458H37.3735H37.5132H37.6402H37.7671H37.8949H38.0219H38.1489H38.2758H38.4034H38.5305H38.6574H38.7844H38.9113H39.0391H39.166H39.2931H39.4199H39.5478H39.6747H39.8016H39.9286H40.069H40.1961H40.3229H40.45H40.5777H40.7047H40.8316H40.9585H41.0862H41.2132V45.8424V45.9573V46.0851V46.2127V46.3405V46.4555V46.5831V46.7108V46.8259V46.9535V47.0812V47.1963V47.3232V47.4508V47.5785V47.6936V47.8214H41.0862ZM31.796 47.8214H31.6691H31.542H31.4017H31.2748H31.1477H31.0208H30.893H30.7661H30.6263H30.4994H30.3723H30.2447H30.1178H29.9908H29.8511H29.7233H29.5964H29.4693V47.6936V47.5658V47.4382V47.3104V47.1819V47.0542V46.9265V46.7987V46.671V46.5434V46.4156V46.2873V46.1595V46.0317V45.904V45.7763V45.6478V45.52V45.3923V45.2647V45.1369V45.0093V44.8808V44.7531V44.6254V44.4976V44.3699V44.2422V44.1137V43.9859V43.8582V43.7306V43.603V43.4752V43.3467V43.219V43.0913V42.9636V42.8358V42.7073V42.5797V42.4519V42.3241L29.4056 42.4263L29.3297 42.5421L29.2657 42.6442L29.1899 42.7465L29.1261 42.8613L29.0493 42.9636L28.9864 43.0658L28.9224 43.1814L28.8466 43.2836L28.7827 43.3857L28.7062 43.488L28.6431 43.6037L28.5664 43.7058L28.5033 43.808L28.4393 43.9229L28.3627 44.0258L28.2996 44.1281L28.223 44.2429L28.16 44.3452L28.0833 44.4473L28.0202 44.563L27.9563 44.6653L27.8798 44.7674L27.8167 44.8824L27.74 44.9852L27.6769 45.0873L27.6003 45.1896L27.5363 45.3045L27.4732 45.4073L27.3967 45.5096L27.3336 45.6245L27.257 45.7267L27.1931 45.8288L27.1172 45.9446L27.0534 46.0468H27.003L26.9265 45.9318L26.8625 45.8288L26.7866 45.7139L26.7228 45.6117L26.6468 45.4969L26.583 45.3939L26.5072 45.279L26.4433 45.1767L26.3666 45.0618L26.3035 44.9597L26.2269 44.8439L26.1639 44.7417L26.0873 44.6268L26.0233 44.5246L25.9475 44.409L25.8835 44.3068L25.8078 44.1919L25.7311 44.0897L25.6673 43.9741L25.5914 43.8719L25.5275 43.757L25.4516 43.6548L25.3878 43.539L25.3119 43.4369L25.248 43.3219L25.1714 43.2197L25.1083 43.1048L25.0317 43.0018L24.9685 42.887L24.8919 42.7847L24.8281 42.6697L24.7523 42.5677L24.6882 42.4519L24.6124 42.3498V42.4774V42.6052V42.733V42.8613V42.9891V43.1168V43.2445V43.3723V43.5007V43.6285V43.7434V43.8711V43.9988V44.1265V44.255V44.3828V44.5104V44.638V44.7658V44.8936V45.022V45.1497V45.2775V45.4052V45.533V45.6606V45.7891V45.9167V46.0445V46.1721V46.2999V46.4283V46.5434V46.671V46.7987V46.9265V47.0542V47.1819V47.3104V47.4382V47.5658V47.6936V47.8214H24.4855H24.3578H24.2308H24.1038H23.9769H23.8493H23.7222H23.5953H23.4682H23.3406H23.2136H23.0866H22.9596H22.832H22.7051H22.578H22.4509H22.3233H22.1964V47.6936V47.5658V47.4382V47.3111V47.1833V47.0557V46.928V46.8004V46.6726V46.5448V46.4172V46.2894V46.1616V46.034V45.9062V45.7785V45.6509V45.5231V45.4082V45.2804V45.1527V45.0251V44.8973V44.7695V44.6419V44.5141V44.3863V44.2587V44.131V44.0034V43.8756V43.7478V43.6202V43.4924V43.3646V43.237V43.1092V42.9816V42.8539V42.7261V42.5985V42.4714V42.3438V42.216V42.0882V41.9606V41.8329V41.7052V41.5775V41.4497V41.322V41.1943V41.0665V40.9389V40.8239V40.6963V40.5685V40.4407V40.3131V40.1853V40.0577V39.9299V39.8022V39.6744V39.5468V39.419V39.2912V39.1636V39.036V38.9082V38.7805V38.6528V38.525H22.3233H22.4509H22.5653H22.6921H22.8192H22.9468H23.0611H23.188H23.3158H23.4427H23.557H23.6839H23.8117H23.9386H24.0527H24.1796H24.3074H24.4345H24.5486H24.6755H24.8033L24.8664 38.6273L24.9302 38.7421L25.006 38.8435L25.07 38.9585L25.1338 39.0606L25.1969 39.1757L25.2607 39.277L25.3368 39.3921L25.4005 39.4942L25.4644 39.5964L25.5275 39.7105L25.5914 39.8128L25.6673 39.9276L25.7311 40.0299L25.7949 40.144L25.858 40.2461L25.9347 40.3483L25.9986 40.4627L26.0616 40.5647L26.1254 40.6796L26.1887 40.7819L26.2653 40.896L26.3291 40.9983L26.3921 41.1131L26.4561 41.2145L26.5192 41.3167L26.5958 41.4316L26.6596 41.5339L26.7228 41.6489L26.7866 41.7503L26.8497 41.8653L26.9265 41.9674L26.9903 42.0815L27.0534 42.1838L27.1172 42.0815L27.181 41.9674L27.257 41.8653L27.3206 41.7503L27.3839 41.6489L27.4477 41.5339L27.5236 41.4316L27.5875 41.3167L27.6514 41.2145L27.7144 41.1131L27.791 40.9983L27.8541 40.896L27.9181 40.7819L27.9818 40.6796L28.0577 40.5647L28.1215 40.4627L28.1855 40.3483L28.2485 40.2461L28.3126 40.144L28.3883 40.0299L28.4522 39.9276L28.516 39.8128L28.5792 39.7105L28.6557 39.5964L28.719 39.4942L28.7827 39.3921L28.8466 39.277L28.9224 39.1757L28.9864 39.0606L29.0493 38.9585L29.1133 38.8435L29.1899 38.7421L29.2531 38.6273L29.3169 38.525H29.4438H29.5709H29.6857H29.8128H29.9397H30.0666H30.1816H30.3087H30.4354H30.5625H30.6775H30.8044H30.9313H31.0584H31.1732H31.3003H31.4272H31.5541H31.6691H31.796H31.923V38.6528V38.7805V38.9082V39.036V39.1636V39.2912V39.419V39.5468V39.6744V39.8022V39.9299V40.0577V40.1853V40.3131V40.4407V40.5685V40.6963V40.8239V40.9389V41.0665V41.1943V41.322V41.4497V41.5775V41.7052V41.8329V41.9606V42.0882V42.216V42.3438V42.4714V42.5985V42.7261V42.8539V42.9816V43.1092V43.237V43.3646V43.4924V43.6202V43.7478V43.8756V44.0034V44.131V44.2587V44.3863V44.5141V44.6419V44.7695V44.8973V45.0251V45.1527V45.2804V45.4082V45.5231V45.6509V45.7785V45.9062V46.034V46.1616V46.2894V46.4172V46.5448V46.6726V46.8004V46.928V47.0557V47.1833V47.3111V47.4382V47.5658V47.6936V47.8214H31.796ZM17.0434 43.9906L17.0051 43.8749L16.9548 43.7471L16.9037 43.6322L16.8654 43.5165L16.8151 43.4015L16.7641 43.2737L16.7256 43.1581L16.6745 43.0431L16.6243 42.9283L16.5859 42.8126L16.5347 42.6848L16.4973 42.5699L16.4461 42.4542L16.395 42.3392L16.3568 42.2243L16.3064 42.0959L16.2554 41.9808L16.217 41.866L16.1659 41.7503L16.1156 41.6225L16.0773 41.5069L16.0262 41.3919L15.9759 41.5069L15.9377 41.6225L15.8866 41.7503L15.8354 41.866L15.7978 41.9808L15.7468 42.0959L15.6957 42.2243L15.6454 42.3392L15.6069 42.4542L15.5559 42.5699L15.5048 42.6848L15.4672 42.8126L15.4162 42.9283L15.365 43.0431L15.3268 43.1581L15.2764 43.2737L15.2253 43.4015L15.1743 43.5165L15.1368 43.6322L15.0857 43.7471L15.0345 43.8749L14.9962 43.9906L14.9459 44.1055H15.0728H15.1998H15.3268H15.4545H15.5814H15.7083H15.8354H15.9632H16.0773H16.2042H16.332H16.4589H16.5859H16.7129H16.8399H16.9675H17.0944L17.0434 43.9906ZM21.0365 47.8214H20.9088H20.7944H20.6677H20.5399H20.4129H20.2859H20.1718H20.044H19.9171H19.7901H19.6631H19.5354H19.4212H19.2942H19.1672H19.0395H18.9126H18.7984H18.6714H18.5438L18.4934 47.7063L18.455 47.5913L18.404 47.4763L18.3529 47.3487L18.3153 47.2344L18.2643 47.1196L18.2131 47.0047L18.1755 46.8897L18.1245 46.7747L18.0734 46.6598L18.0352 46.5448L17.9848 46.4172L17.9336 46.3022L17.8953 46.1873L17.8442 46.0723H17.7173H17.5903H17.4634H17.3365H17.2215H17.0944H16.9675H16.8399H16.7129H16.5859H16.4589H16.332H16.2042H16.0773H15.9632H15.8354H15.7083H15.5814H15.4545H15.3268H15.1998H15.0728H14.9459H14.819H14.7039H14.5771H14.45H14.3222H14.1953L14.145 46.1873L14.1067 46.3022L14.0556 46.4172L14.0046 46.5448L13.967 46.6598L13.916 46.7747L13.8648 46.8897L13.8265 47.0047L13.7762 47.1196L13.7251 47.2344L13.6867 47.3487L13.6363 47.4763L13.5853 47.5913L13.547 47.7063L13.4959 47.8214H13.3689H13.242H13.1151H12.9873H12.8604H12.7206H12.5937H12.4666H12.339H12.212H12.0851H11.958H11.8303H11.7035H11.5765H11.4368H11.309H11.1821H11.055H10.9281L10.9784 47.7063L11.0295 47.5913L11.0805 47.4763L11.1309 47.3487L11.1693 47.2344L11.2204 47.1196L11.2714 47.0047L11.3217 46.8897L11.3728 46.7747L11.424 46.647L11.4743 46.532L11.5254 46.4172L11.5636 46.3022L11.6147 46.1873L11.665 46.0723L11.7162 45.9446L11.7672 45.8297L11.8176 45.7146L11.8687 45.5998L11.9197 45.4848L11.958 45.3698L12.0083 45.2421L12.0595 45.1272L12.1106 45.0123L12.1609 44.8973L12.212 44.7824L12.2632 44.6674L12.3135 44.5396L12.3518 44.4248L12.4029 44.3098L12.4539 44.1949L12.5044 44.0799L12.5554 43.9649L12.6064 43.8373L12.6568 43.7223L12.7078 43.6074L12.7461 43.4924L12.7972 43.3776L12.8475 43.2626L12.8987 43.1348L12.9498 43.0199L13.0001 42.9049L13.0511 42.79L13.1023 42.6751L13.1406 42.56L13.191 42.4459L13.242 42.3181L13.293 42.2033L13.3434 42.0882L13.3944 41.9733L13.4456 41.8584L13.4959 41.7435L13.5342 41.6157L13.5853 41.5009L13.6363 41.3859L13.6867 41.271L13.7379 41.156L13.7889 41.041L13.8393 40.9132L13.8903 40.7984L13.9286 40.6835L13.9796 40.5685L14.0301 40.4535L14.0811 40.3386L14.1322 40.2109L14.1825 40.096L14.2336 39.981L14.2848 39.8661L14.3222 39.7512L14.3734 39.6361L14.4245 39.5085L14.4757 39.3935L14.526 39.2786L14.5771 39.1636L14.6281 39.0486L14.6784 38.9338L14.7168 38.806L14.7678 38.6911L14.819 38.5761L14.8693 38.4612H14.9962H15.1112H15.2381H15.365H15.4928H15.6069H15.7338H15.8609H15.9887H16.1029H16.2297H16.3568H16.4844H16.5987H16.7256H16.8525H16.9803H17.0944H17.2215L17.2725 38.5761L17.3236 38.6911L17.3741 38.806L17.4251 38.9338L17.4634 39.0486L17.5137 39.1636L17.5648 39.2786L17.6158 39.3935L17.667 39.5085L17.7173 39.6361L17.7684 39.7512L17.8195 39.8661L17.857 39.981L17.9081 40.096L17.9593 40.2109L18.0104 40.3386L18.0607 40.4535L18.1117 40.5685L18.1629 40.6835L18.2131 40.7984L18.2515 40.9132L18.3025 41.041L18.3529 41.156L18.404 41.271L18.455 41.3859L18.5062 41.5009L18.5565 41.6157L18.6075 41.7435L18.6459 41.8584L18.6962 41.9733L18.7472 42.0882L18.7984 42.2033L18.8495 42.3181L18.8998 42.4459L18.9509 42.56L19.0019 42.6751L19.0395 42.79L19.0905 42.9049L19.1417 43.0199L19.1921 43.1348L19.2431 43.2626L19.2942 43.3776L19.3454 43.4924L19.3957 43.6074L19.434 43.7223L19.485 43.8373L19.5354 43.9649L19.5864 44.0799L19.6376 44.1949L19.6886 44.3098L19.739 44.4248L19.7901 44.5396L19.8283 44.6674L19.8787 44.7824L19.9297 44.8973L19.9809 45.0123L20.0312 45.1272L20.0823 45.2421L20.1335 45.3698L20.1846 45.4848L20.2221 45.5998L20.2732 45.7146L20.3243 45.8297L20.3746 45.9446L20.4256 46.0723L20.4768 46.1873L20.5278 46.3022L20.5781 46.4172L20.6165 46.532L20.6677 46.647L20.7179 46.7747L20.7689 46.8897L20.8199 47.0047L20.8704 47.1196L20.9214 47.2344L20.9725 47.3487L21.011 47.4763L21.0611 47.5913L21.1123 47.7063L21.1633 47.8214H21.0365ZM9.89742 46.6341L9.79527 46.7108L9.70653 46.7747L9.60438 46.8514L9.50295 46.9152L9.40153 46.9918L9.29939 47.0557L9.19796 47.1196L9.08299 47.1833L8.96874 47.2473L8.8545 47.3111L8.73968 47.3614L8.62543 47.4253L8.4985 47.4763L8.38439 47.5275L8.25661 47.5785L8.1425 47.6296L8.02811 47.6679L7.91329 47.7063L7.79904 47.7447L7.67211 47.7829L7.55801 47.8214L7.43022 47.8469L7.31597 47.8724L7.18904 47.8979L7.0614 47.9234L6.93433 47.9362L6.79458 47.949L6.66766 47.9618L6.5279 47.9745L6.40012 47.9873L6.26052 48H6.12077H5.98087H5.84127H5.71349L5.58656 47.9873L5.44681 47.9745L5.31988 47.9618L5.19295 47.949L5.06517 47.9362L4.93824 47.9107L4.81117 47.885L4.69706 47.8595L4.56942 47.834L4.45517 47.7957L4.32824 47.7702L4.21328 47.7318L4.09903 47.6808L3.98478 47.6424L3.858 47.5913L3.74303 47.5403L3.62878 47.4893L3.51468 47.4382L3.39957 47.3743L3.29829 47.3111L3.18404 47.2473L3.0819 47.1833L2.98047 47.1196L2.87832 47.0428L2.7769 46.9663L2.67533 46.8897L2.58601 46.8131L2.4974 46.7364L2.40794 46.647L2.31933 46.5705L2.22987 46.481L2.14126 46.3915L2.06462 46.3022L1.98869 46.2001L1.91205 46.1106L1.84823 46.0085L1.7723 45.9062L1.70862 45.8042L1.64537 45.7019L1.58155 45.5869L1.51773 45.4848L1.46744 45.3698L1.4163 45.2549L1.3653 45.1399L1.31487 45.0251L1.27655 44.923L1.22541 44.8078L1.19991 44.6929L1.1623 44.5781L1.1368 44.4504L1.09848 44.3353L1.07298 44.2077L1.06016 44.0927L1.03452 43.9649L1.02198 43.8501L1.00902 43.7223L0.997052 43.5946L0.984375 43.4669V43.3265V43.1987V43.1732V43.0454L0.997052 42.9049V42.7773L1.00902 42.6495L1.02198 42.509L1.04748 42.3821L1.06016 42.2543L1.08566 42.1394L1.12398 42.0117L1.14962 41.8839L1.18709 41.769L1.22541 41.6413L1.26373 41.5264L1.31487 41.3986L1.3653 41.2838L1.4163 41.1688L1.46744 41.0538L1.51773 40.9389L1.58155 40.8239L1.64537 40.7218L1.70862 40.6195L1.7723 40.5174L1.83626 40.4152L1.91205 40.3131L1.98869 40.2109L2.06462 40.1088L2.14126 40.0192L2.22987 39.9299L2.30651 39.8404L2.39526 39.7512L2.48458 39.6616L2.57318 39.5851L2.67533 39.4957L2.76408 39.419L2.8655 39.3424L2.96765 39.2786L3.06907 39.2019L3.17136 39.1381L3.27264 39.0743L3.38689 39.0103L3.50186 38.9465L3.61596 38.8827L3.73021 38.8315L3.84503 38.7805L3.9721 38.7166L4.07353 38.6784L4.20046 38.6399L4.31556 38.5889L4.42967 38.5633L4.54378 38.525L4.67142 38.4995L4.78567 38.4612L4.9126 38.4356L5.03967 38.4228L5.16731 38.3973L5.29438 38.3845L5.42117 38.3718L5.54824 38.359L5.67602 38.3462H5.81577H5.9427H6.0823H6.22205L6.36266 38.359L6.50241 38.3718H6.62933L6.75626 38.3845L6.89601 38.4102L7.01097 38.4228L7.1379 38.4485L7.26497 38.474L7.37979 38.4995L7.4939 38.525L7.60829 38.5506L7.72325 38.5889L7.83736 38.6144L7.93879 38.6528L8.05375 38.6911L8.168 38.7421L8.28211 38.7932L8.39707 38.8444L8.51132 38.9082L8.62543 38.9593L8.72771 39.0231L8.84182 39.087L8.94325 39.1508L9.05821 39.2147L9.15964 39.2912L9.26106 39.3552L9.36321 39.4318L9.46464 39.5085L9.56678 39.5978L9.6682 39.6744L9.59156 39.7767L9.50295 39.8661L9.42631 39.9682L9.33771 40.0703L9.26106 40.1726L9.18514 40.2619L9.09568 40.3641L9.01989 40.4662L8.94325 40.5558L8.8545 40.658L8.778 40.7601L8.68925 40.8622L8.61261 40.9517L8.53682 41.0538L8.4475 41.156L8.37143 41.2581L8.28211 41.3476L8.20618 41.4497L8.10404 41.3731L8.00261 41.2838L7.90047 41.2198L7.79904 41.1432L7.69761 41.0793L7.59547 41.0154L7.4939 40.9517L7.37979 40.8877L7.27765 40.8367L7.17622 40.7856L7.07408 40.7473L6.95983 40.709L6.84573 40.6706L6.73076 40.6451L6.60384 40.6195L6.47691 40.594L6.34983 40.5813L6.21009 40.5685L6.06963 40.5558H5.92987H5.80295L5.67602 40.5685L5.56106 40.5813L5.43413 40.6068L5.31988 40.6325L5.20492 40.6706L5.09081 40.709L4.97656 40.7601L4.86231 40.8111L4.76017 40.8749L4.65888 40.9389L4.5566 41.0028L4.46799 41.0793L4.37853 41.156L4.28992 41.2326L4.21328 41.322L4.12467 41.4114L4.04803 41.5136L3.98478 41.603L3.92096 41.7052L3.858 41.8201L3.79403 41.9223L3.74303 42.0372L3.70471 42.1522L3.65428 42.2671L3.61596 42.3948L3.59046 42.5219L3.56496 42.6367L3.53932 42.7773L3.52664 42.9049L3.51468 43.0326V43.1732V43.1987V43.3265L3.52664 43.4541L3.53932 43.5691L3.55214 43.6968L3.57764 43.8117L3.60328 43.9268L3.62878 44.0416L3.6671 44.1565L3.70471 44.2587L3.75585 44.3863L3.80685 44.5014L3.86996 44.6164L3.93378 44.7185L3.9976 44.8207L4.07353 44.923L4.15017 45.0123L4.23878 45.1017L4.31556 45.1911L4.40403 45.2677L4.50631 45.3443L4.60774 45.421L4.70903 45.4848L4.81117 45.5486L4.92556 45.5998L5.03967 45.6509L5.15449 45.7019L5.28156 45.7402L5.40849 45.7785L5.53627 45.8042L5.6632 45.8297L5.79013 45.8424L5.92987 45.8552H6.06963H6.22205L6.36266 45.8424L6.50241 45.8297L6.62933 45.8169L6.75626 45.7912L6.88404 45.7657L7.01097 45.7275L7.12508 45.7019L7.23947 45.6509L7.34161 45.5998L7.45572 45.5486L7.54504 45.4976L7.64661 45.4337V45.306V45.1784V45.0506V44.923V44.7824V44.6547V44.5269V44.3993V44.2715H7.51954H7.40472H7.27765H7.15072H7.0238H6.90883H6.78176H6.65483H6.5279H6.41308H6.28601H6.15909H6.03202H5.9172H5.79013V44.1439V44.0289V43.9011V43.7735V43.6457V43.5307V43.4031V43.2753V43.1477V43.0326V42.9049V42.7773V42.6495V42.5345V42.4076H5.9172H6.04484H6.17191H6.2987H6.42577H6.55269H6.68048H6.8074H6.93433H7.0614H7.18904H7.31597H7.4429H7.56983H7.69761H7.82468H7.95161H8.07854H8.20618H8.33325H8.46018H8.58711H8.71475H8.84182H8.96874H9.09568H9.22346H9.35039H9.47746H9.60438H9.73202H9.85896H9.98603V42.5345V42.6622V42.79V42.9049V43.0326V43.1603V43.288V43.4158V43.5436V43.6584V43.7862V43.9139V44.0416V44.1694V44.297V44.4248V44.5396V44.6674V44.7952V44.923V45.0506V45.1784V45.306V45.421V45.5486V45.6764V45.8042V45.9318V46.0595V46.1746V46.3022V46.4299V46.5576L9.89742 46.6341ZM29.0282 31.0275H33.7085V0.263839H29.0282V31.0275ZM20.4885 15.7337C21.6695 15.7337 22.2374 15.1621 22.2374 13.9314V6.19632C22.2374 4.96593 21.6695 4.39482 20.4885 4.39482H18.5638V15.7337H20.4885ZM13.8841 0.2636H21.2316C25.0367 0.2636 26.9171 2.15313 26.9171 5.97694V14.1516C26.9171 17.9747 25.0367 19.8641 21.2316 19.8641H18.5638V31.0273H13.8841V0.2636Z" fill="white"/>
</svg>
