<svg width="15" height="17" viewBox="0 0 15 17" fill="none" xmlns="http://www.w3.org/2000/svg">
<path id="Vector" d="M13.3214 5.83929H8.75V1.26786H1.89286V14.9821H13.3214V5.83929ZM12.8483 4.69643L9.89286 1.741V4.69643H12.8483ZM1.32143 0.125H9.89286L14.4643 4.69643V15.5536C14.4643 15.7051 14.4041 15.8505 14.2969 15.9576C14.1898 16.0648 14.0444 16.125 13.8929 16.125H1.32143C1.16988 16.125 1.02453 16.0648 0.917368 15.9576C0.810204 15.8505 0.75 15.7051 0.75 15.5536V0.696429C0.75 0.544876 0.810204 0.399531 0.917368 0.292368C1.02453 0.185204 1.16988 0.125 1.32143 0.125ZM4.17857 8.125H11.0357V9.26786H4.17857V8.125ZM4.17857 4.69643H7.03571V5.83929H4.17857V4.69643ZM4.17857 11.5536H11.0357V12.6964H4.17857V11.5536Z" fill="#A3A5A8"/>
</svg>
