<svg width="24" height="24" viewBox="0 0 24 24" fill="none" xmlns="http://www.w3.org/2000/svg">
<path d="M12.2 5.87C12.13 5.87 12.06 5.87 12 5.88V2.01C12.07 2 12.13 2 12.2 2C14.46 2 16.4 2.69 17.99 3.86C18.49 4.22 18.53 4.95 18.09 5.38L16.7 6.74C16.36 7.07 15.84 7.13 15.45 6.86C14.7 6.34 13.63 5.87 12.2 5.87ZM21.8 12.22C21.8 15.27 20.71 17.83 18.82 19.58C17.17 21.11 14.9 22 12.2 22C12.13 22 12.07 22 12 21.99V18.12C12.07 18.13 12.13 18.13 12.2 18.13C13.69 18.13 14.82 17.72 15.67 17.13C17 16.2 17.6 14.81 17.71 13.89H13.2C12.65 13.89 12.2 13.44 12.2 12.89V11.18C12.2 10.63 12.65 10.18 13.2 10.18H20.75C21.26 10.18 21.69 10.56 21.74 11.07C21.78 11.42 21.8 11.79 21.8 12.22Z" fill="white"/>
<path opacity="0.4" d="M6.49995 10.022C6.29995 10.642 6.17995 11.312 6.17995 12.002C6.17995 12.692 6.29995 13.352 6.50995 13.982C7.28995 16.332 9.44995 18.042 12 18.122V21.992C10.1829 21.9584 8.40973 21.4281 6.8726 20.4586C5.33547 19.489 4.09303 18.1173 3.27995 16.492H3.26995C2.58995 15.132 2.19995 13.612 2.19995 12.002C2.19995 10.392 2.58995 8.87196 3.26995 7.51196C4.08417 5.88544 5.32825 4.51294 6.86723 3.54337C8.4062 2.5738 10.1813 2.04418 12 2.01196V5.88196C9.63995 5.95196 7.62995 7.41196 6.70995 9.48196C6.62995 9.66196 6.55995 9.84196 6.49995 10.022Z" fill="white"/>
</svg>
