<svg width="14" height="17" viewBox="0 0 14 17" fill="none" xmlns="http://www.w3.org/2000/svg">
<path id="Vector" d="M7.11329 12.9654C7.34136 12.9654 7.53267 12.8877 7.68721 12.7321C7.84176 12.5766 7.91876 12.3843 7.91823 12.1553V8.91481C7.91823 8.68527 7.84095 8.493 7.68641 8.338C7.53186 8.18299 7.34082 8.10522 7.11329 8.10468C6.88523 8.10468 6.69419 8.18245 6.54018 8.338C6.38617 8.49354 6.3089 8.68581 6.30836 8.91481V12.1553C6.30836 12.3848 6.38564 12.5774 6.54018 12.7329C6.69473 12.8885 6.88577 12.966 7.11329 12.9654ZM7.11329 6.48443C7.34136 6.48443 7.53267 6.40665 7.68721 6.25111C7.84176 6.09556 7.91876 5.9033 7.91823 5.6743C7.91823 5.44476 7.84095 5.25249 7.68641 5.09749C7.53186 4.94248 7.34082 4.86471 7.11329 4.86417C6.88523 4.86417 6.69419 4.94195 6.54018 5.09749C6.38617 5.25303 6.3089 5.4453 6.30836 5.6743C6.30836 5.90383 6.38564 6.09638 6.54018 6.25192C6.69473 6.40746 6.88577 6.48497 7.11329 6.48443ZM7.11329 16.9351C7.01939 16.9351 6.93219 16.9283 6.85169 16.9148C6.7712 16.9013 6.6907 16.8811 6.61021 16.854C4.79911 16.2465 3.35694 15.1223 2.28369 13.4815C1.21045 11.8407 0.673828 10.0754 0.673828 8.18569V4.35784C0.673828 4.02029 0.771225 3.71649 0.966019 3.44645C1.16081 3.17641 1.41222 2.98063 1.72024 2.85911L6.54984 1.03632C6.73766 0.968814 6.92548 0.935059 7.11329 0.935059C7.30111 0.935059 7.48893 0.968814 7.67675 1.03632L12.5063 2.85911C12.8149 2.98063 13.0666 3.17641 13.2614 3.44645C13.4562 3.71649 13.5533 4.02029 13.5528 4.35784V8.18569C13.5528 10.076 13.0161 11.8415 11.9429 13.4823C10.8697 15.1231 9.42748 16.247 7.61638 16.854C7.53588 16.8811 7.45539 16.9013 7.3749 16.9148C7.2944 16.9283 7.2072 16.9351 7.11329 16.9351Z" fill="#A3A5A8"/>
</svg>
