<svg width="75" height="122" viewBox="0 0 75 122" fill="none" xmlns="http://www.w3.org/2000/svg">
<g filter="url(#filter0_ii_1915_23341)">
<path d="M0.618892 60.3219L37.5001 4.99999C40.4882 0.629992 47.0126 0.395496 51.2411 0.457537C52.4427 0.475166 53.3626 1.55118 53.2067 2.74271L47.0297 49.9524C46.7215 52.3081 48.1135 54.5554 50.3599 55.3288L72.8924 63.0859C74.8769 63.7691 75.5699 66.2193 74.2249 67.8306C61.1052 83.5477 38.0929 110.791 34.0001 116C30.3564 120.637 25.0896 121.48 21.7777 121.254C20.757 121.185 20.0974 120.23 20.2257 119.215L25.3997 78.2533C25.7509 75.4732 24.131 72.8203 21.4975 71.8627L2.08982 64.8053C0.262294 64.1408 -0.45978 61.9399 0.618892 60.3219Z" fill="url(#paint0_linear_1915_23341)"/>
</g>
<mask id="mask0_1915_23341" style="mask-type:alpha" maskUnits="userSpaceOnUse" x="0" y="0" width="75" height="122">
<path d="M0.618892 60.3219L37.5001 4.99999C40.4882 0.629992 47.0126 0.395496 51.2411 0.457537C52.4427 0.475166 53.3626 1.55118 53.2067 2.74271L47.0297 49.9524C46.7215 52.3081 48.1135 54.5554 50.3599 55.3288L72.8924 63.0859C74.8769 63.7691 75.5699 66.2193 74.2249 67.8306C61.1052 83.5477 38.0929 110.791 34.0001 116C30.3564 120.637 25.0896 121.48 21.7777 121.254C20.757 121.185 20.0974 120.23 20.2257 119.215L25.3997 78.2533C25.7509 75.4732 24.131 72.8203 21.4975 71.8627L2.08982 64.8053C0.262294 64.1408 -0.45978 61.9399 0.618892 60.3219Z" fill="url(#paint1_linear_1915_23341)"/>
</mask>
<g mask="url(#mask0_1915_23341)">
<g opacity="0.3" filter="url(#filter1_f_1915_23341)">
<path d="M53.1599 1.97573C52.8912 0.937515 51.577 0.872644 50.5528 1.19051L44.4531 3.08354C42.6434 3.64516 41.3067 5.18147 41.0007 7.05141L33.0421 55.6875C32.7286 57.6032 33.8359 59.4676 35.6681 60.1089L58.8774 68.2321C61.2231 69.0531 63.7777 69.0556 66.125 68.2391L73.9742 65.509C74.4614 65.3395 74.7542 64.814 74.4885 64.372C74.1431 63.7974 73.5998 63.3294 72.8924 63.0859L50.3599 55.3288C48.1135 54.5554 46.7215 52.3081 47.0297 49.9524L53.2067 2.74271C53.2413 2.47789 53.2229 2.21878 53.1599 1.97573Z" fill="url(#paint2_linear_1915_23341)"/>
</g>
<g opacity="0.5" filter="url(#filter2_f_1915_23341)">
<path fill-rule="evenodd" clip-rule="evenodd" d="M47.7474 53.2509L33.3729 58.0424C33.8179 58.9832 34.6257 59.744 35.6681 60.1089L58.8774 68.2321C61.2231 69.0531 63.7777 69.0556 66.125 68.2391L73.9742 65.509C74.4614 65.3395 74.7542 64.814 74.4885 64.372C74.1431 63.7974 73.5998 63.3294 72.8924 63.0859L50.3599 55.3288C49.2434 54.9444 48.3379 54.1959 47.7474 53.2509Z" fill="white"/>
</g>
<g filter="url(#filter3_f_1915_23341)">
<path d="M12 132L63 69H63.2707C64.7348 69 66.1767 68.6428 67.4715 67.9595L83.5 59.5L85 64.5L63 117.5L12 132Z" fill="url(#paint3_linear_1915_23341)"/>
</g>
<g opacity="0.3" filter="url(#filter4_f_1915_23341)">
<path d="M48.643 92.2243L62.5927 72.2962C63.1874 71.4466 63.9922 70.7656 64.9285 70.3198L72.5701 66.6809C73.2337 66.3649 74 66.8488 74 67.5838V67.6404C74 67.8728 73.919 68.098 73.771 68.2773L64.5 79.5L50.1611 93.513C49.2924 94.362 47.9464 93.2194 48.643 92.2243Z" fill="url(#paint4_linear_1915_23341)"/>
</g>
<g filter="url(#filter5_f_1915_23341)">
<path d="M51.0001 1L42.0001 3.5L39.9623 3.83962C39.3369 3.94385 38.9163 3.64786 39.4669 3.33347C40.0355 3.00881 41.1072 2.56785 43.0001 2C47.0001 0.8 50.0001 0.833333 51.0001 1Z" fill="url(#paint5_linear_1915_23341)"/>
</g>
<g opacity="0.5" filter="url(#filter6_f_1915_23341)">
<path d="M35.8225 56.5975L37.0023 56.2384C37.932 55.9555 38.4569 57.2715 37.5877 57.7061C36.9745 58.0128 37.0132 58.9006 37.6508 59.1526L57.5 67L33.7502 60.0148C32.7587 59.7231 32.1526 58.7241 32.3521 57.71L38 29L34.6715 55.6283C34.5909 56.2729 35.201 56.7866 35.8225 56.5975Z" fill="url(#paint6_radial_1915_23341)"/>
</g>
<g opacity="0.1" filter="url(#filter7_f_1915_23341)">
<path d="M33.4541 53.4908L42.5 6C41.6667 14.6667 40 33.5 40 39.5C40 42.8001 40.2017 45.949 40.6051 48.1979C40.8853 49.7604 40.3088 52.7461 39.0309 53.6878L36.6052 55.4751C35.1412 56.5539 33.1139 55.2772 33.4541 53.4908Z" fill="url(#paint7_linear_1915_23341)"/>
</g>
<g opacity="0.3" filter="url(#filter8_f_1915_23341)">
<path d="M29.0966 55.6022L38.9622 7.6836C38.9867 7.56467 38.9705 7.44095 38.9162 7.33234C38.7305 6.96101 38.2132 6.92825 37.9822 7.2732L6.68765 54.0006C4.81149 56.802 7.03013 60.5255 10.3868 60.2088L25.5545 58.7779C27.3048 58.6128 28.7421 57.3241 29.0966 55.6022Z" fill="url(#paint8_linear_1915_23341)"/>
</g>
<g opacity="0.2" filter="url(#filter9_f_1915_23341)">
<path d="M22.1447 119.582L49.2429 86.0125C51.3548 83.3963 49.4927 79.5 46.1305 79.5H30.4633C28.4752 79.5 26.7889 80.9601 26.5044 82.9276L21.2608 119.196C21.188 119.7 21.8253 119.978 22.1447 119.582Z" fill="url(#paint9_linear_1915_23341)"/>
</g>
</g>
<defs>
<filter id="filter0_ii_1915_23341" x="-1.88623" y="-1.54982" width="76.8066" height="124.837" filterUnits="userSpaceOnUse" color-interpolation-filters="sRGB">
<feFlood flood-opacity="0" result="BackgroundImageFix"/>
<feBlend mode="normal" in="SourceGraphic" in2="BackgroundImageFix" result="shape"/>
<feColorMatrix in="SourceAlpha" type="matrix" values="0 0 0 0 0 0 0 0 0 0 0 0 0 0 0 0 0 0 127 0" result="hardAlpha"/>
<feOffset dx="-2" dy="4"/>
<feGaussianBlur stdDeviation="1"/>
<feComposite in2="hardAlpha" operator="arithmetic" k2="-1" k3="1"/>
<feColorMatrix type="matrix" values="0 0 0 0 1 0 0 0 0 1 0 0 0 0 1 0 0 0 0.3 0"/>
<feBlend mode="normal" in2="shape" result="effect1_innerShadow_1915_23341"/>
<feColorMatrix in="SourceAlpha" type="matrix" values="0 0 0 0 0 0 0 0 0 0 0 0 0 0 0 0 0 0 127 0" result="hardAlpha"/>
<feOffset dy="-2"/>
<feGaussianBlur stdDeviation="1"/>
<feComposite in2="hardAlpha" operator="arithmetic" k2="-1" k3="1"/>
<feColorMatrix type="matrix" values="0 0 0 0 0.749365 0 0 0 0 0.277963 0 0 0 0 0.491428 0 0 0 0.5 0"/>
<feBlend mode="normal" in2="effect1_innerShadow_1915_23341" result="effect2_innerShadow_1915_23341"/>
</filter>
<filter id="filter1_f_1915_23341" x="30.9893" y="-0.977921" width="45.5996" height="71.8276" filterUnits="userSpaceOnUse" color-interpolation-filters="sRGB">
<feFlood flood-opacity="0" result="BackgroundImageFix"/>
<feBlend mode="normal" in="SourceGraphic" in2="BackgroundImageFix" result="shape"/>
<feGaussianBlur stdDeviation="1" result="effect1_foregroundBlur_1915_23341"/>
</filter>
<filter id="filter2_f_1915_23341" x="31.373" y="51.2509" width="45.2158" height="19.5988" filterUnits="userSpaceOnUse" color-interpolation-filters="sRGB">
<feFlood flood-opacity="0" result="BackgroundImageFix"/>
<feBlend mode="normal" in="SourceGraphic" in2="BackgroundImageFix" result="shape"/>
<feGaussianBlur stdDeviation="1" result="effect1_foregroundBlur_1915_23341"/>
</filter>
<filter id="filter3_f_1915_23341" x="8" y="55.5" width="81" height="80.5" filterUnits="userSpaceOnUse" color-interpolation-filters="sRGB">
<feFlood flood-opacity="0" result="BackgroundImageFix"/>
<feBlend mode="normal" in="SourceGraphic" in2="BackgroundImageFix" result="shape"/>
<feGaussianBlur stdDeviation="2" result="effect1_foregroundBlur_1915_23341"/>
</filter>
<filter id="filter4_f_1915_23341" x="47.9497" y="66.0826" width="26.5503" height="28.2273" filterUnits="userSpaceOnUse" color-interpolation-filters="sRGB">
<feFlood flood-opacity="0" result="BackgroundImageFix"/>
<feBlend mode="normal" in="SourceGraphic" in2="BackgroundImageFix" result="shape"/>
<feGaussianBlur stdDeviation="0.25" result="effect1_foregroundBlur_1915_23341"/>
</filter>
<filter id="filter5_f_1915_23341" x="38.2114" y="-0.084549" width="13.7886" height="4.94547" filterUnits="userSpaceOnUse" color-interpolation-filters="sRGB">
<feFlood flood-opacity="0" result="BackgroundImageFix"/>
<feBlend mode="normal" in="SourceGraphic" in2="BackgroundImageFix" result="shape"/>
<feGaussianBlur stdDeviation="0.5" result="effect1_foregroundBlur_1915_23341"/>
</filter>
<filter id="filter6_f_1915_23341" x="30.3145" y="27" width="29.1855" height="42" filterUnits="userSpaceOnUse" color-interpolation-filters="sRGB">
<feFlood flood-opacity="0" result="BackgroundImageFix"/>
<feBlend mode="normal" in="SourceGraphic" in2="BackgroundImageFix" result="shape"/>
<feGaussianBlur stdDeviation="1" result="effect1_foregroundBlur_1915_23341"/>
</filter>
<filter id="filter7_f_1915_23341" x="32.9165" y="5.5" width="10.0835" height="50.8715" filterUnits="userSpaceOnUse" color-interpolation-filters="sRGB">
<feFlood flood-opacity="0" result="BackgroundImageFix"/>
<feBlend mode="normal" in="SourceGraphic" in2="BackgroundImageFix" result="shape"/>
<feGaussianBlur stdDeviation="0.25" result="effect1_foregroundBlur_1915_23341"/>
</filter>
<filter id="filter8_f_1915_23341" x="4.00195" y="5.03307" width="36.9712" height="57.1946" filterUnits="userSpaceOnUse" color-interpolation-filters="sRGB">
<feFlood flood-opacity="0" result="BackgroundImageFix"/>
<feBlend mode="normal" in="SourceGraphic" in2="BackgroundImageFix" result="shape"/>
<feGaussianBlur stdDeviation="1" result="effect1_foregroundBlur_1915_23341"/>
</filter>
<filter id="filter9_f_1915_23341" x="19.2549" y="77.5" width="32.8833" height="44.2696" filterUnits="userSpaceOnUse" color-interpolation-filters="sRGB">
<feFlood flood-opacity="0" result="BackgroundImageFix"/>
<feBlend mode="normal" in="SourceGraphic" in2="BackgroundImageFix" result="shape"/>
<feGaussianBlur stdDeviation="1" result="effect1_foregroundBlur_1915_23341"/>
</filter>
<linearGradient id="paint0_linear_1915_23341" x1="37.517" y1="0.45018" x2="37.517" y2="121.287" gradientUnits="userSpaceOnUse">
<stop stop-color="#FFA700"/>
<stop offset="1" stop-color="#D45BFF"/>
</linearGradient>
<linearGradient id="paint1_linear_1915_23341" x1="37.517" y1="0.45018" x2="37.517" y2="121.287" gradientUnits="userSpaceOnUse">
<stop stop-color="#FFA700"/>
<stop offset="1" stop-color="#D45BFF"/>
</linearGradient>
<linearGradient id="paint2_linear_1915_23341" x1="53.6668" y1="0.693619" x2="53.6668" y2="69.5" gradientUnits="userSpaceOnUse">
<stop stop-color="#9C6100"/>
<stop offset="1" stop-color="#D85563"/>
</linearGradient>
<linearGradient id="paint3_linear_1915_23341" x1="69.5" y1="66" x2="25.5" y2="121.5" gradientUnits="userSpaceOnUse">
<stop stop-color="#C74F92"/>
<stop offset="1" stop-color="#CD4DFF"/>
</linearGradient>
<linearGradient id="paint4_linear_1915_23341" x1="70" y1="67" x2="55.5" y2="87.5" gradientUnits="userSpaceOnUse">
<stop stop-color="white"/>
<stop offset="1" stop-color="white" stop-opacity="0"/>
</linearGradient>
<linearGradient id="paint5_linear_1915_23341" x1="50.5" y1="1" x2="39" y2="4" gradientUnits="userSpaceOnUse">
<stop stop-color="white"/>
<stop offset="1" stop-color="white" stop-opacity="0"/>
</linearGradient>
<radialGradient id="paint6_radial_1915_23341" cx="0" cy="0" r="1" gradientUnits="userSpaceOnUse" gradientTransform="translate(34.5 58) rotate(23.4986) scale(12.5399 8.41496)">
<stop stop-color="white"/>
<stop offset="1" stop-color="white" stop-opacity="0"/>
</radialGradient>
<linearGradient id="paint7_linear_1915_23341" x1="39.25" y1="6" x2="39.25" y2="55.5" gradientUnits="userSpaceOnUse">
<stop stop-color="white" stop-opacity="0"/>
<stop offset="1" stop-color="white"/>
</linearGradient>
<linearGradient id="paint8_linear_1915_23341" x1="20.5" y1="6.5" x2="20.5" y2="61" gradientUnits="userSpaceOnUse">
<stop stop-color="white"/>
<stop offset="1" stop-color="white" stop-opacity="0"/>
</linearGradient>
<linearGradient id="paint9_linear_1915_23341" x1="21" y1="119.5" x2="35.5" y2="79" gradientUnits="userSpaceOnUse">
<stop stop-color="white"/>
<stop offset="1" stop-color="white" stop-opacity="0"/>
</linearGradient>
</defs>
</svg>
