<svg width="9" height="14" viewBox="0 0 9 14" fill="none" xmlns="http://www.w3.org/2000/svg">
<path id="Vector" d="M3.76181 13.992C3.70325 14.0027 3.64324 14.0027 3.58467 13.992C3.45686 13.9534 3.34515 13.8741 3.26654 13.7662C3.18793 13.6583 3.14673 13.5277 3.14921 13.3942V13.313L3.81348 8.6262H0.610232C0.502209 8.62629 0.396231 8.59675 0.303833 8.54079C0.211435 8.48483 0.136159 8.4046 0.0861983 8.30883C0.0297551 8.21258 0 8.10303 0 7.99145C0 7.87988 0.0297551 7.77032 0.0861983 7.67408L1.56235 5.0982L4.58846 0.285948C4.6557 0.172403 4.75948 0.0850283 4.88282 0.0381052C5.00616 -0.00881796 5.14177 -0.0125138 5.26749 0.0276219C5.3953 0.0662051 5.50701 0.145489 5.58562 0.253408C5.66423 0.361327 5.70543 0.491973 5.70295 0.625463V0.706651L5.03868 5.39343H8.24931C8.35733 5.39333 8.46331 5.42287 8.55571 5.47883C8.64811 5.53479 8.72338 5.61503 8.77334 5.7108C8.82979 5.80704 8.85954 5.9166 8.85954 6.02817C8.85954 6.13975 8.82979 6.2493 8.77334 6.34555L7.29719 8.92143L4.27108 13.7337C4.21548 13.8168 4.13942 13.8842 4.05024 13.9295C3.96105 13.9747 3.86173 13.9962 3.76181 13.992ZM1.42949 7.48956H4.3818C4.46321 7.49052 4.54365 7.50752 4.6185 7.53957C4.69335 7.57162 4.76115 7.6181 4.81804 7.67636C4.87493 7.73461 4.91978 7.80351 4.95004 7.8791C4.9803 7.95469 4.99537 8.03551 4.9944 8.11693V8.19811L4.55893 11.2537L6.40412 8.30144L7.46695 6.47102H4.51465C4.43323 6.47005 4.3528 6.45306 4.27795 6.42101C4.2031 6.38896 4.13529 6.34248 4.0784 6.28422C4.02152 6.22597 3.97666 6.15707 3.9464 6.08148C3.91614 6.00589 3.90107 5.92507 3.90205 5.84365V5.76247L4.33751 2.70683L2.49232 5.65914L1.42949 7.48956Z" fill="#FFCD4C"/>
</svg>
