<svg width="91" height="40" viewBox="0 0 91 40" fill="none" xmlns="http://www.w3.org/2000/svg">
<path id="path31" d="M9.46598 29.86V32.9221H13.2409C13.2413 33.5431 13.0809 34.1537 12.7754 34.6944C12.456 35.2331 11.9833 35.6644 11.4177 35.9333C10.7414 36.2423 10.0031 36.3916 9.2599 36.3697C8.40172 36.3935 7.55645 36.1568 6.8354 35.6909C6.13115 35.202 5.58776 34.5152 5.27402 33.7173C4.88286 32.7197 4.69572 31.6537 4.72366 30.5825C4.69504 29.5195 4.88655 28.4621 5.28614 27.4767C5.61284 26.6913 6.16026 26.0176 6.86207 25.5371C7.56966 25.0777 8.39953 24.8427 9.24293 24.8631C9.68203 24.8592 10.1195 24.9172 10.5425 25.0352C10.9187 25.143 11.2738 25.3144 11.5923 25.5419C11.8947 25.7598 12.1558 26.0299 12.3633 26.3396C12.5802 26.6708 12.7438 27.0341 12.8482 27.4161H17.0353C16.9257 26.5374 16.6404 25.6898 16.1964 24.9237C15.7546 24.1678 15.1748 23.5017 14.4871 22.9598C13.7665 22.3965 12.9535 21.9625 12.0844 21.6773C11.1405 21.37 10.1531 21.2178 9.16049 21.2263C7.99909 21.2166 6.84668 21.4307 5.7662 21.8567C4.72801 22.2701 3.78929 22.8989 3.01197 23.7017C2.19859 24.5501 1.5703 25.5581 1.16693 26.662C0.706246 27.9395 0.48196 29.2901 0.505033 30.6479C0.505033 32.5778 0.871943 34.2418 1.60576 35.6399C2.29963 36.9866 3.36811 38.1039 4.68245 38.8573C7.38303 40.2981 10.6067 40.3737 13.3718 39.0609C14.5517 38.4623 15.534 37.5364 16.2012 36.394C16.8882 35.2318 17.2308 33.8418 17.2292 32.2238V29.8575L9.46598 29.86ZM61.5999 39.7543V21.4639H74.1273V24.8485H65.7337V28.912H72.5199V32.2966H65.7337V36.3697H74.1467V39.7543H61.5999ZM86.2886 26.8318C86.2513 26.1955 85.9378 25.6074 85.4303 25.2219C84.9236 24.8364 84.2181 24.6449 83.3234 24.6449C82.8067 24.6276 82.2914 24.7099 81.8057 24.8873C81.4394 25.0209 81.1177 25.2544 80.8771 25.5613C80.6687 25.8418 80.5557 26.1817 80.5547 26.5311C80.5433 26.8096 80.6096 27.0858 80.7462 27.3288C80.89 27.5703 81.0895 27.774 81.3281 27.9228C81.6079 28.1042 81.9092 28.25 82.2252 28.3568C82.5934 28.4851 82.9691 28.5911 83.3501 28.6744L84.9576 29.0477C85.7454 29.2153 86.5134 29.4656 87.2487 29.7945C87.8865 30.0788 88.4756 30.4617 88.9943 30.9292C89.4693 31.3617 89.8477 31.8896 90.1048 32.4784C90.3738 33.1138 90.5068 33.7984 90.4951 34.4883C90.5223 35.5326 90.2222 36.5592 89.6368 37.4244C89.0181 38.2836 88.1632 38.9448 87.176 39.3276C85.9452 39.8029 84.6327 40.0303 83.3138 39.9968C81.9752 40.0254 80.6438 39.794 79.3933 39.3155C78.3403 38.9065 77.4347 38.1901 76.7943 37.2595C76.1752 36.3447 75.852 35.2035 75.8245 33.8361H79.8079C79.8185 34.9176 80.5001 35.8785 81.5172 36.2461C82.0775 36.459 82.6733 36.5627 83.2725 36.5516C83.8224 36.5636 84.3699 36.474 84.8873 36.2873C85.2959 36.143 85.6584 35.8919 85.9371 35.5599C86.1827 35.2511 86.3169 34.8684 86.3177 34.4738C86.3214 34.1199 86.1994 33.7762 85.9734 33.504C85.6964 33.2018 85.3527 32.9686 84.9697 32.8227C84.4287 32.6022 83.8699 32.4286 83.2992 32.3038L81.3426 31.8311C79.7829 31.4593 78.552 30.8726 77.6501 30.0709C76.7482 29.2692 76.3005 28.183 76.307 26.8124C76.2785 25.7606 76.5953 24.7285 77.2089 23.8739C77.8513 23.0048 78.7166 22.3254 79.7134 21.9076C80.8628 21.4202 82.1018 21.1798 83.3501 21.2021C84.5926 21.1742 85.8265 21.4149 86.9675 21.9076C87.9363 22.3292 88.7684 23.0126 89.3701 23.8811C89.9485 24.7513 90.2525 25.7749 90.243 26.8196L86.2886 26.8318ZM58.6518 39.7543H54.5616V25.8498L54.1422 25.845L50.0109 39.7543H45.9231L41.9033 25.845L41.3821 25.8498V39.7543H37.2919V21.4639H44.243L47.7536 33.7222H48.1779L51.6886 21.4639H58.6518V39.7543ZM30.8525 39.7543H35.282L29.1408 21.4663H23.5281L17.3771 39.7543H21.8139L23.0092 35.7442H29.6572L30.8525 39.7543ZM23.9596 32.5536L25.9526 25.8498H26.7042L28.7068 32.5536H23.9596ZM18.3954 0.249566H22.5292V18.54H18.3954V0.249566ZM42.1603 9.39477C42.1603 11.4023 41.7797 13.0994 41.0184 14.4862C40.3112 15.8251 39.2351 16.9332 37.9175 17.6793C35.1665 19.1469 31.8651 19.1469 29.1141 17.6793C27.7962 16.9304 26.7201 15.8198 26.0132 14.4789C25.2519 13.0792 24.8712 11.382 24.8712 9.3875C24.8712 7.39294 25.2519 5.69175 26.0132 4.28393C26.7189 2.94907 27.7914 1.84373 29.1044 1.09814C31.8562 -0.366047 35.156 -0.366047 37.9078 1.09814C39.2254 1.84422 40.3015 2.95234 41.0087 4.2912C41.77 5.68771 42.1506 7.3889 42.1506 9.39477M37.9441 9.39477C37.9755 8.31864 37.7917 7.24707 37.4035 6.24292C37.0963 5.4581 36.5619 4.78277 35.8688 4.30333C34.4226 3.41431 32.5993 3.41431 31.1531 4.30333C30.4592 4.78314 29.9233 5.4582 29.6136 6.24292C28.8844 8.2809 28.8844 10.5086 29.6136 12.5466C29.9223 13.3319 30.4584 14.0073 31.1531 14.4862C32.5993 15.3752 34.4226 15.3752 35.8688 14.4862C36.5627 14.0076 37.0973 13.332 37.4035 12.5466C37.7914 11.5424 37.9752 10.4709 37.9441 9.39477ZM9.70843 12.1635L11.8323 18.54H16.3685L14.0071 11.6714H10.7995L10.6079 11.0798C11.2189 10.961 12.2638 10.7767 13.19 10.1464C14.5068 9.25055 15.2998 7.76521 15.3114 6.17261C15.3392 5.0889 15.0656 4.01875 14.5211 3.08138C13.9889 2.1737 13.199 1.44459 12.2517 0.986613C11.141 0.472251 9.92581 0.223243 8.70226 0.259264H1.32451V18.54H5.46071V12.1635H9.70843ZM9.63084 8.3789C9.0678 8.58593 8.47028 8.68305 7.87066 8.665H5.46071V3.60749H7.86339C8.46344 3.59022 9.06094 3.69242 9.62115 3.90813C10.0642 4.08433 10.4383 4.39899 10.6879 4.8052C10.9424 5.2147 11.069 5.69079 11.0516 6.17261C11.0714 6.64717 10.9462 7.1165 10.6928 7.51821C10.442 7.91308 10.0691 8.21529 9.63084 8.3789ZM42.5507 0.249566V3.64386H49.6545L49.8484 4.23786C49.2471 4.35424 48.2313 4.53365 47.3197 5.13493V18.5448H51.4098V3.63416H56.1666V0.239868L42.5507 0.249566Z" fill="#EB0029"/>
</svg>
