<svg width="24" height="24" viewBox="0 0 24 24" fill="none" xmlns="http://www.w3.org/2000/svg">
<path opacity="0.4" d="M12 22C17.523 22 22 17.523 22 12C22 6.477 17.523 2 12 2C6.477 2 2 6.477 2 12C2 17.523 6.477 22 12 22Z" fill="white"/>
<path d="M10.7399 16.28C10.5499 16.28 10.3599 16.21 10.2099 16.06C10.0704 15.9189 9.99219 15.7285 9.99219 15.53C9.99219 15.3316 10.0704 15.1412 10.2099 15L13.2099 12L10.2099 9.00003C10.0704 8.8589 9.99219 8.66846 9.99219 8.47003C9.99219 8.2716 10.0704 8.08117 10.2099 7.94003C10.4999 7.65003 10.9799 7.65003 11.2699 7.94003L14.7999 11.47C15.0899 11.76 15.0899 12.24 14.7999 12.53L11.2699 16.06C11.1199 16.21 10.9299 16.28 10.7399 16.28Z" fill="white"/>
</svg>
