<svg width="24" height="24" viewBox="0 0 24 24" fill="none" xmlns="http://www.w3.org/2000/svg">
<g id="Icon">
<path id="Vector" opacity="0.4" d="M16.19 2H7.81C4.17 2 2 4.17 2 7.81V16.18C2 19.83 4.17 22 7.81 22H16.18C19.82 22 21.99 19.83 21.99 16.19V7.81C22 4.17 19.83 2 16.19 2Z" fill="#C1F54D"/>
<path id="Vector_2" d="M10.5799 15.5821C10.3811 15.5819 10.1904 15.5027 10.0499 15.3621L7.2199 12.5321C7.08042 12.3909 7.0022 12.2005 7.0022 12.0021C7.0022 11.8036 7.08042 11.6132 7.2199 11.4721C7.5099 11.1821 7.9899 11.1821 8.2799 11.4721L10.5799 13.7721L15.7199 8.63205C16.0099 8.34205 16.4899 8.34205 16.7799 8.63205C17.0699 8.92205 17.0699 9.40205 16.7799 9.69205L11.1099 15.3621C10.9694 15.5027 10.7787 15.5819 10.5799 15.5821Z" fill="#C1F54D"/>
</g>
</svg>
