<svg width="131" height="40" viewBox="0 0 131 40" fill="none" xmlns="http://www.w3.org/2000/svg">
<g clip-path="url(#clip0_547_24744)">
<path fill-rule="evenodd" clip-rule="evenodd" d="M20.2983 0.442139C10.0243 0.442139 1.60766 8.36406 0.807861 18.4316L11.2905 22.7657C12.1788 22.1582 13.2518 21.8023 14.4062 21.8023C14.5096 21.8023 14.6126 21.8067 14.7148 21.8116L19.3765 15.0547V14.9592C19.3765 10.8921 22.6849 7.58328 26.7524 7.58328C30.8195 7.58328 34.1279 10.8921 34.1279 14.9592C34.1279 19.0262 30.8195 22.3355 26.7524 22.3355C26.6962 22.3355 26.6405 22.3355 26.5848 22.3311L19.9362 27.0751C19.9406 27.1613 19.9429 27.2493 19.9429 27.3368C19.9429 30.3901 17.4595 32.873 14.4066 32.873C11.7269 32.873 9.48625 30.9604 8.9787 28.4275L1.48165 25.33C3.80279 33.5393 11.3449 39.5579 20.2983 39.5579C31.1002 39.5579 39.8564 30.8013 39.8564 20.0007C39.8564 9.19834 31.0998 0.442139 20.2983 0.442139ZM13.3852 29.8945L11.0056 28.9238C11.4273 29.7907 12.1569 30.5166 13.1255 30.9152C15.2196 31.7765 17.6338 30.7955 18.5066 28.7263C18.9292 27.7258 18.9318 26.6212 18.5127 25.6181C18.0945 24.6146 17.3054 23.8321 16.2908 23.4144C15.284 23.0007 14.2054 23.0158 13.2578 23.369L15.7158 24.3725C17.2603 25.0081 17.9907 26.7591 17.347 28.284C16.7046 29.8093 14.9297 30.5304 13.3852 29.8945ZM26.9425 10.2646C29.6269 10.2646 31.8104 12.4208 31.8104 15.0706C31.8104 17.7205 29.6269 19.8762 26.9425 19.8762C24.2586 19.8762 22.0747 17.7209 22.0747 15.0706C22.0747 12.4208 24.2586 10.2646 26.9425 10.2646ZM26.9509 11.4523C24.9312 11.4523 23.2939 13.0684 23.2939 15.0624C23.2939 17.056 24.9312 18.6725 26.9509 18.6725C28.9705 18.6725 30.6079 17.0564 30.6079 15.0624C30.6079 13.0684 28.9705 11.4523 26.9509 11.4523Z" fill="#EAEAFD"/>
<path fill-rule="evenodd" clip-rule="evenodd" d="M59.0738 16.1273L60.3842 13.8238C59.4032 13.078 57.6347 12.3807 55.4342 12.3807C52.2771 12.3807 50.0828 13.9542 50.0828 16.6941C50.0828 19.1235 51.7381 20.17 54.1269 20.9676C54.282 21.019 54.4328 21.0684 54.579 21.1163L54.5796 21.1165L54.5798 21.1166C56.4084 21.7159 57.5215 22.0807 57.5215 23.1159C57.5215 24.093 56.67 24.7539 54.8785 24.7539C53.5495 24.7539 52.0587 24.3635 50.8123 23.7052L49.8564 26.2589C51.3906 27.1922 53.3863 27.6193 55.0408 27.6193C58.4354 27.6193 60.7972 25.9326 60.7972 22.9293C60.7972 20.7342 59.4195 19.7381 57.0228 18.8905C56.6783 18.7669 56.3511 18.6555 56.0443 18.551L56.0443 18.551C54.3654 17.9794 53.2931 17.6142 53.2931 16.5747C53.2931 15.5627 54.1375 14.9977 55.5023 14.9977C56.6965 14.9977 58.0644 15.4221 59.0738 16.1273ZM67.5424 15.2797V27.3669H70.628V15.2797H75.0934V12.6332H63.0637V15.2797H67.5424ZM87.5028 18.5916V21.2382H81.5979V24.696H88.449V27.3669H78.5132V12.6332H88.449V15.2718H81.5979V18.5916H87.5028ZM94.3608 27.3672L95.3361 24.5063L101.096 24.5058L102.093 27.3668H105.437L99.7564 12.6335H96.6505L91.1262 27.3672H94.3608ZM96.1739 22.0472L98.186 16.148L100.24 22.0472H96.1739ZM115.499 26.9376L111.532 18.4051V27.3669H108.578V12.6332H111.526L116.477 23.2688L121.253 12.6332H124.227V27.3669H121.273V18.3281L117.241 26.9376H115.499ZM128.154 16.5472C129.243 16.5472 130.192 15.758 130.192 14.4918C130.192 13.226 129.244 12.4421 128.154 12.4421C127.061 12.4421 126.11 13.226 126.11 14.4918C126.11 15.758 127.061 16.5472 128.154 16.5472ZM128.154 16.2165C127.216 16.2165 126.453 15.5511 126.453 14.4918C126.453 13.4374 127.219 12.7742 128.154 12.7742C129.089 12.7742 129.849 13.4294 129.849 14.4918C129.849 15.5511 129.089 16.2165 128.154 16.2165ZM128.889 14.0258C128.889 13.7238 128.711 13.4444 128.183 13.4444H127.477V15.4702H127.8V14.6837H128.211L128.611 15.4702H128.998L128.525 14.5829C128.725 14.4883 128.889 14.3026 128.889 14.0258ZM128.163 14.387H127.803H127.802V13.7517H128.162C128.435 13.7517 128.533 13.8711 128.533 14.0568C128.533 14.2407 128.396 14.387 128.163 14.387Z" fill="#EAEAFD"/>
</g>
<defs>
<clipPath id="clip0_547_24744">
<rect width="129.384" height="39.1158" fill="white" transform="translate(0.807861 0.442139)"/>
</clipPath>
</defs>
</svg>
