<svg width="25" height="24" viewBox="0 0 25 24" fill="none" xmlns="http://www.w3.org/2000/svg">
<path opacity="0.4" d="M12.5 22.012C18.023 22.012 22.5 17.535 22.5 12.012C22.5 6.48896 18.023 2.01196 12.5 2.01196C6.977 2.01196 2.5 6.48896 2.5 12.012C2.5 17.535 6.977 22.012 12.5 22.012Z" fill="#C1F54D"/>
<path d="M12.5002 6.94092C10.4302 6.94092 8.75024 8.62092 8.75024 10.6909C8.75024 12.7209 10.3402 14.3709 12.4502 14.4309H12.6302C13.601 14.399 14.5213 13.991 15.1967 13.2931C15.8722 12.5953 16.25 11.6622 16.2502 10.6909C16.2502 8.62092 14.5702 6.94092 12.5002 6.94092ZM19.2792 19.3579C17.4337 21.0637 15.0124 22.0101 12.4992 22.0079C9.87924 22.0079 7.49924 20.9979 5.71924 19.3579C5.95924 18.4479 6.60924 17.6179 7.55924 16.9779C10.2892 15.1579 14.7292 15.1579 17.4392 16.9779C18.3992 17.6179 19.0392 18.4479 19.2792 19.3579Z" fill="#C1F54D"/>
</svg>
