<svg width="20" height="20" viewBox="0 0 20 20" fill="none" xmlns="http://www.w3.org/2000/svg">
<path opacity="0.4" d="M10.0003 18.3433C14.6028 18.3433 18.3337 14.6125 18.3337 10.01C18.3337 5.40747 14.6028 1.67664 10.0003 1.67664C5.39783 1.67664 1.66699 5.40747 1.66699 10.01C1.66699 14.6125 5.39783 18.3433 10.0003 18.3433Z" fill="white"/>
<path d="M10.0004 5.78418C8.27544 5.78418 6.87544 7.18418 6.87544 8.90918C6.87544 10.6008 8.20044 11.9758 9.95878 12.0258H10.1088C10.9177 11.9992 11.6846 11.6593 12.2475 11.0777C12.8104 10.4961 13.1252 9.71854 13.1254 8.90918C13.1254 7.18418 11.7254 5.78418 10.0004 5.78418ZM15.6496 16.1317C14.1117 17.5532 12.0939 18.3418 9.99961 18.34C7.81628 18.34 5.83294 17.4983 4.34961 16.1317C4.54961 15.3733 5.09128 14.6817 5.88294 14.1483C8.15794 12.6317 11.8579 12.6317 14.1163 14.1483C14.9163 14.6817 15.4496 15.3733 15.6496 16.1317Z" fill="white"/>
</svg>
