<svg width="24" height="25" viewBox="0 0 24 25" fill="none" xmlns="http://www.w3.org/2000/svg">
<g id="Icon">
<path id="Vector" d="M12 22.5C17.523 22.5 22 18.023 22 12.5C22 6.977 17.523 2.5 12 2.5C6.477 2.5 2 6.977 2 12.5C2 18.023 6.477 22.5 12 22.5Z" stroke="#EAEAFD" stroke-width="1.5" stroke-linecap="round" stroke-linejoin="round"/>
<path id="Union" opacity="0.4" fill-rule="evenodd" clip-rule="evenodd" d="M15.7117 3.26248C15.5805 2.86958 15.1557 2.65739 14.7628 2.78855C14.3699 2.9197 14.1577 3.34453 14.2889 3.73743C14.698 4.96295 15.0189 6.20994 15.2517 7.46917C13.0909 7.22686 10.9096 7.22686 8.74888 7.46915C8.98167 6.20993 9.3026 4.96294 9.71169 3.73743C9.78804 3.5087 9.74976 3.25721 9.6088 3.06156C9.46785 2.8659 9.24142 2.74996 9.00028 2.74996H8.00028C7.58606 2.74996 7.25028 3.08575 7.25028 3.49996C7.25028 3.90695 7.57445 4.23822 7.97868 4.24965C7.6447 5.38236 7.38098 6.53031 7.18749 7.6871C5.69322 7.93702 4.21369 8.30416 2.76273 8.7885C2.36983 8.91965 2.15764 9.34449 2.28879 9.73739C2.41995 10.1303 2.84478 10.3425 3.23768 10.2113C4.46323 9.80222 5.71027 9.48128 6.96953 9.24849C6.72723 11.4093 6.72722 13.5906 6.96952 15.7513C5.71026 15.5185 4.46323 15.1976 3.23768 14.7885C3.00895 14.7121 2.75745 14.7504 2.5618 14.8914C2.36615 15.0323 2.2502 15.2588 2.2502 15.4999V16.4999C2.2502 16.9141 2.58599 17.2499 3.0002 17.2499C3.40719 17.2499 3.73846 16.9257 3.74989 16.5215C4.88264 16.8555 6.03064 17.1192 7.18748 17.3127C7.38096 18.4695 7.64469 19.6175 7.97868 20.7503C7.57445 20.7617 7.25028 21.093 7.25028 21.5C7.25028 21.9142 7.58606 22.25 8.00028 22.25H9.00028C9.24142 22.25 9.46785 22.134 9.6088 21.9384C9.74976 21.7427 9.78804 21.4912 9.71169 21.2625C9.30259 20.0369 8.98165 18.7899 8.74886 17.5307C10.9096 17.773 13.0909 17.773 15.2517 17.5307C15.0189 18.7899 14.698 20.0369 14.2889 21.2625C14.1577 21.6554 14.3699 22.0802 14.7628 22.2114C15.1557 22.3425 15.5805 22.1303 15.7117 21.7374C16.196 20.2865 16.5632 18.807 16.8131 17.3127C17.9699 17.1192 19.1178 16.8555 20.2505 16.5215C20.2619 16.9257 20.5932 17.2499 21.0002 17.2499C21.4144 17.2499 21.7502 16.9141 21.7502 16.4999V15.4999C21.7502 15.2588 21.6343 15.0323 21.4386 14.8914C21.243 14.7504 20.9915 14.7121 20.7627 14.7885C19.5372 15.1976 18.2902 15.5185 17.031 15.7513C17.2733 13.5906 17.2733 11.4093 17.031 9.24851C18.2902 9.4813 19.5372 9.80224 20.7627 10.2113C21.1556 10.3425 21.5805 10.1303 21.7116 9.73739C21.8428 9.34449 21.6306 8.91965 21.2377 8.7885C19.7868 8.30417 18.3073 7.93705 16.8131 7.68713C16.5631 6.1929 16.196 4.71341 15.7117 3.26248ZM15.4917 9.00854C13.1735 8.71374 10.827 8.71374 8.5089 9.00852C8.2141 11.3267 8.2141 13.6731 8.50889 15.9913C10.827 16.2861 13.1735 16.2861 15.4917 15.9913C15.7865 13.6731 15.7864 11.3267 15.4917 9.00854Z" fill="#EAEAFD"/>
</g>
</svg>
