<svg width="85" height="74" viewBox="0 0 85 74" fill="none" xmlns="http://www.w3.org/2000/svg">
<g opacity="0.5">
<path d="M40.3612 73.5971L73.0325 68.9438L32.7752 50.543L0.102163 55.197L40.3594 73.5978L40.3612 73.5971Z" fill="#2F2FEA"/>
</g>
<path d="M32.6348 51.5315L3.4834 55.6857L40.5026 72.6061L69.6522 68.4526L32.6348 51.5315Z" fill="url(#paint0_linear_50_10912)"/>
<path opacity="0.5" d="M44.6 0.984305L32.7331 50.5509L72.9903 68.9518L84.8572 19.3851L44.6 0.984305Z" fill="#2F2FEA"/>
<path d="M83.7387 19.9297L45.2611 2.34229L33.8515 50.0061L72.329 67.5935L83.7387 19.9297Z" fill="url(#paint1_linear_50_10912)"/>
<path opacity="0.5" d="M0.558141 55.0897L33.2294 50.4364L44.4998 0.999969L12.4243 5.52131L0.558141 55.0897Z" fill="#2F2FEA"/>
<path opacity="0.6" d="M43.8335 2.0176L13.2052 6.38265L1.82053 53.9401L32.4494 49.5769L43.8335 2.0176Z" fill="url(#paint2_linear_50_10912)"/>
<g opacity="0.8">
<path d="M52.1841 24.0391L84.8572 19.3851L44.5999 0.984246L11.9269 5.63828L52.1841 24.0391Z" fill="url(#paint3_linear_50_10912)"/>
</g>
<path d="M44.4584 1.97528L15.3081 6.12697L52.3273 23.0473L81.4776 18.8957L44.4584 1.97528Z" fill="url(#paint4_radial_50_10912)"/>
<path opacity="0.3" d="M10.5 59L12 53.5L40.5 66.5L61.5 63.5L60 69.5L40.5 72.5L10.5 59Z" fill="#D9D9D9"/>
<path opacity="0.5" d="M10.5 18L23 24.5L16 54.5L3.5 48L10.5 18Z" fill="url(#paint5_linear_50_10912)"/>
<path d="M6 56L16.5 8.5L26.5 13L16.5 61L6 56Z" fill="url(#paint6_linear_50_10912)"/>
<g opacity="0.8">
<path opacity="0.6" d="M11.9266 5.63824L0.0622249 55.206L40.3195 73.6068L52.1838 24.0391L11.9266 5.63824Z" fill="#2F2FEA"/>
<g style="mix-blend-mode:screen" opacity="0.4">
<path d="M51.0673 24.583L12.5897 6.99561L1.17897 54.6619L39.6559 72.2475L51.0673 24.583Z" fill="#050517"/>
<g style="mix-blend-mode:screen" opacity="0.85">
<path d="M51.0673 24.583L12.5897 6.99561L1.17897 54.6619L39.6559 72.2475L51.0673 24.583Z" fill="#2F2FEA"/>
</g>
</g>
<path d="M51.0673 24.583L12.5897 6.99561L1.17897 54.6619L39.6559 72.2475L51.0673 24.583Z" fill="url(#paint7_linear_50_10912)"/>
</g>
<path opacity="0.3" d="M6 56L16.5 8.5L26.5 13L16.5 61L6 56Z" fill="url(#paint8_linear_50_10912)"/>
<path d="M12 53.5L21.4996 14.5L42.4998 11L71.9996 23.5L61.5 63.5L41.0002 66.5L12 53.5Z" fill="url(#paint9_linear_50_10912)"/>
<path opacity="0.5" d="M18.4756 19.4655L9.54443 56.7786L39.8489 70.6303L39.8534 70.6118L39.8788 70.6235L39.8802 70.6229L64.44 67.1249L64.4425 67.126L64.4428 67.1245L64.4742 67.12L64.4469 67.1076L73.3755 29.8136L43.3886 16.1072L43.4442 15.8745L18.8502 19.3774L18.8416 19.4133L18.4756 19.4655Z" fill="url(#paint10_radial_50_10912)"/>
<path opacity="0.7" d="M22.9074 24.0608L15.6982 54.1795L40.1597 65.3604L40.1632 65.3455L40.1838 65.3549L40.1849 65.3545L60.0093 62.5309L60.0112 62.5318L60.0115 62.5306L60.0368 62.527L60.0148 62.5169L67.2219 32.4137L43.0168 21.35L43.0617 21.1622L23.2098 23.9897L23.2028 24.0187L22.9074 24.0608Z" fill="url(#paint11_radial_50_10912)"/>
<g opacity="0.5">
<path d="M4.03525 38.6148C11.324 42.6059 20.0458 44.0292 28.764 41.9911C39.1585 39.5606 47.3707 32.7202 51.8924 23.9061L11.9285 5.63765L4.03525 38.6148Z" fill="url(#paint12_linear_50_10912)" style="mix-blend-mode:soft-light"/>
</g>
<path d="M11.7732 6.28195L11.9268 5.63829L51.6983 23.818C51.3907 23.9052 51.0854 24.0039 50.7824 24.114L11.7732 6.28195Z" fill="url(#paint13_linear_50_10912)"/>
<g opacity="0.8">
<g opacity="0.7">
<path d="M40.3199 73.6068L72.993 68.9528L84.8574 19.3851L52.1843 24.0391L40.3181 73.6075L40.3199 73.6068Z" fill="#2F2FEA"/>
</g>
<path d="M83.5949 20.5347L52.966 24.8979L41.5813 72.4554L72.2102 68.0921L83.5949 20.5347Z" fill="url(#paint14_linear_50_10912)"/>
<g style="mix-blend-mode:screen">
<path d="M40.3199 73.6068L72.993 68.9528L84.8574 19.3851L52.1843 24.0391L40.3181 73.6075L40.3199 73.6068Z" fill="#050517"/>
<g style="mix-blend-mode:screen" opacity="0.85">
<path d="M40.3199 73.6068L72.993 68.9528L84.8574 19.3851L52.1843 24.0391L40.3181 73.6075L40.3199 73.6068Z" fill="#2F2FEA"/>
</g>
</g>
<g style="mix-blend-mode:multiply">
<path d="M40.3199 73.6068L72.993 68.9528L84.8574 19.3851L52.1843 24.0391L40.3181 73.6075L40.3199 73.6068Z" fill="url(#paint15_radial_50_10912)"/>
</g>
</g>
<path opacity="0.3" d="M60 70L61.5 63.5L42 66.5L40.5 72.5L60 70Z" fill="white"/>
<path opacity="0.5" d="M57 52L77 49L72.5 68.5L52.5 71L57 52Z" fill="url(#paint16_linear_50_10912)"/>
<path opacity="0.5" d="M41 73L52 24.5L84 20L72.5 68.5L41 73Z" fill="url(#paint17_radial_50_10912)"/>
<path opacity="0.8" d="M41 73L52 24.5L84 20L72.5 68.5L41 73Z" fill="url(#paint18_radial_50_10912)"/>
<path opacity="0.5" fill-rule="evenodd" clip-rule="evenodd" d="M50.1988 25.2296L43.0772 21.9062L43.5001 21L50.8695 24.4391L51.1861 25.4073L48.7722 34.5803L47.8051 34.3258L50.1988 25.2296Z" fill="url(#paint19_radial_50_10912)"/>
<path opacity="0.2" d="M48.8221 38.0839C48.9236 39.2636 49.1106 40.4518 49.3892 41.6377C52.1858 53.5669 63.1441 61.4524 74.9529 60.7516L72.9904 68.9517L40.3173 73.6057L48.8221 38.0839Z" fill="#2F2FEA"/>
<path d="M50.7845 24.1133C51.0875 24.0032 51.3928 23.9045 51.7004 23.8172L52.1843 24.0391L40.3174 73.6057L39.4397 73.2036L51.1511 24.2814L50.7845 24.1133Z" fill="url(#paint20_linear_50_10912)"/>
<path opacity="0.2" d="M18.9338 14.1455C19.1718 14.0589 19.4116 13.9814 19.6533 13.9129L20.0334 14.0871L10.7118 53.0222L10.0223 52.7064L19.2218 14.2775L18.9338 14.1455Z" fill="url(#paint21_linear_50_10912)"/>
<path opacity="0.2" d="M71.1648 24.4809C71.4049 24.4005 71.6466 24.3291 71.89 24.2668L72.2654 24.4507L61.9493 63.1342L61.2681 62.8008L71.4493 24.6202L71.1648 24.4809Z" fill="url(#paint22_linear_50_10912)"/>
<path opacity="0.2" d="M20.0714 19.0742C20.287 18.9958 20.5042 18.9256 20.7231 18.8635L21.0673 19.0213L12.6245 54.286L12 54L20.3323 19.1937L20.0714 19.0742Z" fill="url(#paint23_linear_50_10912)"/>
<path d="M84.4999 20L84.5344 19.3391L52.0567 23.8565C52.3271 24.0271 52.5921 24.208 52.8516 24.3993L84.4999 20Z" fill="url(#paint24_linear_50_10912)"/>
<g opacity="0.5">
<path fill-rule="evenodd" clip-rule="evenodd" d="M40.7954 65.9563L11.7954 52.9563L12.2045 52.0438L41.2045 65.0438L40.7954 65.9563Z" fill="url(#paint25_linear_50_10912)"/>
<path opacity="0.5" fill-rule="evenodd" clip-rule="evenodd" d="M49.0909 36.4125L23 24.9125L23.4091 24L49.5 35.5L49.0909 36.4125Z" fill="url(#paint26_linear_50_10912)"/>
<path fill-rule="evenodd" clip-rule="evenodd" d="M41.6561 65.9877L61.6561 63.1689L61.4997 62.1812L41.4997 65L41.6561 65.9877Z" fill="url(#paint27_linear_50_10912)"/>
<path opacity="0.5" fill-rule="evenodd" clip-rule="evenodd" d="M49.3949 36.6582L69.3949 33.8394L69.2385 32.8517L49.2385 35.6705L49.3949 36.6582Z" fill="url(#paint28_linear_50_10912)"/>
<path opacity="0.5" fill-rule="evenodd" clip-rule="evenodd" d="M24.3949 24.6582L44.3949 21.8394L44.2385 20.8517L24.2385 23.6705L24.3949 24.6582Z" fill="url(#paint29_linear_50_10912)"/>
</g>
<path fill-rule="evenodd" clip-rule="evenodd" d="M51.4102 24.7765L44.2886 21.4531L44.7115 20.5469L52.0809 23.986L59.938 23.0038L60.062 23.9961L52.3975 24.9542L49.9836 34.1272L49.0165 33.8727L51.4102 24.7765Z" fill="url(#paint30_radial_50_10912)"/>
<path fill-rule="evenodd" clip-rule="evenodd" d="M39.291 72.4541L1.29102 54.9541L1.70932 54.0458L39.7093 71.5458L39.291 72.4541Z" fill="url(#paint31_linear_50_10912)"/>
<path fill-rule="evenodd" clip-rule="evenodd" d="M41.4999 72.5L73.0064 68.3128L72.9063 67.5597L41.3998 71.7469L41.4999 72.5Z" fill="url(#paint32_linear_50_10912)"/>
<defs>
<linearGradient id="paint0_linear_50_10912" x1="66.5128" y1="55.0645" x2="6.62646" y2="69.0981" gradientUnits="userSpaceOnUse">
<stop stop-color="white"/>
<stop offset="1" stop-color="#24B5EE" stop-opacity="0"/>
</linearGradient>
<linearGradient id="paint1_linear_50_10912" x1="85.7855" y1="28.6574" x2="31.8132" y2="41.3051" gradientUnits="userSpaceOnUse">
<stop stop-color="white"/>
<stop offset="1" stop-color="#24B5EE" stop-opacity="0"/>
</linearGradient>
<linearGradient id="paint2_linear_50_10912" x1="6.24748" y1="24.4893" x2="35.4365" y2="30.5846" gradientUnits="userSpaceOnUse">
<stop stop-color="white"/>
<stop offset="0.58" stop-color="#24B5EE" stop-opacity="0"/>
<stop offset="1" stop-color="#DEF4FC" stop-opacity="0.91"/>
</linearGradient>
<linearGradient id="paint3_linear_50_10912" x1="66.998" y1="24.5657" x2="30.2492" y2="0.842333" gradientUnits="userSpaceOnUse">
<stop stop-color="#C173FF"/>
<stop offset="0.99" stop-color="#2F2FEA"/>
</linearGradient>
<radialGradient id="paint4_radial_50_10912" cx="0" cy="0" r="1" gradientUnits="userSpaceOnUse" gradientTransform="translate(53.3821 26.1844) rotate(166.839) scale(44.0666 44.1416)">
<stop stop-color="white"/>
<stop offset="0.25" stop-color="#CCEEFB" stop-opacity="0.77"/>
<stop offset="0.81" stop-color="#4FC3F1" stop-opacity="0.2"/>
<stop offset="1" stop-color="#24B5EE" stop-opacity="0"/>
</radialGradient>
<linearGradient id="paint5_linear_50_10912" x1="19.5" y1="40" x2="5.5" y2="35" gradientUnits="userSpaceOnUse">
<stop stop-color="white"/>
<stop offset="1" stop-color="white" stop-opacity="0"/>
</linearGradient>
<linearGradient id="paint6_linear_50_10912" x1="21.5" y1="10.5" x2="11.5" y2="58.5" gradientUnits="userSpaceOnUse">
<stop stop-color="#FF0000"/>
<stop offset="1" stop-color="#FF0000" stop-opacity="0"/>
</linearGradient>
<linearGradient id="paint7_linear_50_10912" x1="53.1126" y1="33.3092" x2="-0.859628" y2="45.9569" gradientUnits="userSpaceOnUse">
<stop stop-color="white"/>
<stop offset="1" stop-color="#24B5EE" stop-opacity="0"/>
</linearGradient>
<linearGradient id="paint8_linear_50_10912" x1="21.5" y1="10.5" x2="17.5" y2="27.5" gradientUnits="userSpaceOnUse">
<stop stop-color="#FFB800"/>
<stop offset="1" stop-color="#FFC700" stop-opacity="0"/>
</linearGradient>
<linearGradient id="paint9_linear_50_10912" x1="47" y1="15" x2="41.9998" y2="66.5" gradientUnits="userSpaceOnUse">
<stop stop-color="#0E0E46" stop-opacity="0"/>
<stop offset="1" stop-color="#0E0E46"/>
</linearGradient>
<radialGradient id="paint10_radial_50_10912" cx="0" cy="0" r="1" gradientUnits="userSpaceOnUse" gradientTransform="translate(41.4607 43.2982) rotate(90) scale(33.08 37.5714)">
<stop offset="0.421882" stop-color="#DC36FF"/>
<stop offset="1" stop-color="#DC36FF" stop-opacity="0"/>
</radialGradient>
<radialGradient id="paint11_radial_50_10912" cx="0" cy="0" r="1" gradientUnits="userSpaceOnUse" gradientTransform="translate(41.4607 43.2983) rotate(90) scale(26.7017 30.3272)">
<stop offset="0.421882" stop-color="#2F2FEA"/>
<stop offset="1" stop-color="#2F2FEA" stop-opacity="0"/>
</radialGradient>
<linearGradient id="paint12_linear_50_10912" x1="13.4999" y1="7.00006" x2="23.9821" y2="44.5051" gradientUnits="userSpaceOnUse">
<stop offset="0.21" stop-color="white" stop-opacity="0.91"/>
<stop offset="0.28" stop-color="#FAFEFE" stop-opacity="0.87"/>
<stop offset="0.4" stop-color="#EDFDFE" stop-opacity="0.77"/>
<stop offset="0.56" stop-color="#D9FBFE" stop-opacity="0.6"/>
<stop offset="0.75" stop-color="#BDF8FE" stop-opacity="0.36"/>
<stop offset="0.96" stop-color="#99F5FE" stop-opacity="0.05"/>
<stop offset="1" stop-color="#93F5FE" stop-opacity="0"/>
</linearGradient>
<linearGradient id="paint13_linear_50_10912" x1="55" y1="26" x2="9.48976" y2="4.52171" gradientUnits="userSpaceOnUse">
<stop stop-color="white" stop-opacity="0"/>
<stop offset="0.5" stop-color="white"/>
<stop offset="1" stop-color="#93F5FE" stop-opacity="0"/>
<stop offset="1" stop-color="white" stop-opacity="0"/>
</linearGradient>
<linearGradient id="paint14_linear_50_10912" x1="79.3191" y1="25.9577" x2="36.1215" y2="78.8077" gradientUnits="userSpaceOnUse">
<stop stop-color="white"/>
<stop offset="1" stop-color="#24B5EE" stop-opacity="0"/>
</linearGradient>
<radialGradient id="paint15_radial_50_10912" cx="0" cy="0" r="1" gradientUnits="userSpaceOnUse" gradientTransform="translate(65.5004 40) rotate(-47.2906) scale(26.5377 24.9731)">
<stop stop-color="#93F5FE" stop-opacity="0.1"/>
<stop offset="0.26" stop-color="#93F5FE" stop-opacity="0"/>
<stop offset="0.52" stop-color="#BA68ED" stop-opacity="0.29"/>
<stop offset="1" stop-color="#9C75F8"/>
</radialGradient>
<linearGradient id="paint16_linear_50_10912" x1="72.5" y1="68.5" x2="60" y2="54.5" gradientUnits="userSpaceOnUse">
<stop stop-color="#FA00FF"/>
<stop offset="1" stop-color="#FFC700" stop-opacity="0"/>
</linearGradient>
<radialGradient id="paint17_radial_50_10912" cx="0" cy="0" r="1" gradientUnits="userSpaceOnUse" gradientTransform="translate(72.5 68) rotate(-117.553) scale(38.9134 31.5712)">
<stop stop-color="#FF0000"/>
<stop offset="1" stop-color="#FF0000" stop-opacity="0"/>
</radialGradient>
<radialGradient id="paint18_radial_50_10912" cx="0" cy="0" r="1" gradientUnits="userSpaceOnUse" gradientTransform="translate(72.5 68) rotate(-122.005) scale(18.868 15.308)">
<stop stop-color="#FFD600"/>
<stop offset="1" stop-color="#FFC700" stop-opacity="0"/>
</radialGradient>
<radialGradient id="paint19_radial_50_10912" cx="0" cy="0" r="1" gradientUnits="userSpaceOnUse" gradientTransform="translate(50.5001 26) rotate(90) scale(4.5 5.22672)">
<stop stop-color="#000AFF"/>
<stop offset="1" stop-color="#000AFF" stop-opacity="0"/>
</radialGradient>
<linearGradient id="paint20_linear_50_10912" x1="57.3441" y1="46.059" x2="34.3396" y2="51.4497" gradientUnits="userSpaceOnUse">
<stop stop-color="#93F5FE" stop-opacity="0"/>
<stop offset="0.03" stop-color="#9BF5FE" stop-opacity="0.07"/>
<stop offset="0.13" stop-color="#B9F8FE" stop-opacity="0.32"/>
<stop offset="0.23" stop-color="#D2FAFE" stop-opacity="0.53"/>
<stop offset="0.32" stop-color="#E5FCFE" stop-opacity="0.7"/>
<stop offset="0.4" stop-color="#F3FDFE" stop-opacity="0.82"/>
<stop offset="0.47" stop-color="#FBFEFE" stop-opacity="0.89"/>
<stop offset="0.52" stop-color="white" stop-opacity="0.91"/>
<stop offset="0.57" stop-color="#FAFEFE" stop-opacity="0.87"/>
<stop offset="0.64" stop-color="#EDFDFE" stop-opacity="0.77"/>
<stop offset="0.74" stop-color="#D9FBFE" stop-opacity="0.6"/>
<stop offset="0.85" stop-color="#BDF8FE" stop-opacity="0.36"/>
<stop offset="0.98" stop-color="#99F5FE" stop-opacity="0.05"/>
<stop offset="1" stop-color="#93F5FE" stop-opacity="0"/>
</linearGradient>
<linearGradient id="paint21_linear_50_10912" x1="24.0865" y1="31.384" x2="6.01622" y2="35.6185" gradientUnits="userSpaceOnUse">
<stop stop-color="#93F5FE" stop-opacity="0"/>
<stop offset="0.03" stop-color="#9BF5FE" stop-opacity="0.07"/>
<stop offset="0.13" stop-color="#B9F8FE" stop-opacity="0.32"/>
<stop offset="0.23" stop-color="#D2FAFE" stop-opacity="0.53"/>
<stop offset="0.32" stop-color="#E5FCFE" stop-opacity="0.7"/>
<stop offset="0.4" stop-color="#F3FDFE" stop-opacity="0.82"/>
<stop offset="0.47" stop-color="#FBFEFE" stop-opacity="0.89"/>
<stop offset="0.52" stop-color="white" stop-opacity="0.91"/>
<stop offset="0.57" stop-color="#FAFEFE" stop-opacity="0.87"/>
<stop offset="0.64" stop-color="#EDFDFE" stop-opacity="0.77"/>
<stop offset="0.74" stop-color="#D9FBFE" stop-opacity="0.6"/>
<stop offset="0.85" stop-color="#BDF8FE" stop-opacity="0.36"/>
<stop offset="0.98" stop-color="#99F5FE" stop-opacity="0.05"/>
<stop offset="1" stop-color="#93F5FE" stop-opacity="0"/>
</linearGradient>
<linearGradient id="paint22_linear_50_10912" x1="75.874" y1="41.8458" x2="57.7012" y2="45.6159" gradientUnits="userSpaceOnUse">
<stop stop-color="#93F5FE" stop-opacity="0"/>
<stop offset="0.03" stop-color="#9BF5FE" stop-opacity="0.07"/>
<stop offset="0.13" stop-color="#B9F8FE" stop-opacity="0.32"/>
<stop offset="0.23" stop-color="#D2FAFE" stop-opacity="0.53"/>
<stop offset="0.32" stop-color="#E5FCFE" stop-opacity="0.7"/>
<stop offset="0.4" stop-color="#F3FDFE" stop-opacity="0.82"/>
<stop offset="0.47" stop-color="#FBFEFE" stop-opacity="0.89"/>
<stop offset="0.52" stop-color="white" stop-opacity="0.91"/>
<stop offset="0.57" stop-color="#FAFEFE" stop-opacity="0.87"/>
<stop offset="0.64" stop-color="#EDFDFE" stop-opacity="0.77"/>
<stop offset="0.74" stop-color="#D9FBFE" stop-opacity="0.6"/>
<stop offset="0.85" stop-color="#BDF8FE" stop-opacity="0.36"/>
<stop offset="0.98" stop-color="#99F5FE" stop-opacity="0.05"/>
<stop offset="1" stop-color="#93F5FE" stop-opacity="0"/>
</linearGradient>
<linearGradient id="paint23_linear_50_10912" x1="25.5152" y1="34.6717" x2="9.14846" y2="38.507" gradientUnits="userSpaceOnUse">
<stop stop-color="#93F5FE" stop-opacity="0"/>
<stop offset="0.03" stop-color="#9BF5FE" stop-opacity="0.07"/>
<stop offset="0.13" stop-color="#B9F8FE" stop-opacity="0.32"/>
<stop offset="0.23" stop-color="#D2FAFE" stop-opacity="0.53"/>
<stop offset="0.32" stop-color="#E5FCFE" stop-opacity="0.7"/>
<stop offset="0.4" stop-color="#F3FDFE" stop-opacity="0.82"/>
<stop offset="0.47" stop-color="#FBFEFE" stop-opacity="0.89"/>
<stop offset="0.52" stop-color="white" stop-opacity="0.91"/>
<stop offset="0.57" stop-color="#FAFEFE" stop-opacity="0.87"/>
<stop offset="0.64" stop-color="#EDFDFE" stop-opacity="0.77"/>
<stop offset="0.74" stop-color="#D9FBFE" stop-opacity="0.6"/>
<stop offset="0.85" stop-color="#BDF8FE" stop-opacity="0.36"/>
<stop offset="0.98" stop-color="#99F5FE" stop-opacity="0.05"/>
<stop offset="1" stop-color="#93F5FE" stop-opacity="0"/>
</linearGradient>
<linearGradient id="paint24_linear_50_10912" x1="48.273" y1="25.017" x2="87.5028" y2="19.0187" gradientUnits="userSpaceOnUse">
<stop stop-color="white" stop-opacity="0"/>
<stop offset="0.5" stop-color="white"/>
<stop offset="1" stop-color="#93F5FE" stop-opacity="0"/>
<stop offset="1" stop-color="white" stop-opacity="0"/>
</linearGradient>
<linearGradient id="paint25_linear_50_10912" x1="12.2499" y1="52.0001" x2="40.9999" y2="65.5001" gradientUnits="userSpaceOnUse">
<stop stop-color="white" stop-opacity="0"/>
<stop offset="0.5" stop-color="white" stop-opacity="0.526034"/>
<stop offset="1" stop-color="white" stop-opacity="0"/>
</linearGradient>
<linearGradient id="paint26_linear_50_10912" x1="23.4545" y1="23.9563" x2="52.2045" y2="37.4562" gradientUnits="userSpaceOnUse">
<stop stop-color="white" stop-opacity="0"/>
<stop offset="0.5" stop-color="white" stop-opacity="0.526034"/>
<stop offset="1" stop-color="white" stop-opacity="0"/>
</linearGradient>
<linearGradient id="paint27_linear_50_10912" x1="61.4997" y1="62.5" x2="43.4997" y2="65.5" gradientUnits="userSpaceOnUse">
<stop stop-color="white" stop-opacity="0"/>
<stop offset="0.5" stop-color="white" stop-opacity="0.526034"/>
<stop offset="1" stop-color="white" stop-opacity="0"/>
</linearGradient>
<linearGradient id="paint28_linear_50_10912" x1="69.2385" y1="33.1705" x2="51.2385" y2="36.1705" gradientUnits="userSpaceOnUse">
<stop stop-color="white" stop-opacity="0"/>
<stop offset="0.5" stop-color="white" stop-opacity="0.526034"/>
<stop offset="1" stop-color="white" stop-opacity="0"/>
</linearGradient>
<linearGradient id="paint29_linear_50_10912" x1="44.2385" y1="21.1705" x2="26.2385" y2="24.1705" gradientUnits="userSpaceOnUse">
<stop stop-color="white" stop-opacity="0"/>
<stop offset="0.5" stop-color="white" stop-opacity="0.526034"/>
<stop offset="1" stop-color="white" stop-opacity="0"/>
</linearGradient>
<radialGradient id="paint30_radial_50_10912" cx="0" cy="0" r="1" gradientUnits="userSpaceOnUse" gradientTransform="translate(52.5 25) rotate(90) scale(4.5 5.22672)">
<stop stop-color="white"/>
<stop offset="1" stop-color="white" stop-opacity="0"/>
</radialGradient>
<linearGradient id="paint31_linear_50_10912" x1="1.50018" y1="54.4999" x2="40.0002" y2="71.9999" gradientUnits="userSpaceOnUse">
<stop stop-color="white" stop-opacity="0"/>
<stop offset="0.5" stop-color="white"/>
<stop offset="1" stop-color="white" stop-opacity="0"/>
</linearGradient>
<linearGradient id="paint32_linear_50_10912" x1="73.7743" y1="68.1919" x2="41.9049" y2="72.2671" gradientUnits="userSpaceOnUse">
<stop stop-color="white" stop-opacity="0"/>
<stop offset="0.5" stop-color="white"/>
<stop offset="1" stop-color="white" stop-opacity="0"/>
</linearGradient>
</defs>
</svg>
