<svg width="106" height="101" viewBox="0 0 106 101" fill="none" xmlns="http://www.w3.org/2000/svg">
<g filter="url(#filter0_d_1433_21192)">
<path d="M11.248 49.4964C11.3927 49.2965 11.5501 49.103 11.6574 48.8808L24.1779 22.9439L52.5632 10.8101C52.9769 10.4233 53.6686 10.4215 54.0848 10.8062L83.2306 23.0759L94.9734 48.3956C95.0832 48.6324 95.2495 48.8377 95.4014 49.0501C95.8301 49.6495 95.8405 50.4179 95.4316 51.0257C95.271 51.2644 95.0918 51.4948 94.9827 51.7611L85.5498 74.7775L54.0802 89.7639C53.6665 90.1508 52.9748 90.1526 52.5585 89.7679L22.9306 74.7775L11.6671 52.1482C11.559 51.931 11.4028 51.7422 11.2587 51.5471C10.801 50.9273 10.7971 50.1196 11.248 49.4964Z" fill="url(#paint0_linear_1433_21192)" shape-rendering="crispEdges"/>
</g>
<path d="M68.6313 48.7957L53.6093 11.2894C53.4886 10.988 53.081 10.8871 52.8051 11.0656C52.7531 11.0993 52.7017 11.1352 52.6441 11.1583L22.9303 23.0759L12.85 48.4636C12.2108 49.0621 12.6866 50.0519 13.6134 50.0519H67.6385C68.3675 50.0519 68.8765 49.4079 68.6313 48.7957Z" fill="url(#paint1_linear_1433_21192)"/>
<path d="M68.5953 51.7944L53.3839 87.6734C53.1102 88.319 52.1757 88.4902 51.6387 87.9932L25.2497 74.7776L12.8743 52.1142C12.2292 51.5172 12.7037 50.522 13.6334 50.522H67.6092C68.3464 50.522 68.856 51.1795 68.5953 51.7944Z" fill="url(#paint2_linear_1433_21192)"/>
<path d="M69.41 49.4315L54.1899 11.883C54.117 11.7032 54.352 11.5603 54.5112 11.6659C54.5321 11.6798 54.5529 11.6942 54.5762 11.7035L83.2306 23.0759L94.8268 47.8927C95.4657 48.4913 95.7535 49.9608 94.8268 49.9608L70.4014 50.052C69.9574 50.052 69.5609 49.8039 69.41 49.4315Z" fill="url(#paint3_linear_1433_21192)"/>
<path fill-rule="evenodd" clip-rule="evenodd" d="M52.1457 13.825L27.5693 25.1441C27.4005 25.5439 36.0014 48.4165 36.1498 48.8227L52.2343 86.088C52.2823 86.2194 52.3439 86.3416 52.417 86.4544C52.6035 86.7424 53.2165 86.1888 53.3485 85.8777L67.4167 52.7238C67.507 52.5112 67.5532 52.2858 67.5532 52.0585V49.4173C67.5532 49.2152 67.5166 49.0144 67.445 48.8227L54.3907 13.901C54.2136 13.4273 54.8089 13.0219 55.2749 13.2988C55.3758 13.3588 55.4534 13.4452 55.4972 13.5461L70.1709 47.3857C70.4967 48.1369 71.3228 48.6196 72.2252 48.5861L88.3846 47.9857C90.201 47.9182 91.0765 45.9697 89.8149 44.8025L83.2305 23.076L55.6368 13.1829C54.5619 12.1885 52.6916 12.5324 52.1457 13.825ZM93.7716 51.6413C93.8294 51.5879 93.7779 51.4947 93.6947 51.4963L72.1348 51.9053C71.2769 51.9216 70.5157 52.3998 70.2098 53.1147L55.83 86.7185C55.8263 86.7271 55.839 86.7345 55.8461 86.7278L93.7716 51.6413Z" fill="url(#paint4_linear_1433_21192)"/>
<path d="M69.4045 51.1308L53.525 88.7428C53.3715 89.1064 53.8538 89.3996 54.1743 89.1757C54.2097 89.151 54.2449 89.1255 54.2841 89.1076L85.5498 74.7776L93.7917 52.1105C94.4312 51.5121 93.9556 50.522 93.0286 50.522H70.3911C69.9522 50.522 69.5592 50.7645 69.4045 51.1308Z" fill="url(#paint5_linear_1433_21192)"/>
<path opacity="0.5" d="M25.2497 29.2804L22.9304 31.3484C22.9304 31.3484 20.7234 33.3087 20.6112 33.4165L12.4525 48.8051C11.7154 49.513 11.6998 50.6039 12.4166 51.3283L19.0604 58.0424L26.3725 63.6933C26.7558 63.9895 27.2585 64.1148 27.6493 63.8264C28.2129 63.4104 29.0577 62.5349 30.1294 60.8625C31.4454 58.809 32.2052 55.6683 32.5591 53.494C32.7057 52.5931 32.047 51.7615 31.0606 51.527L24.8584 50.0522H31.7107C32.8751 50.0522 33.7973 49.2102 33.6672 48.1784C33.519 47.0035 33.244 45.3945 32.7649 43.472C32.1307 40.927 31.1993 37.2689 29.8881 35.4844C29.2827 34.6604 26.1689 28.734 25.2497 29.2804Z" fill="url(#paint6_linear_1433_21192)"/>
<path d="M67.5537 32.1915C68.5297 32.4816 69.5684 33.5364 70.2342 34.363C70.5604 34.768 70.6309 35.283 70.579 35.7794C70.4087 37.4101 70.6983 40.4658 72.8247 43.9419C75.3547 48.0781 83.5423 49.4254 89.1647 49.5821H71.6554C71.0287 49.5821 70.6548 48.9592 71.0025 48.4942C71.1524 48.2938 71.1766 48.04 71.0664 47.82C69.4232 44.54 66.2584 37.9117 65.4453 35.0116C64.3911 31.2515 65.9724 31.7215 67.5537 32.1915Z" fill="url(#paint7_linear_1433_21192)"/>
<path d="M58.3308 15.1905L66.7405 23.0643C67.6366 23.9034 65.677 25.9175 64.3907 26.0814C63.663 26.1741 60.4966 25.9472 60.2494 25.33L56.5746 16.1549C56.1916 15.1987 57.5455 14.4552 58.3308 15.1905Z" fill="url(#paint8_linear_1433_21192)"/>
<path d="M71.2429 55.6923V52.4353C71.2429 52.121 71.4198 51.8278 71.7441 51.7047C72.6848 51.3477 74.711 50.8239 78.0951 50.5222C79.4651 50.4 81.0205 50.3407 82.5807 50.3216C83.8164 50.3065 84.0455 52.1205 82.9422 52.6172C82.1105 52.9917 81.4918 53.3947 81.2577 53.8122C80.6652 54.869 79.1706 58.3078 77.9075 61.2922C77.5254 62.1951 78.7341 62.9521 79.5613 62.3298L93.381 51.9322L64.3906 79.193C66.3233 77.1563 69.1345 73.1768 64.9177 73.5528C61.9878 73.8141 59.7366 76.662 58.3406 79.322L57.0112 82.4831C57.2793 81.6225 57.7275 80.4904 58.3406 79.322L62.9488 68.3644C63.1599 67.8624 63.8063 67.6248 64.4056 67.669C65.822 67.7737 67.8336 67.2326 69.1345 64.6226C71.2429 60.3924 71.2429 57.5724 71.2429 55.6923Z" fill="url(#paint9_linear_1433_21192)"/>
<path d="M63.8633 71.6727C63.0199 74.6808 57.8895 83.5797 55.4297 87.6532L71.6343 78.9138C70.7558 79.3839 63.9687 78.1589 64.3903 75.9028C64.9174 73.0827 72.2968 67.9128 70.1884 66.9727C68.08 66.0327 64.9174 67.9126 63.8633 71.6727Z" fill="url(#paint10_linear_1433_21192)"/>
<path d="M61.5422 72.7916L59.3767 78.0166C58.4957 80.1425 60.4321 80.9645 61.5143 78.9138C65.7311 70.9235 75.5046 74.8745 76.0317 71.1144C76.5588 67.3543 71.5292 58.2332 72.5834 55.8831C73.4267 54.003 83.1253 53.2197 87.8692 53.063H77.8544C75.6759 53.063 74.0602 53.2302 72.9345 53.4351C71.7151 53.6571 71.1653 54.7161 71.0547 55.8214C70.9592 56.7748 70.6589 57.8578 69.9479 58.7032C68.3666 60.5832 67.8395 63.8733 66.2582 67.1634C65.4335 68.8793 62.2679 71.0405 61.5422 72.7916Z" fill="url(#paint11_linear_1433_21192)"/>
<path d="M29.1184 56.165L26.3061 62.2553C26.2552 62.3656 26.1011 62.4034 25.9941 62.3318C25.7938 62.1979 25.5507 62.4403 25.7223 62.6029L30.6827 70.9813L41.3344 77.3943C42.2153 78.2289 46.762 78.3886 46.1227 77.3943C44.6402 75.089 44.2663 70.4972 43.2705 68.5734C41.1078 64.395 39.2372 57.5669 36.8457 54.097C36.3976 53.4468 29.4443 55.4594 29.1184 56.165Z" fill="url(#paint12_linear_1433_21192)"/>
<path d="M32.3567 61.7856C31.0916 62.5377 31.4782 63.6657 31.8296 64.1357L52.9136 86.2265C46.7641 79.0196 34.5706 64.3237 34.9922 63.1957C35.5193 61.7856 33.938 60.8456 32.3567 61.7856Z" fill="url(#paint13_linear_1433_21192)"/>
<path d="M33.8188 59.9223C36.2786 61.6457 42.7795 65.5625 49.1047 67.4426C57.0112 69.7926 59.1196 71.6727 60.1737 69.3226L65.4447 57.5723L55.5098 81.4916C55.3466 82.0537 55.1415 82.5509 54.9028 82.9531L55.5098 81.4916C56.427 78.3311 56.0165 73.1181 52.7944 71.2027C48.0505 68.3826 35.4001 66.5025 33.8188 59.9223Z" fill="url(#paint14_linear_1433_21192)"/>
<path d="M33.8186 37.8316C32.0081 37.0243 30.6226 36.2713 29.6461 35.6741C28.6996 35.0953 28.6564 33.9509 29.4512 33.2126L50.9281 13.2636C52.0209 12.2486 53.9309 12.6244 54.4432 13.9552L65.4445 42.5317L55.9567 27.9613C60.7006 36.8916 53.2224 37.861 50.1586 38.7716C48.5773 39.2416 38.0354 39.7116 33.8186 37.8316Z" fill="url(#paint15_linear_1433_21192)"/>
<path d="M44.3617 34.0716C40.2154 34.3797 38.0274 31.9738 36.6957 30.0605C36.2195 29.3764 36.3263 28.4926 36.9184 27.8847L50.9229 13.5047C51.9882 12.4108 53.9823 12.7572 54.5092 14.1277L59.6476 27.4914C59.2962 26.708 57.4337 25.4233 52.7953 26.5514C46.9972 27.9614 50.6869 33.6016 44.3617 34.0716Z" fill="url(#paint16_linear_1433_21192)"/>
<path d="M44.8884 28.4314C41.0933 31.0635 39.0902 27.9614 42.2529 24.2013L52.1645 12.8377C52.6707 12.2575 53.6943 12.3965 53.9838 13.0848L61.1612 30.1519C61.2056 30.2574 61.2372 30.3713 61.204 30.4801C61.08 30.8867 60.4496 31.166 58.5928 29.8415C55.9574 27.9614 58.0657 25.1413 55.4303 23.7312C52.7948 22.3212 49.6323 25.1413 44.8884 28.4314Z" fill="url(#paint17_linear_1433_21192)"/>
<path opacity="0.5" d="M70.7163 46.292L65.6982 33.763C65.5468 33.3852 65.6761 32.9528 66.0497 32.7293C67.9502 31.592 67.5249 33.4951 72.8247 37.3617C76.6094 40.123 85.3304 44.7409 91.3713 47.7941C92.3203 48.2737 91.9389 49.5821 90.848 49.5821H70.9651C70.3779 49.5821 70.1911 48.8763 70.7163 48.6421C71.5596 48.2661 71.0677 46.9187 70.7163 46.292Z" fill="#EF5DA8"/>
<path d="M78.0952 40.652C75.3508 39.2536 71.7864 34.4967 70.0282 31.8205C69.8043 31.4798 69.8515 31.0462 70.1581 30.7611C72.8338 28.2733 72.999 30.9375 75.9868 33.6018C78.5168 35.8578 87.5829 43.7854 92.8539 48.1722C88.4614 45.8221 81.0469 42.156 78.0952 40.652Z" fill="url(#paint18_linear_1433_21192)"/>
<g opacity="0.2">
<path d="M38.2433 46.7457L50.6859 17.6211L29.8882 25.1441L35.2382 46.548C35.0038 46.9869 34.9692 47.4896 35.1416 47.9508L35.4466 48.7666C35.7335 49.5343 36.5392 50.0521 37.4468 50.0521H58.5923L39.6425 48.7181C38.9879 48.672 38.4277 48.2812 38.2201 47.7257C38.1007 47.4065 38.1089 47.0602 38.2433 46.7457Z" fill="url(#paint19_linear_1433_21192)"/>
<path d="M40.671 53.3422L52.095 86.218C52.2031 86.5289 52.4725 86.7743 52.8188 86.8772C53.3945 87.0483 54.019 86.7846 54.2354 86.2791L69.1343 51.4622L53.8484 83.8932C53.4594 84.587 52.3239 84.515 52.0488 83.7791L40.671 53.3422Z" fill="url(#paint20_linear_1433_21192)"/>
</g>
<path opacity="0.5" d="M20.1146 42.5321L21.602 41.4268C22.5179 40.7462 23.8929 40.8723 24.5496 41.7596C25.6603 43.2605 26.8998 45.3181 27.494 47.7022C27.8139 48.9861 28.5739 49.4537 29.3939 49.5823H30.1295C31.2939 49.5823 31.4175 49.5432 30.2558 49.6136C29.9719 49.6308 29.6793 49.6271 29.3939 49.5823H19.5875L29.4917 51.9909C30.4722 52.2294 30.743 53.0116 29.7385 52.8737C27.5301 52.5707 23.4484 50.9602 22.223 52.8724C21.0724 54.6678 20.4287 56.4195 20.0242 57.3517C19.8145 57.8352 19.3616 57.8285 18.9631 57.451L12.5989 51.4214C11.8009 50.6653 11.8413 49.4754 12.6893 48.7638L20.1146 42.5321Z" fill="#F8F1F5"/>
<path fill-rule="evenodd" clip-rule="evenodd" d="M67.0566 49.2691L52.2978 12.1379L53.2915 11.8239L68.0502 48.9551L67.0566 49.2691Z" fill="url(#paint21_linear_1433_21192)"/>
<path fill-rule="evenodd" clip-rule="evenodd" d="M69.6944 48.8051L53.9715 12.6982L55.5775 11.0187L70.6831 48.479L69.6944 48.8051Z" fill="white"/>
<path fill-rule="evenodd" clip-rule="evenodd" d="M70.716 50.992L92.8542 50.992L92.8542 51.932L70.716 51.932L70.716 50.992Z" fill="url(#paint22_linear_1433_21192)"/>
<path fill-rule="evenodd" clip-rule="evenodd" d="M70.716 51.6248L92.8542 51.6248L92.8542 52.5648L70.716 52.5649L70.716 51.6248Z" fill="url(#paint23_linear_1433_21192)"/>
<path fill-rule="evenodd" clip-rule="evenodd" d="M14.3221 50.5219L67.5587 50.9919L67.5483 51.9319L14.3116 51.4619L14.3221 50.5219Z" fill="url(#paint24_linear_1433_21192)"/>
<path fill-rule="evenodd" clip-rule="evenodd" d="M71.2082 51.6297L55.9224 87.3507L54.9374 87.0156L70.2233 51.2946L71.2082 51.6297Z" fill="url(#paint25_linear_1433_21192)"/>
<path fill-rule="evenodd" clip-rule="evenodd" d="M68.5729 51.1693L53.2871 86.8903L52.3022 86.5552L67.588 50.8341L68.5729 51.1693Z" fill="url(#paint26_linear_1433_21192)"/>
<path fill-rule="evenodd" clip-rule="evenodd" d="M13.6445 51.1389L25.2495 72.7096L52.1226 87.33L51.3576 87.9768L22.9302 72.7096L12.8794 51.7856L13.6445 51.1389Z" fill="url(#paint27_linear_1433_21192)"/>
<path fill-rule="evenodd" clip-rule="evenodd" d="M14.7014 50.6714L27.5689 72.7096L52.1253 86.3926L51.355 87.0343L25.2497 72.7096L13.931 51.3132L14.7014 50.6714Z" fill="url(#paint28_linear_1433_21192)"/>
<path fill-rule="evenodd" clip-rule="evenodd" d="M92.2319 50.0811L77.6187 30.1406L55.3352 15.2999L56.101 14.6539L81.9552 23.59L92.9978 49.4351L92.2319 50.0811Z" fill="url(#paint29_linear_1433_21192)"/>
<path fill-rule="evenodd" clip-rule="evenodd" d="M92.0881 52.1881L82.8476 23.0527L57.1835 14.3778L57.1835 12.6982L82.8476 23.0527L92.854 51.5421L92.0881 52.1881Z" fill="url(#paint30_linear_1433_21192)"/>
<path opacity="0.5" d="M63.9197 37.9732L53.6632 12.3651C53.4813 11.9109 52.8949 11.7008 52.4111 11.9165C52.3157 11.959 52.2295 12.0163 52.1566 12.0857L25.2496 25.144L19.1965 43.4357C18.3364 44.2537 19.6893 45.7282 20.7832 45.1751C27.2831 41.8887 35.8056 38.1556 43.3062 36.4215C50.5263 34.7524 56.7147 36.9014 61.0381 39.6561C62.0353 40.2915 64.3319 39.0023 63.9197 37.9732Z" fill="url(#paint31_linear_1433_21192)"/>
<path opacity="0.4" d="M72.2974 66.5027C71.9383 63.6209 69.1331 61.6708 67.0062 60.7683C66.4585 60.5359 66.1622 59.969 66.3875 59.4668L69.924 51.5831C70.0841 51.2262 70.4717 50.9922 70.9028 50.9922H91.9608C92.8898 50.9922 93.3646 51.9861 92.721 52.5835L85.5499 68.5735L68.6077 74.9629C70.0133 73.5529 72.7191 69.8868 72.2974 66.5027Z" fill="#EB72BB"/>
<path opacity="0.6" d="M62.8092 63.2124L53.9306 85.2968C53.4054 86.6034 51.5279 86.9693 50.4391 85.9774L27.5688 74.7776C33.5426 79.0077 47.418 78.6289 51.2131 78.2529C55.0082 77.8769 60.5251 68.0692 62.8092 63.2124Z" fill="#EBD1E5"/>
<path d="M14.4913 50.5221H28.5485L46.9969 50.0521L16.3995 49.612C15.5356 49.5996 15.0544 48.7167 15.5772 48.1033L20.243 34.5334L13.6888 48.9725C13.1057 49.5828 13.5921 50.5221 14.4913 50.5221Z" fill="white"/>
<path d="M15.381 50.992H29.0755H57.0117L16.8178 51.4344C15.885 51.4447 15.4257 52.4509 16.0854 53.0391L23.4552 71.4851L14.656 52.6144C13.9642 52.03 14.428 50.992 15.381 50.992Z" fill="white"/>
<path opacity="0.5" fill-rule="evenodd" clip-rule="evenodd" d="M51.7404 85.7732L40.1442 52.8722L41.1499 52.5903L52.7461 85.4914L51.7404 85.7732Z" fill="url(#paint32_linear_1433_21192)"/>
<path opacity="0.5" fill-rule="evenodd" clip-rule="evenodd" d="M51.7405 15.2707L38.0359 47.2317L37.0513 46.896L50.7558 14.935L51.7405 15.2707Z" fill="white"/>
<path fill-rule="evenodd" clip-rule="evenodd" d="M81.8865 24.6699C81.8068 24.6585 81.7293 24.6351 81.6567 24.6005L55.5436 12.1762C55.3038 12.0621 55.4041 11.7011 55.6688 11.7257C55.6936 11.728 55.7179 11.7342 55.7407 11.744L82.3177 23.1516C83.1735 23.5189 82.809 24.8022 81.8865 24.6699Z" fill="url(#paint33_linear_1433_21192)"/>
<path fill-rule="evenodd" clip-rule="evenodd" d="M81.6495 23.396C82.0571 22.933 82.8085 23.0388 83.0753 23.5968L86.8687 31.5327L94.1309 46.7255L88.9418 38.4556L81.5352 24.3597C81.3698 24.045 81.4152 23.6621 81.6495 23.396Z" fill="url(#paint34_linear_1433_21192)"/>
<path fill-rule="evenodd" clip-rule="evenodd" d="M94.4595 49.1932C95.0055 49.0811 95.4599 49.6321 95.2518 50.1539L90.3295 62.4941L85.1469 75.4867C85.009 75.8324 84.6778 76.058 84.3079 76.058C83.6509 76.058 83.2022 75.3775 83.4569 74.7674L93.9617 49.6049C94.0502 49.3928 94.2362 49.2391 94.4595 49.1932Z" fill="url(#paint35_linear_1433_21192)"/>
<defs>
<filter id="filter0_d_1433_21192" x="0.912598" y="0.518799" width="104.818" height="99.5364" filterUnits="userSpaceOnUse" color-interpolation-filters="sRGB">
<feFlood flood-opacity="0" result="BackgroundImageFix"/>
<feColorMatrix in="SourceAlpha" type="matrix" values="0 0 0 0 0 0 0 0 0 0 0 0 0 0 0 0 0 0 127 0" result="hardAlpha"/>
<feOffset/>
<feGaussianBlur stdDeviation="5"/>
<feComposite in2="hardAlpha" operator="out"/>
<feColorMatrix type="matrix" values="0 0 0 0 0.184314 0 0 0 0 0.184314 0 0 0 0 0.917647 0 0 0 0.7 0"/>
<feBlend mode="normal" in2="BackgroundImageFix" result="effect1_dropShadow_1433_21192"/>
<feBlend mode="normal" in="SourceGraphic" in2="effect1_dropShadow_1433_21192" result="shape"/>
</filter>
<linearGradient id="paint0_linear_1433_21192" x1="53.3217" y1="10.5188" x2="53.3217" y2="90.0553" gradientUnits="userSpaceOnUse">
<stop stop-color="white"/>
<stop offset="0.442708" stop-color="#570F4C"/>
<stop offset="0.540187" stop-color="white" stop-opacity="0"/>
<stop offset="0.720308" stop-opacity="0.391727"/>
<stop offset="0.846776" stop-color="#A7008C"/>
<stop offset="1" stop-color="#5E0750"/>
</linearGradient>
<linearGradient id="paint1_linear_1433_21192" x1="40.6254" y1="10.9773" x2="40.6254" y2="50.0519" gradientUnits="userSpaceOnUse">
<stop stop-color="white"/>
<stop offset="1" stop-color="white" stop-opacity="0"/>
</linearGradient>
<linearGradient id="paint2_linear_1433_21192" x1="40.6208" y1="50.522" x2="40.6208" y2="88.2813" gradientUnits="userSpaceOnUse">
<stop stop-color="#990E8B" stop-opacity="0.79"/>
<stop offset="1" stop-color="#00FFE0" stop-opacity="0"/>
</linearGradient>
<linearGradient id="paint3_linear_1433_21192" x1="74.7975" y1="11.6299" x2="74.7975" y2="50.052" gradientUnits="userSpaceOnUse">
<stop stop-color="#990E8B" stop-opacity="0.79"/>
<stop offset="1" stop-color="#00FFE0" stop-opacity="0"/>
</linearGradient>
<linearGradient id="paint4_linear_1433_21192" x1="60.6815" y1="12.6069" x2="60.6815" y2="86.7304" gradientUnits="userSpaceOnUse">
<stop stop-color="#B929A2"/>
<stop offset="0.217694" stop-color="white" stop-opacity="0.75"/>
<stop offset="0.596475" stop-color="#B10295" stop-opacity="0.554251"/>
<stop offset="1" stop-color="white" stop-opacity="0"/>
</linearGradient>
<linearGradient id="paint5_linear_1433_21192" x1="73.7902" y1="50.522" x2="73.7902" y2="89.2538" gradientUnits="userSpaceOnUse">
<stop stop-color="white"/>
<stop offset="0.295515" stop-color="#960190" stop-opacity="0.823281"/>
<stop offset="0.772941" stop-color="white" stop-opacity="0.75"/>
<stop offset="1" stop-color="white"/>
</linearGradient>
<linearGradient id="paint6_linear_1433_21192" x1="22.7843" y1="29.2449" x2="22.7843" y2="63.9895" gradientUnits="userSpaceOnUse">
<stop stop-color="#F5F5F5"/>
<stop offset="1" stop-color="#D74BDA" stop-opacity="0"/>
</linearGradient>
<linearGradient id="paint7_linear_1433_21192" x1="93.9086" y1="49.1121" x2="72.3646" y2="54.3315" gradientUnits="userSpaceOnUse">
<stop stop-color="#FA00FF"/>
<stop offset="1" stop-color="#FA00FF" stop-opacity="0"/>
</linearGradient>
<linearGradient id="paint8_linear_1433_21192" x1="64.9178" y1="20.9112" x2="59.8286" y2="28.2449" gradientUnits="userSpaceOnUse">
<stop stop-color="#833576"/>
<stop offset="1" stop-color="#71C4C4" stop-opacity="0"/>
</linearGradient>
<linearGradient id="paint9_linear_1433_21192" x1="55.4299" y1="87.1833" x2="76.3729" y2="47.3183" gradientUnits="userSpaceOnUse">
<stop stop-color="#F1D3F3"/>
<stop offset="1" stop-color="#FFAEF7" stop-opacity="0"/>
</linearGradient>
<linearGradient id="paint10_linear_1433_21192" x1="65.9716" y1="68.8528" x2="58.1197" y2="86.953" gradientUnits="userSpaceOnUse">
<stop stop-color="white"/>
<stop offset="1" stop-color="white" stop-opacity="0"/>
</linearGradient>
<linearGradient id="paint11_linear_1433_21192" x1="86.5414" y1="63.8644" x2="55.9989" y2="75.4281" gradientUnits="userSpaceOnUse">
<stop stop-color="#F9A2FB" stop-opacity="0.24"/>
<stop offset="0.619792" stop-color="#FA00FF" stop-opacity="0.239583"/>
<stop offset="1" stop-color="#FA00FF" stop-opacity="0"/>
</linearGradient>
<linearGradient id="paint12_linear_1433_21192" x1="51.6172" y1="69.3531" x2="28.2775" y2="77.51" gradientUnits="userSpaceOnUse">
<stop stop-color="#670069"/>
<stop offset="0.947917" stop-color="#FCFCFC" stop-opacity="0.0989583"/>
<stop offset="1" stop-color="#FA00FF" stop-opacity="0"/>
</linearGradient>
<linearGradient id="paint13_linear_1433_21192" x1="57.5084" y1="69.8414" x2="49.3153" y2="92.3776" gradientUnits="userSpaceOnUse">
<stop stop-color="white"/>
<stop offset="1" stop-color="white" stop-opacity="0"/>
</linearGradient>
<linearGradient id="paint14_linear_1433_21192" x1="76.5138" y1="77.7829" x2="34.4158" y2="70.2584" gradientUnits="userSpaceOnUse">
<stop offset="0.401042" stop-color="white"/>
<stop offset="1" stop-color="#FA00FF" stop-opacity="0"/>
</linearGradient>
<linearGradient id="paint15_linear_1433_21192" x1="51.7399" y1="12.9208" x2="50.4818" y2="37.8479" gradientUnits="userSpaceOnUse">
<stop stop-color="#FFE074"/>
<stop offset="1" stop-color="#FFB800" stop-opacity="0"/>
</linearGradient>
<linearGradient id="paint16_linear_1433_21192" x1="47.7879" y1="11.0409" x2="47.7879" y2="34.0984" gradientUnits="userSpaceOnUse">
<stop stop-color="#4DC523"/>
<stop offset="1" stop-color="#4DC523" stop-opacity="0"/>
</linearGradient>
<linearGradient id="paint17_linear_1433_21192" x1="52.2677" y1="13.861" x2="51.2245" y2="30.8336" gradientUnits="userSpaceOnUse">
<stop stop-color="#2F2FEA"/>
<stop offset="1" stop-color="#2F2FEA" stop-opacity="0"/>
</linearGradient>
<linearGradient id="paint18_linear_1433_21192" x1="92.3268" y1="47.7022" x2="73.7464" y2="29.1556" gradientUnits="userSpaceOnUse">
<stop stop-color="#C918AD"/>
<stop offset="1" stop-color="white" stop-opacity="0"/>
</linearGradient>
<linearGradient id="paint19_linear_1433_21192" x1="34.8729" y1="49.1121" x2="52.1015" y2="33.5479" gradientUnits="userSpaceOnUse">
<stop stop-color="white"/>
<stop offset="1" stop-color="white" stop-opacity="0"/>
</linearGradient>
<linearGradient id="paint20_linear_1433_21192" x1="34.8729" y1="49.1121" x2="52.1015" y2="33.5479" gradientUnits="userSpaceOnUse">
<stop stop-color="white"/>
<stop offset="1" stop-color="white" stop-opacity="0"/>
</linearGradient>
<linearGradient id="paint21_linear_1433_21192" x1="61.2294" y1="30.2407" x2="59.1694" y2="30.9915" gradientUnits="userSpaceOnUse">
<stop stop-color="white"/>
<stop offset="1" stop-color="#B59FB2"/>
</linearGradient>
<linearGradient id="paint22_linear_1433_21192" x1="92.8542" y1="50.9919" x2="71.2436" y2="50.8047" gradientUnits="userSpaceOnUse">
<stop stop-color="#D521D9" stop-opacity="0.29"/>
<stop offset="0.5" stop-color="#000AFF"/>
<stop offset="1" stop-color="#000698" stop-opacity="0"/>
</linearGradient>
<linearGradient id="paint23_linear_1433_21192" x1="92.8542" y1="51.6247" x2="71.2436" y2="51.4375" gradientUnits="userSpaceOnUse">
<stop stop-color="#000AFF" stop-opacity="0.1"/>
<stop offset="0.5" stop-color="white"/>
<stop offset="1" stop-color="#000698" stop-opacity="0"/>
</linearGradient>
<linearGradient id="paint24_linear_1433_21192" x1="65.0927" y1="44.226" x2="17.9383" y2="61.4124" gradientUnits="userSpaceOnUse">
<stop stop-color="#E2ACCC"/>
<stop offset="1" stop-color="#CBBDC6" stop-opacity="0"/>
</linearGradient>
<linearGradient id="paint25_linear_1433_21192" x1="55.4299" y1="87.1832" x2="68.3522" y2="49.9878" gradientUnits="userSpaceOnUse">
<stop stop-color="white"/>
<stop offset="0.5" stop-color="white"/>
<stop offset="1" stop-color="white"/>
</linearGradient>
<linearGradient id="paint26_linear_1433_21192" x1="52.8087" y1="86.7278" x2="65.2638" y2="50.045" gradientUnits="userSpaceOnUse">
<stop stop-color="white"/>
<stop offset="1" stop-color="#F0ABDD" stop-opacity="0"/>
</linearGradient>
<linearGradient id="paint27_linear_1433_21192" x1="45.818" y1="91.2336" x2="20.0359" y2="47.3811" gradientUnits="userSpaceOnUse">
<stop stop-color="white"/>
<stop offset="0.511524" stop-color="#84006F"/>
<stop offset="1" stop-color="white" stop-opacity="0"/>
</linearGradient>
<linearGradient id="paint28_linear_1433_21192" x1="51.7402" y1="87.6534" x2="18.9381" y2="47.2408" gradientUnits="userSpaceOnUse">
<stop stop-color="white" stop-opacity="0.1"/>
<stop offset="0.5" stop-color="white"/>
<stop offset="1" stop-color="#000698" stop-opacity="0"/>
</linearGradient>
<linearGradient id="paint29_linear_1433_21192" x1="55.9568" y1="13.7121" x2="86.8776" y2="52.175" gradientUnits="userSpaceOnUse">
<stop stop-color="white" stop-opacity="0.1"/>
<stop offset="0.5" stop-color="#DB88C4"/>
<stop offset="1" stop-opacity="0"/>
</linearGradient>
<linearGradient id="paint30_linear_1433_21192" x1="55.4297" y1="14.4204" x2="67.887" y2="52.4774" gradientUnits="userSpaceOnUse">
<stop stop-color="#B04AB3" stop-opacity="0.1"/>
<stop offset="0.5" stop-color="white"/>
<stop offset="1" stop-color="#000698" stop-opacity="0"/>
</linearGradient>
<linearGradient id="paint31_linear_1433_21192" x1="41.4463" y1="11.8313" x2="41.4463" y2="45.2962" gradientUnits="userSpaceOnUse">
<stop stop-color="white"/>
<stop offset="0.430006" stop-color="#920083"/>
<stop offset="0.688318" stop-color="#7E0072" stop-opacity="0.546816"/>
<stop offset="0.811467" stop-color="#6C0062"/>
<stop offset="1" stop-color="white" stop-opacity="0"/>
</linearGradient>
<linearGradient id="paint32_linear_1433_21192" x1="40.1442" y1="52.4022" x2="48.2342" y2="83.9172" gradientUnits="userSpaceOnUse">
<stop stop-color="white" stop-opacity="0"/>
<stop offset="0.5" stop-color="white"/>
<stop offset="1" stop-color="white" stop-opacity="0"/>
</linearGradient>
<linearGradient id="paint33_linear_1433_21192" x1="51.6699" y1="28.4173" x2="50.4721" y2="30.4032" gradientUnits="userSpaceOnUse">
<stop stop-color="white"/>
<stop offset="1" stop-color="white"/>
</linearGradient>
<linearGradient id="paint34_linear_1433_21192" x1="82.6381" y1="29.0071" x2="85.0589" y2="28.1194" gradientUnits="userSpaceOnUse">
<stop stop-color="white"/>
<stop offset="1" stop-color="white"/>
</linearGradient>
<linearGradient id="paint35_linear_1433_21192" x1="92.1406" y1="51.8118" x2="86.847" y2="73.3295" gradientUnits="userSpaceOnUse">
<stop stop-color="#FCFCFC"/>
<stop offset="0.4375" stop-color="#AC80AA"/>
<stop offset="1" stop-color="white"/>
</linearGradient>
</defs>
</svg>
