<svg width="147" height="35" viewBox="0 0 147 35" fill="none" xmlns="http://www.w3.org/2000/svg">
<path d="M10.8277 30.7773C13.1976 31.1476 15.6407 30.7657 17.8111 29.6575C20.557 28.2557 22.6417 25.8064 23.6065 22.8485C24.5714 19.8906 24.3374 16.6665 22.9561 13.8853C21.5748 11.1041 19.1592 8.99375 16.2409 8.01844L14.4946 13.3717C16.0122 13.8789 17.2682 14.9763 17.9865 16.4225C18.7048 17.8687 18.8265 19.5453 18.3248 21.0834C17.823 22.6214 16.739 23.8951 15.3111 24.6241C13.8833 25.353 12.2286 25.4776 10.711 24.9705L10.7007 25.0023L10.6894 24.9985L7.59 34.5L10.8277 30.7773Z" fill="white"/>
<path d="M13.3647 4.22259C10.9948 3.85228 8.55167 4.2342 6.38118 5.34232C3.63533 6.74418 1.55067 9.19343 0.58581 12.1513C-0.379049 15.1091 -0.145074 18.3332 1.23626 21.1144C2.6176 23.8955 5.03314 26.0059 7.9515 26.9812L9.69775 21.628C8.1802 21.1208 6.92412 20.0234 6.20582 18.5772C5.48753 17.131 5.36586 15.4545 5.86759 13.9164C6.36931 12.3783 7.45334 11.1047 8.88118 10.3758C10.309 9.6468 11.9637 9.52219 13.4813 10.0294L13.4916 9.99755L13.503 10.0013L16.6024 0.5L13.3647 4.22259Z" fill="white"/>
<path d="M44.4966 8.32906H39.052L34.0242 22.556L29.1074 8.32906H23.6629L30.8574 28.0106H37.3576L44.4966 8.32906Z" fill="white"/>
<path fill-rule="evenodd" clip-rule="evenodd" d="M62.4055 28.0106L58.0165 20.869C59.3314 20.5504 60.3869 19.8568 61.1833 18.7884C61.9981 17.72 62.4055 16.4641 62.4055 15.0208C62.4055 12.9777 61.7296 11.3563 60.3777 10.1566C59.0443 8.93825 57.3221 8.32906 55.2109 8.32906H46.6275V28.0106H51.3498V21.4313H52.9887L57.0165 28.0106H62.4055ZM51.3498 13.0526H54.9331C55.6369 13.0526 56.2202 13.2307 56.6832 13.5868C57.1647 13.9242 57.4054 14.3554 57.4054 14.8802C57.4054 15.405 57.1647 15.8549 56.6832 16.2298C56.2202 16.5859 55.6369 16.764 54.9331 16.764H51.3498V13.0526Z" fill="white"/>
<path fill-rule="evenodd" clip-rule="evenodd" d="M72.9456 22.6122H69.3622V28.0106H64.6399V8.32906H73.2234C75.279 8.32906 76.992 9.00386 78.3624 10.3535C79.7327 11.703 80.418 13.39 80.418 15.4144C80.418 17.4201 79.6957 19.1258 78.2512 20.5316C76.8068 21.9187 75.0382 22.6122 72.9456 22.6122ZM72.9456 13.0526H69.3622V17.8887H72.9456C73.7234 17.8887 74.3716 17.6544 74.8901 17.1858C75.4271 16.6984 75.6956 16.108 75.6956 15.4144C75.6956 14.7396 75.4364 14.1773 74.9179 13.7274C74.3993 13.2776 73.7419 13.0526 72.9456 13.0526Z" fill="white"/>
<path d="M109.411 8.32906H104.245L101.55 22.2748L98.2722 8.32906H92.8277L89.9109 22.2748L86.8276 8.32906H81.6608L86.1887 28.0106H93.2443L95.5499 15.1614L98.3833 28.0106H105.439L109.411 8.32906Z" fill="white"/>
<path fill-rule="evenodd" clip-rule="evenodd" d="M122.932 20.869L127.321 28.0106H121.932L117.904 21.4313H116.265V28.0106H111.543V8.32906H120.126C122.237 8.32906 123.96 8.93825 125.293 10.1566C126.645 11.3563 127.321 12.9777 127.321 15.0208C127.321 16.4641 126.913 17.72 126.099 18.7884C125.302 19.8568 124.247 20.5504 122.932 20.869ZM119.848 13.0526H116.265V16.764H119.848C120.552 16.764 121.136 16.5859 121.599 16.2298C122.08 15.8549 122.321 15.405 122.321 14.8802C122.321 14.3554 122.08 13.9242 121.599 13.5868C121.136 13.2307 120.552 13.0526 119.848 13.0526Z" fill="white"/>
<path fill-rule="evenodd" clip-rule="evenodd" d="M129.555 28.0106H137.583C140.213 28.0106 142.435 27.0828 144.25 25.2271C146.083 23.3526 147 20.9909 147 18.1417C147 15.2926 146.083 12.9495 144.25 11.1126C142.435 9.25691 140.213 8.32906 137.583 8.32906H129.555V28.0106ZM134.278 12.9683H137.305C138.694 12.9683 139.87 13.4556 140.833 14.4303C141.796 15.3863 142.278 16.6234 142.278 18.1417C142.278 19.66 141.796 20.9159 140.833 21.9093C139.87 22.884 138.694 23.3714 137.305 23.3714H134.278V12.9683Z" fill="white"/>
</svg>
