<svg width="101" height="105" viewBox="0 0 101 105" fill="none" xmlns="http://www.w3.org/2000/svg">
<g filter="url(#filter0_d_26_2785)">
<path d="M10.5525 51.2088L49.5093 10.3517C49.9018 9.94011 50.5579 9.93819 50.9528 10.3475L89.8971 50.7166C90.6414 51.4881 90.645 52.7094 89.9052 53.4853L50.9484 94.3424C50.5559 94.754 49.8998 94.7559 49.5049 94.3467L10.5606 53.9775C9.81627 53.206 9.8127 51.9847 10.5525 51.2088Z" fill="white"/>
</g>
<path d="M64.7515 50.7607L50.5018 10.8616C50.3765 10.5109 49.9256 10.4152 49.6688 10.6849L11.8379 50.4074C11.2316 51.044 11.6829 52.097 12.562 52.097H63.8097C64.5012 52.097 64.984 51.4119 64.7515 50.7607Z" fill="#00FFE0"/>
<path d="M64.7174 53.9507L50.288 92.1186C50.0284 92.8054 49.1419 92.9875 48.6325 92.4588L11.8609 54.2909C11.249 53.6557 11.6991 52.597 12.5811 52.597H63.782C64.4813 52.597 64.9647 53.2965 64.7174 53.9507Z" fill="#00FFE0"/>
<path d="M65.4901 51.437L51.0525 11.493C50.9789 11.2894 51.2362 11.1303 51.3855 11.2871L88.6207 50.4077C89.2267 51.0444 88.7754 52.0971 87.8963 52.0971H66.4306C66.0093 52.0971 65.6333 51.8332 65.4901 51.437Z" fill="#00FFE0"/>
<path fill-rule="evenodd" clip-rule="evenodd" d="M49.1131 13.5587L35.976 48.44C35.8158 48.8653 35.8053 49.3325 35.9461 49.7646L49.1972 90.4319C49.2427 90.5716 49.3011 90.7016 49.3704 90.8216C49.5474 91.128 50.1289 90.539 50.2541 90.2081L63.5991 54.9391C63.6847 54.713 63.7286 54.4731 63.7286 54.2313V51.4216C63.7286 51.2066 63.6939 50.9931 63.6259 50.7892L51.2427 13.6396C51.0748 13.1357 51.6395 12.7043 52.0814 12.999C52.1772 13.0628 52.2508 13.1547 52.2923 13.262L66.2117 49.2604C66.5207 50.0595 67.3044 50.5731 68.1604 50.5374L83.4891 49.8987C85.2121 49.8269 86.0426 47.7541 84.8458 46.5125L52.4248 12.8757C51.4051 11.8178 49.631 12.1837 49.1131 13.5587ZM88.5992 53.7875C88.654 53.7307 88.6051 53.6316 88.5262 53.6333L68.0746 54.0684C67.2608 54.0857 66.5387 54.5945 66.2486 55.3549L52.608 91.1026C52.6045 91.1117 52.6165 91.1195 52.6233 91.1125L88.5992 53.7875Z" fill="url(#paint0_linear_26_2785)"/>
<path d="M65.4846 53.2447L50.4214 93.2562C50.2679 93.6641 50.7847 93.9886 51.0854 93.6731L88.6181 54.2869C89.2247 53.6503 88.7735 52.597 87.8941 52.597H66.4205C66.0041 52.597 65.6313 52.855 65.4846 53.2447Z" fill="#00FFE0"/>
<path opacity="0.5" d="M24.682 37.1283L23.4247 37.9664C23.2946 38.0532 23.175 38.155 23.0686 38.2696L11.4607 50.7704C10.7614 51.5235 10.7467 52.684 11.4266 53.4546L17.7288 60.5971L24.665 66.6084C25.0286 66.9236 25.5055 67.0569 25.8762 66.75C26.4108 66.3075 27.2122 65.3762 28.2288 63.5971C29.4771 61.4125 30.1979 58.0715 30.5336 55.7584C30.6727 54.8001 30.0478 53.9155 29.1121 53.6659L23.2288 52.0971H29.7288C30.8334 52.0971 31.7081 51.2014 31.5847 50.1037C31.4441 48.8539 31.1833 47.1422 30.7288 45.0971C30.1272 42.3897 28.5452 39.5127 27.3015 37.6144C26.7272 36.7378 25.554 36.547 24.682 37.1283Z" fill="#0094FF"/>
<path d="M63.7291 33.097C64.6549 33.4056 65.6402 34.5277 66.2717 35.407C66.5812 35.8378 66.648 36.3857 66.5988 36.9138C66.4372 38.6485 66.712 41.8991 68.729 45.597C71.129 49.997 78.8957 51.4304 84.229 51.597H67.6199C67.0253 51.597 66.6707 50.9345 67.0005 50.4398C67.1427 50.2265 67.1656 49.9566 67.0611 49.7226C65.5024 46.2332 62.5004 39.1822 61.7291 36.097C60.7291 32.097 62.2291 32.597 63.7291 33.097Z" fill="url(#paint1_linear_26_2785)"/>
<path d="M54.9803 15.0114L62.9576 23.3875C63.8076 24.2801 61.9488 26.4228 60.7286 26.5971C60.0383 26.6957 57.0347 26.4543 56.8002 25.7977L53.3144 16.0373C52.9511 15.0201 54.2353 14.2291 54.9803 15.0114Z" fill="url(#paint2_linear_26_2785)"/>
<path d="M67.2285 58.0971V54.6323C67.2285 54.2979 67.3964 53.9861 67.704 53.8551C68.5963 53.4753 70.5183 52.9181 73.7285 52.5971C75.0281 52.4671 76.5035 52.404 77.9834 52.3838C79.1557 52.3677 79.3729 54.2974 78.3264 54.8258C77.5374 55.2242 76.9506 55.6529 76.7285 56.0971C76.1664 57.2212 74.7487 60.8794 73.5505 64.0542C73.188 65.0147 74.3346 65.82 75.1193 65.158L88.2285 54.0971L60.7285 83.0971C62.5618 80.9304 65.2285 76.6971 61.2285 77.0971C58.4493 77.375 56.3137 80.4046 54.9896 83.2342L53.7285 86.5971C53.9828 85.6815 54.4079 84.4771 54.9896 83.2342L59.3608 71.5776C59.5611 71.0435 60.1743 70.7908 60.7427 70.8379C62.0863 70.9492 63.9945 70.3736 65.2285 67.5971C67.2285 63.0971 67.2285 60.0971 67.2285 58.0971Z" fill="url(#paint3_linear_26_2785)"/>
<path d="M60.2285 75.0968C59.4285 78.2968 54.5618 87.7635 52.2285 92.0968L62.7285 81.0968C61.8952 81.5968 60.3285 81.9968 60.7285 79.5968C61.2285 76.5968 68.2285 71.097 66.2285 70.097C64.2285 69.097 61.2285 71.0968 60.2285 75.0968Z" fill="url(#paint4_linear_26_2785)"/>
<path d="M58.2554 73.5842L56.2012 79.1426C55.3654 81.4041 57.2023 82.2785 58.2289 80.097C62.2289 71.597 66.2289 70.597 66.7289 66.597C67.2289 62.597 67.7289 58.097 68.7289 55.597C69.5289 53.597 78.7289 52.7637 83.2289 52.597H73.7289C71.6624 52.597 70.1297 52.775 69.0619 52.9929C67.9052 53.2291 67.3837 54.3556 67.2788 55.5315C67.1882 56.5456 66.9034 57.6977 66.2289 58.597C64.7289 60.597 64.2289 64.097 62.7289 67.597C61.9466 69.4224 58.9438 71.7215 58.2554 73.5842Z" fill="url(#paint5_linear_26_2785)"/>
<path d="M30.4916 62.8864L27.8239 69.3652C27.7756 69.4826 27.6294 69.5228 27.5279 69.4466C27.3379 69.3042 27.1073 69.5621 27.2701 69.735L42.0796 85.4701C42.9152 86.3579 44.5226 85.1288 43.9162 84.0711C42.5099 81.6186 41.173 79.1436 40.2284 77.097C38.1769 72.6521 34.5179 66.4291 32.2494 62.7378C31.8243 62.0462 30.8007 62.1358 30.4916 62.8864Z" fill="url(#paint6_linear_26_2785)"/>
<path d="M29.7284 67.097C28.5284 67.897 28.8951 69.097 29.2284 69.597L49.2285 93.097C43.3952 85.4304 31.8285 69.797 32.2285 68.597C32.7285 67.097 31.2284 66.097 29.7284 67.097Z" fill="url(#paint7_linear_26_2785)"/>
<path d="M31.7285 62.597C34.0618 64.4304 40.2285 68.597 46.2285 70.597C53.7285 73.097 55.7285 75.097 56.7285 72.597L61.7285 60.097L52.3043 85.5424C52.1496 86.1403 51.955 86.6692 51.7285 87.097L52.3043 85.5424C53.1744 82.1802 52.7849 76.6347 49.7285 74.597C45.2285 71.597 33.2285 69.597 31.7285 62.597Z" fill="url(#paint8_linear_26_2785)"/>
<path d="M31.7284 39.097C30.011 38.2383 28.6968 37.4371 27.7704 36.8018C26.8726 36.1861 26.8316 34.9687 27.5855 34.1834L47.9583 12.9617C48.9949 11.8819 50.8068 12.2817 51.2928 13.6974L61.7284 44.097L52.7284 28.597C57.2284 38.097 50.1347 39.1282 47.2284 40.097C45.7284 40.597 35.7284 41.097 31.7284 39.097Z" fill="url(#paint9_linear_26_2785)"/>
<path d="M41.7291 35.097C37.796 35.4248 35.7204 32.8654 34.4572 30.83C34.0055 30.1022 34.1068 29.1621 34.6684 28.5154L47.953 13.218C48.9635 12.0544 50.8551 12.4229 51.3549 13.8807L56.2291 28.097C55.8958 27.2637 54.1291 25.897 49.7291 27.097C44.2291 28.597 47.7291 34.597 41.7291 35.097Z" fill="url(#paint10_linear_26_2785)"/>
<path d="M42.229 29.0971C38.629 31.8971 36.7289 28.5971 39.729 24.5971L49.1311 12.5086C49.6112 11.8913 50.5822 12.0392 50.8567 12.7714L57.6652 30.9273C57.7073 31.0396 57.7373 31.1608 57.7058 31.2765C57.5882 31.709 56.9902 32.0062 55.2289 30.5971C52.7289 28.5971 54.7289 25.5971 52.2289 24.0971C49.7289 22.5971 46.729 25.5971 42.229 29.0971Z" fill="url(#paint11_linear_26_2785)"/>
<path opacity="0.5" d="M66.729 48.097L61.9689 34.7687C61.8254 34.3668 61.948 33.9069 62.3024 33.6691C64.1051 32.4593 63.7017 34.4838 68.729 38.597C72.3192 41.5344 80.5919 46.4469 86.3222 49.6949C87.2224 50.2052 86.8606 51.597 85.8258 51.597H66.9651C66.4081 51.597 66.2308 50.8461 66.729 50.597C67.529 50.197 67.0624 48.7637 66.729 48.097Z" fill="#2F2FEA"/>
<path d="M73.7289 42.0971C71.1257 40.6095 67.7445 35.5491 66.0767 32.7022C65.8643 32.3397 65.9091 31.8784 66.1999 31.5752C68.7381 28.9287 68.8947 31.7629 71.7289 34.5971C74.1289 36.9971 82.7289 45.4304 87.7289 50.097C83.5623 47.597 76.5289 43.6971 73.7289 42.0971Z" fill="url(#paint12_linear_26_2785)"/>
<g opacity="0.2">
<path d="M35.9257 48.5797L47.7286 17.597L33.0751 48.3694C32.8528 48.8362 32.82 49.3711 32.9835 49.8617L33.2728 50.7295C33.545 51.5462 34.3093 52.097 35.1701 52.097H55.2286L37.253 50.6779C36.632 50.6289 36.1007 50.2132 35.9037 49.6223C35.7905 49.2826 35.7983 48.9143 35.9257 48.5797Z" fill="url(#paint13_linear_26_2785)"/>
<path d="M38.2286 55.597L49.0654 90.5701C49.1678 90.9009 49.4234 91.162 49.7519 91.2715C50.298 91.4535 50.8905 91.1729 51.0956 90.6352L65.2286 53.597L50.7286 88.097C50.3596 88.8351 49.2825 88.7585 49.0215 87.9757L38.2286 55.597Z" fill="url(#paint14_linear_26_2785)"/>
</g>
<path opacity="0.5" d="M18.7285 44.0971L20.1394 42.9213C21.0083 42.1973 22.3126 42.3314 22.9355 43.2753C23.9891 44.872 25.1649 47.0608 25.7285 49.5971C26.032 50.9628 26.7529 51.4602 27.5308 51.5971H28.2285C29.3331 51.5971 29.4504 51.5555 28.3484 51.6304C28.0791 51.6487 27.8015 51.6447 27.5308 51.5971H18.2285L27.6235 54.1594C28.5537 54.413 28.8105 55.2451 27.8576 55.0985C25.7628 54.7761 21.891 53.0629 20.7285 55.0971C19.6371 57.0071 19.0265 58.8705 18.6428 59.8622C18.4438 60.3765 18.0142 60.3694 17.6363 59.9678L11.5993 53.5535C10.8422 52.7491 10.8806 51.4834 11.6849 50.7264L18.7285 44.0971Z" fill="#2F2FEA"/>
<path fill-rule="evenodd" clip-rule="evenodd" d="M63.2575 51.2641L49.2575 11.764L50.2 11.43L64.2 50.93L63.2575 51.2641Z" fill="url(#paint15_linear_26_2785)"/>
<path fill-rule="evenodd" clip-rule="evenodd" d="M65.7598 50.7705L52.2599 14.2704L53.1978 13.9235L66.6977 50.4237L65.7598 50.7705Z" fill="url(#paint16_linear_26_2785)"/>
<path fill-rule="evenodd" clip-rule="evenodd" d="M66.7288 53.0971L87.7289 53.097L87.7289 54.097L66.7288 54.0971L66.7288 53.0971Z" fill="url(#paint17_linear_26_2785)"/>
<path fill-rule="evenodd" clip-rule="evenodd" d="M66.7288 53.77L87.7289 53.77L87.7289 54.77L66.7288 54.77L66.7288 53.77Z" fill="url(#paint18_linear_26_2785)"/>
<path fill-rule="evenodd" clip-rule="evenodd" d="M13.2339 52.597L63.7337 53.097L63.7237 54.097L13.224 53.597L13.2339 52.597Z" fill="url(#paint19_linear_26_2785)"/>
<path fill-rule="evenodd" clip-rule="evenodd" d="M67.1958 53.7754L52.6958 91.7753L51.7615 91.4188L66.2615 53.4189L67.1958 53.7754Z" fill="url(#paint20_linear_26_2785)"/>
<path fill-rule="evenodd" clip-rule="evenodd" d="M64.6958 53.2855L50.1958 91.2854L49.2615 90.9289L63.7615 52.929L64.6958 53.2855Z" fill="url(#paint21_linear_26_2785)"/>
<path fill-rule="evenodd" clip-rule="evenodd" d="M12.5917 53.2531L49.0917 91.7531L48.366 92.4411L11.866 53.9411L12.5917 53.2531Z" fill="url(#paint22_linear_26_2785)"/>
<path fill-rule="evenodd" clip-rule="evenodd" d="M13.5942 52.7557L49.0942 90.7558L48.3635 91.4384L12.8635 53.4384L13.5942 52.7557Z" fill="url(#paint23_linear_26_2785)"/>
<path fill-rule="evenodd" clip-rule="evenodd" d="M87.8655 51.4407L52.8656 14.4407L53.5921 13.7535L88.592 50.7535L87.8655 51.4407Z" fill="url(#paint24_linear_26_2785)"/>
<path fill-rule="evenodd" clip-rule="evenodd" d="M87.3655 52.1942L52.3656 15.1941L53.0921 14.5069L88.092 51.507L87.3655 52.1942Z" fill="url(#paint25_linear_26_2785)"/>
<path opacity="0.5" d="M60.2823 39.2476L50.5531 12.0058C50.3805 11.5226 49.8242 11.2991 49.3653 11.5286C49.2748 11.5738 49.1931 11.6348 49.1239 11.7086L17.8582 45.0586C17.0424 45.9288 18.3257 47.4974 19.3634 46.909C25.5291 43.413 33.6135 39.4416 40.7285 37.597C47.5774 35.8214 53.4477 38.1075 57.5488 41.038C58.4947 41.7138 60.6733 40.3425 60.2823 39.2476Z" fill="#0094FF"/>
<path opacity="0.4" d="M68.229 69.597C67.8883 66.5315 65.2273 64.4569 63.2097 63.4969C62.6902 63.2496 62.4091 62.6466 62.6228 62.1123L65.9775 53.7257C66.1294 53.346 66.4971 53.097 66.906 53.097H86.8814C87.7627 53.097 88.2131 54.1544 87.6025 54.7899L64.729 78.597C66.0623 77.097 68.629 73.197 68.229 69.597Z" fill="#0085FF"/>
<path opacity="0.6" d="M59.2285 66.097L50.8064 89.5903C50.3081 90.9803 48.5272 91.3696 47.4944 90.3143L26.7285 69.097C32.3952 73.597 44.6285 82.497 48.2285 82.097C51.8285 81.697 57.0618 71.2637 59.2285 66.097Z" fill="#0008FF"/>
<path d="M13.3945 52.597H26.729L44.229 52.097L15.2046 51.6289C14.3851 51.6157 13.9287 50.6765 14.4246 50.024L22.729 39.097L12.6333 50.9486C12.0802 51.5979 12.5416 52.597 13.3945 52.597Z" fill="white"/>
<path d="M14.2383 53.097H27.2288H53.7288L15.6013 53.5678C14.7164 53.5787 14.2807 54.649 14.9065 55.2748L30.7288 71.097L13.5506 54.823C12.8943 54.2013 13.3343 53.097 14.2383 53.097Z" fill="white"/>
<path opacity="0.5" fill-rule="evenodd" clip-rule="evenodd" d="M48.7286 90.0971L37.7286 55.0971L38.6826 54.7972L49.6826 89.7972L48.7286 90.0971Z" fill="url(#paint26_linear_26_2785)"/>
<path opacity="0.5" fill-rule="evenodd" clip-rule="evenodd" d="M48.729 15.097L35.729 49.097L34.7949 48.7399L47.7949 14.7399L48.729 15.097Z" fill="url(#paint27_linear_26_2785)"/>
<defs>
<filter id="filter0_d_26_2785" x="0" y="0.041748" width="100.458" height="104.611" filterUnits="userSpaceOnUse" color-interpolation-filters="sRGB">
<feFlood flood-opacity="0" result="BackgroundImageFix"/>
<feColorMatrix in="SourceAlpha" type="matrix" values="0 0 0 0 0 0 0 0 0 0 0 0 0 0 0 0 0 0 127 0" result="hardAlpha"/>
<feOffset/>
<feGaussianBlur stdDeviation="5"/>
<feComposite in2="hardAlpha" operator="out"/>
<feColorMatrix type="matrix" values="0 0 0 0 0.184314 0 0 0 0 0.184314 0 0 0 0 0.917647 0 0 0 0.7 0"/>
<feBlend mode="normal" in2="BackgroundImageFix" result="effect1_dropShadow_26_2785"/>
<feBlend mode="normal" in="SourceGraphic" in2="effect1_dropShadow_26_2785" result="shape"/>
</filter>
<linearGradient id="paint0_linear_26_2785" x1="68.7285" y1="30.597" x2="46.2285" y2="83.597" gradientUnits="userSpaceOnUse">
<stop offset="0.260293" stop-color="#0000FF"/>
<stop offset="1" stop-color="#0000FF" stop-opacity="0"/>
</linearGradient>
<linearGradient id="paint1_linear_26_2785" x1="88.729" y1="51.097" x2="68.0578" y2="55.5626" gradientUnits="userSpaceOnUse">
<stop stop-color="#FA00FF"/>
<stop offset="1" stop-color="#FA00FF" stop-opacity="0"/>
</linearGradient>
<linearGradient id="paint2_linear_26_2785" x1="61.2286" y1="21.0971" x2="55.6263" y2="28.2958" gradientUnits="userSpaceOnUse">
<stop stop-color="#00F0FF"/>
<stop offset="1" stop-color="#00FFFF" stop-opacity="0"/>
</linearGradient>
<linearGradient id="paint3_linear_26_2785" x1="52.2285" y1="91.5971" x2="75.8945" y2="51.4274" gradientUnits="userSpaceOnUse">
<stop stop-color="#00F0FF"/>
<stop offset="1" stop-color="#00FFFF" stop-opacity="0"/>
</linearGradient>
<linearGradient id="paint4_linear_26_2785" x1="62.2285" y1="72.097" x2="53.2285" y2="90.597" gradientUnits="userSpaceOnUse">
<stop stop-color="white"/>
<stop offset="1" stop-color="white" stop-opacity="0"/>
</linearGradient>
<linearGradient id="paint5_linear_26_2785" x1="81.7405" y1="66.7906" x2="52.0044" y2="76.8297" gradientUnits="userSpaceOnUse">
<stop stop-color="#FA00FF"/>
<stop offset="1" stop-color="#FA00FF" stop-opacity="0"/>
</linearGradient>
<linearGradient id="paint6_linear_26_2785" x1="48.6122" y1="72.6293" x2="25.9674" y2="79.6863" gradientUnits="userSpaceOnUse">
<stop stop-color="#FA00FF"/>
<stop offset="1" stop-color="#FA00FF" stop-opacity="0"/>
</linearGradient>
<linearGradient id="paint7_linear_26_2785" x1="43.0586" y1="69.3696" x2="33.5697" y2="92.6435" gradientUnits="userSpaceOnUse">
<stop stop-color="white"/>
<stop offset="1" stop-color="white" stop-opacity="0"/>
</linearGradient>
<linearGradient id="paint8_linear_26_2785" x1="72.2285" y1="81.597" x2="32.0399" y2="75.1917" gradientUnits="userSpaceOnUse">
<stop stop-color="#FA00FF"/>
<stop offset="1" stop-color="#FA00FF" stop-opacity="0"/>
</linearGradient>
<linearGradient id="paint9_linear_26_2785" x1="48.7284" y1="12.597" x2="47.2284" y2="39.097" gradientUnits="userSpaceOnUse">
<stop stop-color="#FFE074"/>
<stop offset="1" stop-color="#FFB800" stop-opacity="0"/>
</linearGradient>
<linearGradient id="paint10_linear_26_2785" x1="44.9791" y1="10.597" x2="44.9791" y2="35.1256" gradientUnits="userSpaceOnUse">
<stop stop-color="#4DC523"/>
<stop offset="1" stop-color="#4DC523" stop-opacity="0"/>
</linearGradient>
<linearGradient id="paint11_linear_26_2785" x1="49.2289" y1="13.5971" x2="47.9856" y2="31.6351" gradientUnits="userSpaceOnUse">
<stop stop-color="#2F2FEA"/>
<stop offset="1" stop-color="#2F2FEA" stop-opacity="0"/>
</linearGradient>
<linearGradient id="paint12_linear_26_2785" x1="87.2289" y1="49.597" x2="67.5964" y2="32.1225" gradientUnits="userSpaceOnUse">
<stop stop-color="#00F0FF"/>
<stop offset="1" stop-color="#00FFFF" stop-opacity="0"/>
</linearGradient>
<linearGradient id="paint13_linear_26_2785" x1="32.7286" y1="51.097" x2="50.7286" y2="36.597" gradientUnits="userSpaceOnUse">
<stop stop-color="white"/>
<stop offset="1" stop-color="white" stop-opacity="0"/>
</linearGradient>
<linearGradient id="paint14_linear_26_2785" x1="32.7286" y1="51.097" x2="50.7286" y2="36.597" gradientUnits="userSpaceOnUse">
<stop stop-color="white"/>
<stop offset="1" stop-color="white" stop-opacity="0"/>
</linearGradient>
<linearGradient id="paint15_linear_26_2785" x1="49.7288" y1="11.597" x2="64.2288" y2="51.097" gradientUnits="userSpaceOnUse">
<stop stop-color="#000AFF" stop-opacity="0.1"/>
<stop offset="0.5" stop-color="#000AFF"/>
<stop offset="1" stop-color="#000698" stop-opacity="0"/>
</linearGradient>
<linearGradient id="paint16_linear_26_2785" x1="52.7288" y1="13.4388" x2="67.2288" y2="52.9388" gradientUnits="userSpaceOnUse">
<stop stop-color="#000AFF" stop-opacity="0.1"/>
<stop offset="0.5" stop-color="#000AFF"/>
<stop offset="1" stop-color="#000698" stop-opacity="0"/>
</linearGradient>
<linearGradient id="paint17_linear_26_2785" x1="87.7289" y1="53.097" x2="67.229" y2="52.9386" gradientUnits="userSpaceOnUse">
<stop stop-color="#000AFF" stop-opacity="0.1"/>
<stop offset="0.5" stop-color="#000AFF"/>
<stop offset="1" stop-color="#000698" stop-opacity="0"/>
</linearGradient>
<linearGradient id="paint18_linear_26_2785" x1="87.7289" y1="53.77" x2="67.229" y2="53.6116" gradientUnits="userSpaceOnUse">
<stop stop-color="#000AFF" stop-opacity="0.1"/>
<stop offset="0.5" stop-color="white"/>
<stop offset="1" stop-color="#000698" stop-opacity="0"/>
</linearGradient>
<linearGradient id="paint19_linear_26_2785" x1="64.2287" y1="53.597" x2="13.7287" y2="53.097" gradientUnits="userSpaceOnUse">
<stop stop-color="#000AFF" stop-opacity="0.1"/>
<stop offset="0.5" stop-color="white"/>
<stop offset="1" stop-color="#000698" stop-opacity="0"/>
</linearGradient>
<linearGradient id="paint20_linear_26_2785" x1="52.2286" y1="91.597" x2="67.2286" y2="53.097" gradientUnits="userSpaceOnUse">
<stop stop-color="#000AFF" stop-opacity="0.1"/>
<stop offset="0.5" stop-color="white"/>
<stop offset="1" stop-color="#000698" stop-opacity="0"/>
</linearGradient>
<linearGradient id="paint21_linear_26_2785" x1="49.7286" y1="91.1072" x2="64.7286" y2="52.6072" gradientUnits="userSpaceOnUse">
<stop stop-color="#000AFF" stop-opacity="0.1"/>
<stop offset="0.5" stop-color="#000AFF"/>
<stop offset="1" stop-color="#000698" stop-opacity="0"/>
</linearGradient>
<linearGradient id="paint22_linear_26_2785" x1="48.7288" y1="92.0971" x2="13.2288" y2="53.0972" gradientUnits="userSpaceOnUse">
<stop stop-color="#000AFF" stop-opacity="0.1"/>
<stop offset="0.5" stop-color="#000AFF"/>
<stop offset="1" stop-color="#000698" stop-opacity="0"/>
</linearGradient>
<linearGradient id="paint23_linear_26_2785" x1="48.7289" y1="92.0971" x2="13.2289" y2="53.0971" gradientUnits="userSpaceOnUse">
<stop stop-color="#000AFF" stop-opacity="0.1"/>
<stop offset="0.5" stop-color="white"/>
<stop offset="1" stop-color="#000698" stop-opacity="0"/>
</linearGradient>
<linearGradient id="paint24_linear_26_2785" x1="52.7288" y1="13.4388" x2="86.2288" y2="50.5971" gradientUnits="userSpaceOnUse">
<stop stop-color="#000AFF" stop-opacity="0.1"/>
<stop offset="0.5" stop-color="#000AFF"/>
<stop offset="1" stop-color="#000698" stop-opacity="0"/>
</linearGradient>
<linearGradient id="paint25_linear_26_2785" x1="52.2289" y1="14.1922" x2="66.7289" y2="53.6922" gradientUnits="userSpaceOnUse">
<stop stop-color="#000AFF" stop-opacity="0.1"/>
<stop offset="0.5" stop-color="white"/>
<stop offset="1" stop-color="#000698" stop-opacity="0"/>
</linearGradient>
<linearGradient id="paint26_linear_26_2785" x1="37.7286" y1="54.5971" x2="47.2287" y2="87.5971" gradientUnits="userSpaceOnUse">
<stop stop-color="white" stop-opacity="0"/>
<stop offset="0.5" stop-color="white"/>
<stop offset="1" stop-color="white" stop-opacity="0"/>
</linearGradient>
<linearGradient id="paint27_linear_26_2785" x1="35.4199" y1="49.4855" x2="48.349" y2="17.9625" gradientUnits="userSpaceOnUse">
<stop stop-color="white" stop-opacity="0"/>
<stop offset="0.5" stop-color="white"/>
<stop offset="1" stop-color="white" stop-opacity="0"/>
</linearGradient>
</defs>
</svg>
