<svg width="21" height="20" viewBox="0 0 21 20" fill="none" xmlns="http://www.w3.org/2000/svg">
<g id="image (1) 1">
<path id="Vector" d="M14.9061 17.8125C14.7461 17.8125 14.5855 17.7734 14.4367 17.695L10.6455 15.6916C10.5536 15.6434 10.4452 15.6434 10.3546 15.6916L6.56268 17.695C6.22299 17.8744 5.81862 17.8459 5.50706 17.6209C5.19581 17.3956 5.04268 17.02 5.10737 16.6409L5.82705 12.4219C5.84737 12.3009 5.80737 12.1778 5.72018 12.0922L2.67674 9.11031C2.40362 8.84281 2.30737 8.45031 2.4258 8.08656C2.54455 7.72281 2.8533 7.4625 3.23205 7.40719L7.43174 6.79375C7.55424 6.77562 7.65987 6.69875 7.71455 6.5875L9.59987 2.74781C9.77018 2.40219 10.1149 2.1875 10.4999 2.1875C10.8846 2.1875 11.2296 2.40219 11.3992 2.74781L13.2842 6.58687C13.3392 6.69844 13.4455 6.77562 13.5683 6.79375L17.7692 7.4075C18.1474 7.4625 18.4558 7.7225 18.5746 8.08594C18.693 8.44938 18.5971 8.84156 18.3239 9.10875L15.2789 12.0922C15.1914 12.1778 15.1517 12.3009 15.1721 12.4216L15.8921 16.6409C15.9571 17.0197 15.8039 17.3953 15.4927 17.6209C15.3174 17.7478 15.1124 17.8125 14.9061 17.8125ZM10.4999 15.0303C10.6499 15.0303 10.8005 15.0666 10.9374 15.1394L14.7289 17.1428C14.8583 17.2109 15.0071 17.2012 15.1261 17.1147C15.2452 17.0287 15.3014 16.8909 15.2764 16.7463L14.5564 12.5266C14.5011 12.2041 14.608 11.8747 14.8417 11.6459L17.8864 8.66281C17.9902 8.56094 18.0252 8.41781 17.9805 8.27969C17.9352 8.14188 17.8227 8.04687 17.6789 8.02562L13.4783 7.41188C13.1517 7.36469 12.8692 7.15906 12.7233 6.86219L10.8383 3.02312C10.7733 2.89125 10.6471 2.8125 10.4999 2.8125C10.3527 2.8125 10.2261 2.89156 10.1611 3.02375L8.2758 6.86344C8.13018 7.15969 7.84862 7.365 7.52237 7.4125L3.32237 8.02562C3.1783 8.04656 3.06518 8.14187 3.01987 8.28031C2.97518 8.41875 3.01018 8.5625 3.11424 8.66437L6.15737 11.6459C6.39112 11.8747 6.49799 12.2041 6.44268 12.5269L5.72299 16.7459C5.69831 16.8909 5.75487 17.0284 5.8733 17.115C5.99268 17.2009 6.14112 17.2109 6.27049 17.1428L10.0624 15.1394C10.1992 15.0666 10.3496 15.0303 10.4999 15.0303Z" fill="url(#paint0_linear_1702_22487)"/>
<path id="Vector_2" d="M10.7841 13.089L12.6157 14.0224C12.8754 14.1546 13.1797 13.943 13.1304 13.6646L12.7569 11.553C12.7372 11.4415 12.7747 11.3277 12.8572 11.2499L14.4566 9.73835C14.6654 9.54116 14.5491 9.1996 14.2597 9.15897L12.056 8.84835C11.9404 8.8321 11.8407 8.7621 11.7894 8.66116L10.8185 6.75335C10.6863 6.49335 10.3147 6.49335 10.1825 6.75335L9.2113 8.66116C9.16005 8.7621 9.06005 8.8321 8.94474 8.84835L6.74099 9.15866C6.45161 9.19929 6.33567 9.54085 6.54411 9.73804L8.14599 11.2518C8.22661 11.328 8.2638 11.4399 8.24442 11.5493L7.87036 13.6643C7.82099 13.9427 8.12567 14.1543 8.38505 14.0221L10.2166 13.0887C10.3944 12.998 10.6057 12.998 10.7841 13.089Z" fill="url(#paint1_linear_1702_22487)"/>
</g>
<defs>
<linearGradient id="paint0_linear_1702_22487" x1="10.5005" y1="2.1875" x2="10.5005" y2="18.0141" gradientUnits="userSpaceOnUse">
<stop stop-color="#0094FF"/>
<stop offset="1" stop-color="#FC99FF"/>
</linearGradient>
<linearGradient id="paint1_linear_1702_22487" x1="10.5" y1="6.17179" x2="10.5" y2="13.9858" gradientUnits="userSpaceOnUse">
<stop stop-color="#0094FF"/>
<stop offset="1" stop-color="#FC99FF"/>
</linearGradient>
</defs>
</svg>
