<svg width="88" height="88" viewBox="0 0 88 88" fill="none" xmlns="http://www.w3.org/2000/svg">
<g clip-path="url(#clip0_26_2762)">
<path fill-rule="evenodd" clip-rule="evenodd" d="M60.5927 17.8506C64.2371 25.8277 67.8392 33.9255 71.2671 42.5247C70.4278 50.6354 66.9174 69.0243 64.7224 76.1914C64.0518 76.7725 58.0545 81.2916 56.8879 81.6478L32.4233 86.3853L20.4955 81.1137C19.6656 78.6158 18.5446 66.0681 18.2063 62.7886C19.0386 52.6959 24.4102 22.176 25.412 18.6479C32.6794 12.3993 39.1105 6.02704 42.4253 3.41598C44.1745 5.04435 57.759 15.778 60.5927 17.8506Z" fill="url(#paint0_radial_26_2762)"/>
<path style="mix-blend-mode:multiply" fill-rule="evenodd" clip-rule="evenodd" d="M52.3939 72.1931L39.7033 74.139L20.5071 81.1068L32.435 86.3784L56.8876 81.6478C58.0422 81.2985 64.0515 76.7725 64.7221 76.1915L58.204 72.2032L52.3939 72.1931Z" fill="url(#paint1_radial_26_2762)"/>
<path style="mix-blend-mode:screen" fill-rule="evenodd" clip-rule="evenodd" d="M42.4257 3.41586L49.3963 22.5338C54.0368 26.4737 63.5947 34.2248 68.8 40.3678C69.4222 40.8398 70.9629 42.1887 71.2625 42.5435C67.8465 33.9374 64.2444 25.8396 60.5881 17.8694C57.7544 15.7968 44.1699 5.06318 42.4207 3.43481L42.4257 3.41586Z" fill="url(#paint2_radial_26_2762)"/>
<path style="mix-blend-mode:multiply" fill-rule="evenodd" clip-rule="evenodd" d="M49.3884 22.5218L42.4179 3.40385C39.1031 6.01491 32.6721 12.3872 25.4046 18.6358C29.5669 24.823 33.5803 31.417 37.4379 38.4056C42.0914 32.5196 45.129 27.6508 49.4004 22.5149L49.3884 22.5218Z" fill="url(#paint3_radial_26_2762)"/>
<path style="mix-blend-mode:screen" fill-rule="evenodd" clip-rule="evenodd" d="M68.7923 40.3561C64.718 50.551 61.3816 61.8077 58.1851 72.1983L64.7032 76.1865C66.917 69.0245 70.4274 50.6356 71.2667 42.5249C70.9671 42.1701 69.4264 40.8212 68.8042 40.3491L68.7923 40.3561Z" fill="url(#paint4_radial_26_2762)"/>
<path style="mix-blend-mode:screen" fill-rule="evenodd" clip-rule="evenodd" d="M58.2041 72.2033C61.3936 61.8007 64.7181 50.5509 68.8112 40.361C63.606 34.2181 54.048 26.4669 49.4075 22.5271C45.148 27.656 42.0985 32.5318 37.445 38.4178L39.5974 63.7735C43.651 66.6923 47.9494 69.5652 52.394 72.1932L58.2041 72.2033Z" fill="url(#paint5_radial_26_2762)"/>
<path d="M49.5451 26.1145L39.4238 38.8223C39.2592 39.0291 39.1831 39.2926 39.2121 39.5553L39.7269 44.2088C39.795 44.8247 40.3989 45.2313 40.9898 45.0446C44.527 43.9268 50.5038 41.6286 52.9763 39.1451C54.5365 37.578 57.6391 37.7076 60.666 38.4089C61.7801 38.667 62.8537 36.9118 62.0124 36.1372L51.0047 26.0018C50.5777 25.6087 49.9067 25.6604 49.5451 26.1145Z" fill="url(#paint6_linear_26_2762)"/>
<path fill-rule="evenodd" clip-rule="evenodd" d="M52.3943 72.193C47.9497 69.565 43.6702 66.6972 39.5977 63.7733C39.5076 66.6126 39.6387 71.0853 39.7036 74.1389L52.3943 72.193Z" fill="white"/>
<path style="mix-blend-mode:multiply" fill-rule="evenodd" clip-rule="evenodd" d="M39.7034 74.1389C39.6385 71.0853 39.5193 66.6057 39.5975 63.7734L37.4451 38.4177C33.5876 31.4291 29.5742 24.8352 25.4119 18.6479C24.41 22.176 19.0453 52.7079 18.2062 62.7886C18.5445 66.0681 19.6655 78.6158 20.4953 81.1137L39.6915 74.1459L39.7034 74.1389Z" fill="url(#paint7_radial_26_2762)"/>
<path style="mix-blend-mode:screen" fill-rule="evenodd" clip-rule="evenodd" d="M52.3939 72.1931L39.7033 74.139L20.5071 81.1068L32.435 86.3784L56.8876 81.6478C58.0422 81.2985 64.0515 76.7725 64.7221 76.1915L58.204 72.2032L52.3939 72.1931Z" fill="url(#paint8_radial_26_2762)"/>
<path style="mix-blend-mode:screen" fill-rule="evenodd" clip-rule="evenodd" d="M67.033 50.3618C68.8538 47.2877 69.2511 52.2788 69.3229 55.3444C70.2189 50.3561 70.9416 45.6766 71.2667 42.5249C70.9671 42.1701 69.4264 40.8212 68.8042 40.3491C64.73 50.5441 61.3935 61.8008 58.1971 72.1914L64.7151 76.1796C64.825 75.8436 64.921 75.4836 65.0341 75.0977C64.8786 75.1879 64.7231 75.278 64.547 75.3322C62.9047 75.804 60.7848 73.2534 60.4531 71.8441C60.0606 70.2458 60.1915 68.0877 60.5922 66.5099C61.2047 64.0245 61.8033 61.5151 62.7503 59.14C63.9616 56.1151 65.3684 53.153 67.033 50.3618Z" fill="url(#paint9_radial_26_2762)"/>
<path d="M32.9524 77.9838C36.819 76.8741 43.3095 75.672 46.0714 75.2096C49.5238 74.5915 53.6667 78.6774 50.9048 80.758C48.7394 82.3892 37.9973 84.1537 32.5862 84.8764C32.3732 84.9048 32.1605 84.8627 31.9729 84.758L27.2004 82.0948C26.6217 81.7719 26.5312 81.0052 27.0776 80.6304C28.244 79.8303 30.2185 78.7684 32.9524 77.9838Z" fill="url(#paint10_linear_26_2762)"/>
<path d="M59.7032 18.8862L44.6905 6.54834C47.951 9.82342 51.0334 18.2895 52.2282 22.3052C52.2671 22.4359 52.3306 22.5541 52.4177 22.659L55.0275 25.8048C55.7245 26.6449 54.6801 27.8022 53.7731 27.1949C52.9736 26.6595 51.9469 27.5345 52.3279 28.418C55.1345 34.9246 58.7439 45.0802 57.8095 50.2419C56.8417 55.5886 50.1507 60.2612 45.7215 62.5808C45.0057 62.9557 44.9486 63.991 45.6406 64.4081L53.8849 69.3766C54.1789 69.5538 54.5431 69.5678 54.8499 69.4138L56.8527 68.4079C57.0265 68.3206 57.171 68.1846 57.2687 68.0165L59.8069 63.6459C60.3379 62.7316 61.7395 63.1594 61.6694 64.2143L61.2875 69.9684C61.271 70.217 61.3479 70.4628 61.5031 70.6577L62.718 72.183C63.242 72.841 64.2949 72.5973 64.4766 71.776L69.4558 49.2697C69.5145 49.0046 69.4628 48.727 69.3126 48.5007L69.0769 48.1456C68.664 47.5235 67.7374 47.5645 67.3811 48.2207C66.8334 49.2293 65.2956 48.6547 65.5435 47.534L66.7093 42.2645C66.7587 42.0411 66.7301 41.8076 66.6282 41.6028L64.5336 37.395C64.1239 36.5721 64.9629 35.6853 65.8072 36.0488C66.6376 36.4062 67.4716 35.5518 67.0941 34.7303L59.977 19.2412C59.9138 19.1037 59.8202 18.9823 59.7032 18.8862Z" fill="url(#paint11_linear_26_2762)"/>
<path style="mix-blend-mode:screen" fill-rule="evenodd" clip-rule="evenodd" d="M64.0088 48.0953C63.8374 51.5423 63.1957 54.7814 62.5527 58.1014C64.4632 52.0763 66.5159 46.0488 68.8048 40.3488C63.5995 34.2059 54.0416 26.4547 49.401 22.5149C45.1416 27.6438 42.092 32.5196 37.4385 38.4056L38.2766 48.1863C38.4184 45.3813 38.6295 42.3918 39.1014 40.6606C40.0977 37.0397 44.6867 30.9028 48.1988 29.5227C49.0452 29.192 50.072 28.981 50.9044 29.3472C55.3184 31.2561 62.5786 40.0033 63.8757 44.7289C64.1751 45.8046 64.0586 46.9613 64.0139 48.0764L64.0088 48.0953Z" fill="url(#paint12_radial_26_2762)"/>
<path style="mix-blend-mode:screen" fill-rule="evenodd" clip-rule="evenodd" d="M51.0058 73.1903C59.9579 72.5636 63.0482 78.4115 55.8669 80.9263C49.8983 83.0262 40.8038 84.3762 34.4741 85.4041C32.6238 85.7083 31.5602 85.7165 30.173 85.3838L32.423 86.3853L56.8876 81.6478C58.0422 81.2985 64.0515 76.7725 64.7221 76.1915L58.204 72.2032L52.3939 72.1931L39.7033 74.139L20.5071 81.1068L23.4367 82.403C23.1289 80.9798 26.8563 79.4749 28.6347 78.796C36.5777 75.7754 42.3618 73.7985 51.0177 73.1834L51.0058 73.1903Z" fill="url(#paint13_radial_26_2762)"/>
<path d="M26.9646 20.1918L37.2783 9.83218C38.1029 9.0039 39.4358 10.021 38.8546 11.035L29.7584 26.904C29.5964 27.1866 29.5822 27.5305 29.7204 27.8255L34.9535 38.9954C35 39.0946 35.0299 39.2008 35.0419 39.3097L37.7856 64.1129V82.0588C37.7856 82.5173 37.4739 82.917 37.0292 83.0287L32.683 84.1201C32.4143 84.1875 32.1297 84.1405 31.897 83.9903L22.9595 78.2191C22.7271 78.0691 22.5672 77.8294 22.5179 77.5572L19.8639 62.8952C19.8436 62.7831 19.8426 62.6684 19.861 62.556L26.6863 20.7363C26.7199 20.5302 26.8172 20.3398 26.9646 20.1918Z" fill="url(#paint14_linear_26_2762)"/>
<path style="mix-blend-mode:screen" fill-rule="evenodd" clip-rule="evenodd" d="M27.6471 78.5197C27.4933 60.8302 28.4276 43.2305 30.1634 25.9988C28.597 23.4956 27.0086 21.0373 25.3999 18.6547C24.3981 22.1828 19.0334 52.7146 18.1942 62.7954C18.5325 66.0748 19.6535 78.6226 20.4833 81.1205L27.6351 78.5267L27.6471 78.5197Z" fill="url(#paint15_radial_26_2762)"/>
<path style="mix-blend-mode:screen" fill-rule="evenodd" clip-rule="evenodd" d="M47.2421 25.2242C52.6993 34.8569 59.7301 48.254 63.3513 55.6359C63.5608 55.0019 63.7704 54.3678 63.98 53.7337C58.5478 44.3107 53.2989 34.1248 48.2198 23.9845C47.886 24.4023 47.5641 24.8133 47.2421 25.2242Z" fill="url(#paint16_radial_26_2762)"/>
<path style="mix-blend-mode:screen" fill-rule="evenodd" clip-rule="evenodd" d="M61.2634 62.2121C55.4081 52.0254 49.1562 40.0667 43.9901 29.6085C43.573 30.1868 43.1559 30.765 42.7388 31.3432C48.2938 40.6469 55.2832 53.9719 60.4596 64.8085C60.7298 63.9471 60.9931 63.0736 61.2634 62.2121Z" fill="url(#paint17_radial_26_2762)"/>
<path style="mix-blend-mode:screen" fill-rule="evenodd" clip-rule="evenodd" d="M47.872 69.4019C44.6917 64.1188 40.9225 56.9508 38.5962 51.8771C38.6631 52.6872 38.737 53.5093 38.804 54.3193C40.9642 57.8556 44.0811 63.5279 46.2108 68.3151C46.752 68.674 47.312 69.038 47.8651 69.3899L47.872 69.4019Z" fill="url(#paint18_radial_26_2762)"/>
<path style="mix-blend-mode:screen" fill-rule="evenodd" clip-rule="evenodd" d="M64.7036 51.5523L58.9821 71.1434C58.8185 71.7188 59.0215 72.3218 59.5181 72.6585L64.2085 75.8806C60.1919 73.5811 59.4642 72.4815 54.8501 72.1942L57.0984 72.0276C57.6652 71.9872 58.1141 71.6307 58.2984 71.0914L64.7155 51.5454L64.7036 51.5523Z" fill="url(#paint19_radial_26_2762)"/>
<path style="mix-blend-mode:screen" fill-rule="evenodd" clip-rule="evenodd" d="M24.0183 30.0109C24.7658 25.5411 27.1143 23.6346 29.5061 24.9384C28.1588 22.7887 26.7964 20.6957 25.4118 18.6477C24.41 22.1757 19.0453 52.7076 18.2062 62.7883C18.5444 66.0678 19.6655 78.6155 20.4953 81.1134L39.6915 74.1456C39.6528 72.7745 39.6284 71.1229 39.597 69.4594C39.4063 70.0985 39.1521 70.7104 38.7502 71.2318C35.7477 75.1353 26.5069 78.2838 23.2129 73.9956C20.5701 70.563 19.7374 63.1497 20.1501 58.8741C21.0818 49.2042 22.4249 39.584 24.0302 30.004L24.0183 30.0109Z" fill="url(#paint20_radial_26_2762)"/>
<path style="mix-blend-mode:screen" fill-rule="evenodd" clip-rule="evenodd" d="M49.3884 22.5218L42.4179 3.40385C39.1031 6.01491 32.6721 12.3872 25.4046 18.6358C29.5669 24.823 33.5803 31.417 37.4379 38.4056C42.0914 32.5196 45.129 27.6508 49.4004 22.5149L49.3884 22.5218Z" fill="url(#paint21_radial_26_2762)"/>
<path style="mix-blend-mode:screen" fill-rule="evenodd" clip-rule="evenodd" d="M39.9404 5.5296C37.9498 14.3561 31.8977 23.1353 30.1752 25.9922C32.6595 29.9812 35.0844 34.1168 37.445 38.4178C42.0984 32.5318 45.1361 27.6629 49.4075 22.5271L42.437 3.4091C41.7337 3.96109 40.9044 4.68224 39.9524 5.52266L39.9404 5.5296Z" fill="url(#paint22_radial_26_2762)"/>
<path style="mix-blend-mode:screen" fill-rule="evenodd" clip-rule="evenodd" d="M67.1747 38.5395C61.8104 32.8411 55.6844 27.6485 49.8615 22.0399C47.4566 17.4122 45.7882 12.3735 43.8926 7.46647C45.5693 12.4364 47.407 17.409 48.7873 22.3906C46.5738 26.1408 43.798 29.8007 41.1851 33.4942C43.8846 30.0068 46.4759 26.4699 49.4979 23.0997C55.6399 28.0427 61.5805 33.1346 67.1816 38.5515L67.1747 38.5395Z" fill="url(#paint23_radial_26_2762)"/>
<g style="mix-blend-mode:screen">
<path fill-rule="evenodd" clip-rule="evenodd" d="M49.9507 37.5081C50.0511 37.7382 49.8993 37.8903 49.6872 37.9652C49.4512 38.054 49.1885 37.902 49.095 37.684C49.0103 37.5089 49.2131 37.2791 49.3843 37.2439C49.641 37.1912 49.8246 37.2609 49.9387 37.515L49.9507 37.5081Z" fill="#F543FF"/>
</g>
<g style="mix-blend-mode:screen" opacity="0.6">
<path fill-rule="evenodd" clip-rule="evenodd" d="M55.1263 29.2854C55.2336 29.5275 55.0698 29.6865 54.8458 29.7684C54.5979 29.8641 54.3282 29.7001 54.2279 29.47C54.1482 29.276 54.351 29.0463 54.5341 29.0041C54.8028 28.9444 54.9933 29.0262 55.1263 29.2854Z" fill="#F543FF"/>
</g>
<g style="mix-blend-mode:screen" opacity="0.6">
<path fill-rule="evenodd" clip-rule="evenodd" d="M32.5416 36.4884C32.6489 36.7305 32.4851 36.8895 32.2611 36.9714C32.0132 37.0671 31.7435 36.9032 31.6431 36.6731C31.5635 36.479 31.7663 36.2493 31.9494 36.2071C32.218 36.1474 32.4085 36.2292 32.5416 36.4884Z" fill="#F543FF"/>
</g>
<g style="mix-blend-mode:screen" opacity="0.5">
<path fill-rule="evenodd" clip-rule="evenodd" d="M48.0819 57.7001C48.1891 57.9422 48.0254 58.1012 47.8014 58.183C47.5534 58.2788 47.2838 58.1148 47.1834 57.8847C47.1038 57.6907 47.3066 57.4609 47.4897 57.4188C47.7583 57.3591 47.9488 57.4408 48.075 57.688L48.0819 57.7001Z" fill="#F543FF"/>
</g>
<g style="mix-blend-mode:screen" opacity="0.5">
<path fill-rule="evenodd" clip-rule="evenodd" d="M31.8814 58.7823C31.9887 59.0244 31.825 59.1835 31.6009 59.2653C31.353 59.3611 31.0833 59.1971 30.983 58.967C30.9033 58.7729 31.1061 58.5432 31.2892 58.5011C31.5579 58.4414 31.7484 58.5231 31.8814 58.7823Z" fill="#F543FF"/>
</g>
<g style="mix-blend-mode:screen">
<path fill-rule="evenodd" clip-rule="evenodd" d="M48.8251 45.7046C48.9876 46.0428 48.759 46.2554 48.4444 46.3738C48.0939 46.513 47.74 46.2858 47.5844 45.9596C47.4702 45.7055 47.76 45.3773 48.0047 45.3315C48.3778 45.2592 48.6437 45.3613 48.8132 45.7115L48.8251 45.7046Z" fill="#F543FF"/>
</g>
<g style="mix-blend-mode:screen">
<path fill-rule="evenodd" clip-rule="evenodd" d="M29.9057 30.3769C30.0682 30.7151 29.8396 30.9278 29.525 31.0462C29.1744 31.1854 28.8206 30.9582 28.665 30.632C28.5508 30.3778 28.8405 30.0496 29.0853 30.0038C29.4584 29.9316 29.7243 30.0336 29.8937 30.3839L29.9057 30.3769Z" fill="#F543FF"/>
</g>
<g style="mix-blend-mode:screen">
<path fill-rule="evenodd" clip-rule="evenodd" d="M45.9225 61.3226C45.9984 61.4548 45.8926 61.5482 45.7712 61.5866C45.6258 61.6388 45.4781 61.5483 45.421 61.4212C45.3658 61.3251 45.4936 61.1869 45.5912 61.1624C45.7503 61.1342 45.8516 61.1716 45.9225 61.3226Z" fill="#F543FF"/>
</g>
<g style="mix-blend-mode:screen">
<path fill-rule="evenodd" clip-rule="evenodd" d="M26.3895 52.1967C26.4654 52.3288 26.3597 52.4222 26.2382 52.4606C26.0929 52.5128 25.9452 52.4223 25.8881 52.2953C25.8328 52.1992 25.9607 52.0609 26.0582 52.0364C26.2174 52.0082 26.3186 52.0456 26.3895 52.1967Z" fill="#F543FF"/>
</g>
<g style="mix-blend-mode:screen">
<path fill-rule="evenodd" clip-rule="evenodd" d="M40.77 28.8333C40.8399 28.7608 41.0759 28.672 41.1614 28.6544C41.2401 28.6248 41.4848 28.5789 41.569 28.6422C41.5507 28.749 41.5015 28.8576 41.4504 28.9352C41.4114 29.006 41.2853 29.1751 41.2117 29.1858C41.0645 29.2071 40.8239 29.0103 40.7787 28.8763L40.758 28.8403L40.77 28.8333Z" fill="#FC99FF"/>
</g>
<g style="mix-blend-mode:screen" opacity="0.4">
<path fill-rule="evenodd" clip-rule="evenodd" d="M37.6039 32.5914C37.5188 32.7209 37.1273 32.8998 36.9939 32.9452C36.8794 32.9956 36.4842 33.1126 36.3434 33.0341C36.3461 32.8723 36.4087 32.6759 36.4868 32.5345C36.536 32.4259 36.7163 32.1292 36.8377 32.0908C37.0636 32.0399 37.4759 32.3133 37.5813 32.5244L37.6158 32.5845L37.6039 32.5914Z" fill="#FC99FF"/>
</g>
<g style="mix-blend-mode:screen">
<path fill-rule="evenodd" clip-rule="evenodd" d="M49.481 24.7909C49.6375 24.9244 49.806 25.4673 49.853 25.6323C49.9 25.7972 49.9931 26.3198 49.862 26.508C49.6495 26.4711 49.4143 26.3672 49.234 26.2475C49.0863 26.157 48.7425 25.8919 48.7075 25.72C48.6701 25.4053 49.1047 24.913 49.3835 24.8154L49.4691 24.7978L49.481 24.7909Z" fill="#F543FF"/>
</g>
<g style="mix-blend-mode:screen">
<path fill-rule="evenodd" clip-rule="evenodd" d="M29.2879 42.2032C29.2971 42.358 29.0847 42.7374 29.0166 42.841C28.9486 42.9445 28.7016 43.2639 28.5424 43.2922C28.4596 43.148 28.3988 42.959 28.3656 42.8181C28.3463 42.7012 28.314 42.3675 28.394 42.2571C28.5439 42.074 29.032 42.0632 29.2363 42.169L29.2948 42.2152L29.2879 42.2032Z" fill="#F543FF"/>
</g>
<g style="mix-blend-mode:screen">
<path fill-rule="evenodd" clip-rule="evenodd" d="M53.9564 35.906C54.0755 35.7248 54.1882 35.6434 54.3755 35.7751C54.5816 35.9118 54.6217 36.0647 54.4856 36.2718C54.3615 36.4719 54.2469 36.5223 54.0578 36.3597C53.8755 36.2091 53.8323 36.1061 53.9684 35.899L53.9564 35.906Z" fill="#FC99FF"/>
</g>
<g style="mix-blend-mode:screen">
<path fill-rule="evenodd" clip-rule="evenodd" d="M26.0253 35.3342C26.1444 35.153 26.2571 35.0716 26.4443 35.2033C26.6505 35.34 26.6906 35.4929 26.5545 35.7C26.4303 35.9002 26.3158 35.9506 26.1266 35.788C25.9444 35.6374 25.9011 35.5343 26.0372 35.3273L26.0253 35.3342Z" fill="#FC99FF"/>
</g>
<g style="mix-blend-mode:screen">
<path fill-rule="evenodd" clip-rule="evenodd" d="M28.8114 63.622C28.9305 63.4409 29.0432 63.3595 29.2305 63.4911C29.4366 63.6278 29.4767 63.7808 29.3406 63.9879C29.2164 64.188 29.1019 64.2384 28.9128 64.0758C28.7305 63.9252 28.6872 63.8222 28.8234 63.6151L28.8114 63.622Z" fill="#FC99FF"/>
</g>
<g style="mix-blend-mode:screen">
<path fill-rule="evenodd" clip-rule="evenodd" d="M45.1609 32.8378C45.1117 32.9464 44.8587 33.0611 44.7423 33.0805C44.5712 33.1157 44.3089 33.0756 44.2532 32.8677C44.2113 32.6837 44.3952 32.4489 44.5783 32.4068C44.847 32.3471 45.0536 32.5957 45.1659 32.8188L45.1609 32.8378Z" fill="#F543FF"/>
</g>
<g style="mix-blend-mode:screen">
<path fill-rule="evenodd" clip-rule="evenodd" d="M43.4075 19.4397C43.258 19.3182 43.2556 19.1754 43.3577 19.0201C43.4478 18.8718 43.6654 18.8897 43.7773 19.001C43.908 19.1175 43.9448 19.3203 43.829 19.4516C43.7131 19.5829 43.5313 19.5441 43.4075 19.4397Z" fill="#F543FF"/>
</g>
<path style="mix-blend-mode:screen" fill-rule="evenodd" clip-rule="evenodd" d="M42.7135 19.7303C42.4304 19.2377 42.6041 18.6245 43.0825 18.347C43.5609 18.0696 44.1834 18.2372 44.4596 18.7177C44.7358 19.1982 44.569 19.8235 44.0906 20.1009C43.6122 20.3783 42.9897 20.2108 42.7135 19.7303Z" fill="url(#paint24_radial_26_2762)"/>
<g style="mix-blend-mode:screen">
<path fill-rule="evenodd" clip-rule="evenodd" d="M44.4097 52.782C44.2532 52.6485 44.2371 52.4817 44.3511 52.3195C44.4652 52.1572 44.6897 52.1872 44.8204 52.3036C44.9699 52.4251 44.9898 52.6538 44.8689 52.804C44.7479 52.9543 44.5404 52.8984 44.3977 52.7889L44.4097 52.782Z" fill="#F543FF"/>
</g>
<path style="mix-blend-mode:screen" fill-rule="evenodd" clip-rule="evenodd" d="M43.651 53.126C43.3403 52.5854 43.5222 51.9033 44.0604 51.5912C44.5986 51.2791 45.2777 51.4619 45.5884 52.0024C45.8991 52.543 45.7172 53.2251 45.179 53.5372C44.6408 53.8493 43.9617 53.6666 43.651 53.126Z" fill="url(#paint25_radial_26_2762)"/>
<g style="mix-blend-mode:screen">
<path fill-rule="evenodd" clip-rule="evenodd" d="M52.4965 31.4511C52.2123 31.8722 51.8443 31.9254 51.3759 31.7486C51.0653 31.6244 50.7068 31.1116 50.916 30.782C51.1643 30.3817 51.686 30.2073 52.1033 30.4618C52.4691 30.6821 52.7688 31.0369 52.4965 31.4511Z" fill="#F543FF"/>
</g>
<path style="mix-blend-mode:screen" fill-rule="evenodd" clip-rule="evenodd" d="M49.8065 32.21C49.1919 31.1408 49.5559 29.7766 50.6202 29.1593C51.6846 28.5421 53.0429 28.9076 53.6574 29.9767C54.2719 31.0459 53.908 32.4101 52.8436 33.0274C51.7792 33.6446 50.421 33.2791 49.8065 32.21Z" fill="url(#paint26_radial_26_2762)"/>
<g style="mix-blend-mode:screen">
<path fill-rule="evenodd" clip-rule="evenodd" d="M34.393 39.3226C34.1718 39.6591 33.8893 39.6948 33.5222 39.5553C33.2751 39.4583 33.0095 39.0518 33.1557 38.8068C33.3599 38.4962 33.7601 38.3602 34.0813 38.5584C34.3698 38.7274 34.5971 39.012 34.381 39.3295L34.393 39.3226Z" fill="#F543FF"/>
</g>
<path style="mix-blend-mode:screen" fill-rule="evenodd" clip-rule="evenodd" d="M32.3065 39.9083C31.8301 39.0795 32.1131 38.0184 32.9383 37.5398C33.7635 37.0613 34.8199 37.3456 35.2963 38.1744C35.7728 39.0033 35.4897 40.0644 34.6645 40.543C33.8393 41.0215 32.7829 40.7372 32.3065 39.9083Z" fill="url(#paint27_radial_26_2762)"/>
<g style="mix-blend-mode:screen">
<path fill-rule="evenodd" clip-rule="evenodd" d="M52.8039 44.4704C52.5651 44.3046 52.5332 44.0828 52.6348 43.8157C52.7042 43.6313 53.0133 43.42 53.1937 43.5396C53.4256 43.6934 53.5297 43.9855 53.3835 44.2304C53.2543 44.4495 53.0478 44.6173 52.8089 44.4515L52.8039 44.4704Z" fill="#F543FF"/>
</g>
<path style="mix-blend-mode:screen" fill-rule="evenodd" clip-rule="evenodd" d="M52.357 42.888C52.9789 42.5273 53.7712 42.7405 54.1302 43.3652C54.4893 43.9899 54.277 44.7857 53.6551 45.1463C53.0332 45.507 52.2409 45.2937 51.8819 44.6691C51.5228 44.0444 51.7351 43.2486 52.357 42.888Z" fill="url(#paint28_radial_26_2762)"/>
<g style="mix-blend-mode:screen">
<path fill-rule="evenodd" clip-rule="evenodd" d="M32.0861 49.6782C31.8473 49.5124 31.8155 49.2906 31.917 49.0234C31.9864 48.839 32.2955 48.6277 32.4759 48.7474C32.7078 48.9012 32.8119 49.1932 32.6537 49.4451C32.5245 49.6642 32.318 49.832 32.0792 49.6662L32.0861 49.6782Z" fill="#F543FF"/>
</g>
<path style="mix-blend-mode:screen" fill-rule="evenodd" clip-rule="evenodd" d="M31.6388 48.0957C32.2606 47.7351 33.0529 47.9483 33.412 48.573C33.771 49.1976 33.5587 49.9934 32.9369 50.3541C32.315 50.7147 31.5227 50.5015 31.1636 49.8768C30.8046 49.2522 31.0169 48.4564 31.6388 48.0957Z" fill="url(#paint29_radial_26_2762)"/>
<path style="mix-blend-mode:screen" d="M46.689 18.6578C44.4895 19.9333 43.7359 22.7582 45.0058 24.9675C46.2756 27.1767 49.0881 27.9337 51.2875 26.6581C53.487 25.3826 54.2406 22.5577 52.9707 20.3484C51.7009 18.1392 48.8884 17.3822 46.689 18.6578Z" fill="url(#paint30_radial_26_2762)"/>
<path style="mix-blend-mode:screen" d="M47.4558 19.9911C45.9895 20.8415 45.4871 22.7248 46.3337 24.1976C47.1803 25.6704 49.0552 26.1751 50.5215 25.3247C51.9878 24.4744 52.4902 22.5911 51.6437 21.1182C50.7971 19.6454 48.9221 19.1408 47.4558 19.9911Z" fill="url(#paint31_radial_26_2762)"/>
<path style="mix-blend-mode:screen" d="M37.0039 69.4419C34.4214 70.9396 33.5365 74.2566 35.0276 76.8506C36.5186 79.4447 39.8209 80.3335 42.4035 78.8358C44.986 77.3381 45.8709 74.0211 44.3798 71.4271C42.8888 68.833 39.5865 67.9443 37.0039 69.4419Z" fill="url(#paint32_radial_26_2762)"/>
<path style="mix-blend-mode:screen" d="M37.9015 71.0036C36.1776 72.0033 35.587 74.2174 36.5822 75.949C37.5775 77.6806 39.7819 78.2739 41.5058 77.2741C43.2297 76.2744 43.8204 74.0603 42.8251 72.3287C41.8298 70.5971 39.6254 70.0038 37.9015 71.0036Z" fill="url(#paint33_radial_26_2762)"/>
<path d="M35.5795 38.2388L27.4429 25.3957C26.9523 24.6214 25.7653 24.8601 25.6122 25.7638L22.1009 46.4847C21.9004 47.6674 25.4732 49.2935 26.503 48.6785C27.4092 48.1373 28.4092 47.7113 29.5001 47.4678C34.4715 46.3581 36.635 53.9409 37.0954 57.871L35.7323 38.703C35.7205 38.538 35.6681 38.3785 35.5795 38.2388Z" fill="url(#paint34_linear_26_2762)"/>
<path d="M47.1873 8.60034L44.6904 6.54834C45.5606 7.09461 46.3965 7.79579 47.1873 8.60034L59.7032 18.8862C59.8201 18.9823 59.9137 19.1037 59.9769 19.2412L66.2701 32.937C66.7176 33.9109 65.5516 34.7849 64.7557 34.0672C60.0784 29.8494 54.3571 24.2495 54.3571 22.5C54.3571 20.1628 51.4167 12.9031 47.1873 8.60034Z" fill="url(#paint35_linear_26_2762)"/>
<path d="M26.0476 19.7258L37.0952 38.4516M37.0952 38.4516L39.8571 64.1129V73.8226M37.0952 38.4516L49.5238 22.5" stroke="url(#paint36_radial_26_2762)"/>
<path d="M57.1191 28.7419L68.8572 40.5323L60.5715 64.1129" stroke="url(#paint37_radial_26_2762)"/>
<path d="M23.2856 80.0645L39.8571 73.8226M39.8571 73.8226L39.1666 60.6451M39.8571 73.8226L58.4999 72.4355L62.6428 75.2097" stroke="url(#paint38_radial_26_2762)"/>
</g>
<defs>
<radialGradient id="paint0_radial_26_2762" cx="0" cy="0" r="1" gradientUnits="userSpaceOnUse" gradientTransform="translate(41.9469 3.6934) rotate(149.89) scale(82.8527 83.0362)">
<stop stop-color="#FFA1FA"/>
<stop offset="1" stop-color="#EB36E4"/>
</radialGradient>
<radialGradient id="paint1_radial_26_2762" cx="0" cy="0" r="1" gradientUnits="userSpaceOnUse" gradientTransform="translate(41.494 50.3726) rotate(149.89) scale(47.8618 47.9678)">
<stop offset="0.47" stop-color="white"/>
<stop offset="0.51" stop-color="#FBF5FA"/>
<stop offset="0.59" stop-color="#F3DCEF"/>
<stop offset="0.68" stop-color="#E6B3DC"/>
<stop offset="0.79" stop-color="#D37AC2"/>
<stop offset="0.92" stop-color="#BB33A2"/>
<stop offset="1" stop-color="#AB008B"/>
</radialGradient>
<radialGradient id="paint2_radial_26_2762" cx="0" cy="0" r="1" gradientUnits="userSpaceOnUse" gradientTransform="translate(83.1249 -4.42583) rotate(149.89) scale(44.0876 44.1853)">
<stop/>
<stop offset="0.29" stop-color="#020102"/>
<stop offset="0.43" stop-color="#090409"/>
<stop offset="0.54" stop-color="#160B16"/>
<stop offset="0.62" stop-color="#281428"/>
<stop offset="0.7" stop-color="#402040"/>
<stop offset="0.77" stop-color="#5E2F5E"/>
<stop offset="0.84" stop-color="#814181"/>
<stop offset="0.9" stop-color="#A956A9"/>
<stop offset="0.96" stop-color="#D66DD6"/>
<stop offset="1" stop-color="#FF82FF"/>
</radialGradient>
<radialGradient id="paint3_radial_26_2762" cx="0" cy="0" r="1" gradientUnits="userSpaceOnUse" gradientTransform="translate(66.3914 28.1337) rotate(149.89) scale(45.1522 45.2522)">
<stop offset="0.47" stop-color="white"/>
<stop offset="0.51" stop-color="#FBF5FC"/>
<stop offset="0.59" stop-color="#F1DCF5"/>
<stop offset="0.68" stop-color="#E2B3EB"/>
<stop offset="0.79" stop-color="#CC7ADC"/>
<stop offset="0.92" stop-color="#B033C9"/>
<stop offset="1" stop-color="#9D00BC"/>
</radialGradient>
<radialGradient id="paint4_radial_26_2762" cx="0" cy="0" r="1" gradientUnits="userSpaceOnUse" gradientTransform="translate(123.162 76.4653) rotate(149.89) scale(64.2167 64.3589)">
<stop/>
<stop offset="0.21" stop-color="#020202"/>
<stop offset="0.34" stop-color="#0B090B"/>
<stop offset="0.45" stop-color="#1A151A"/>
<stop offset="0.56" stop-color="#2F262E"/>
<stop offset="0.65" stop-color="#4B3C49"/>
<stop offset="0.74" stop-color="#6C586B"/>
<stop offset="0.83" stop-color="#947892"/>
<stop offset="0.91" stop-color="#C39EC0"/>
<stop offset="0.99" stop-color="#F6C8F2"/>
<stop offset="1" stop-color="#FFCFFB"/>
</radialGradient>
<radialGradient id="paint5_radial_26_2762" cx="0" cy="0" r="1" gradientUnits="userSpaceOnUse" gradientTransform="translate(23.1988 86.289) rotate(149.89) scale(74.7651 74.9307)">
<stop offset="0.33"/>
<stop offset="0.39" stop-color="#060406"/>
<stop offset="0.48" stop-color="#181018"/>
<stop offset="0.57" stop-color="#352435"/>
<stop offset="0.68" stop-color="#5E415E"/>
<stop offset="0.8" stop-color="#936593"/>
<stop offset="0.92" stop-color="#D291D2"/>
<stop offset="1" stop-color="#FFB0FF"/>
</radialGradient>
<linearGradient id="paint6_linear_26_2762" x1="52.9763" y1="25.2742" x2="52.9763" y2="45.3871" gradientUnits="userSpaceOnUse">
<stop stop-color="#5D0053"/>
<stop offset="1" stop-color="#5D0053" stop-opacity="0"/>
</linearGradient>
<radialGradient id="paint7_radial_26_2762" cx="0" cy="0" r="1" gradientUnits="userSpaceOnUse" gradientTransform="translate(-10.9484 41.2235) rotate(149.89) scale(60.954 61.089)">
<stop offset="0.47" stop-color="white"/>
<stop offset="0.51" stop-color="#FBF5FC"/>
<stop offset="0.59" stop-color="#F1DCF5"/>
<stop offset="0.68" stop-color="#E2B3EB"/>
<stop offset="0.79" stop-color="#CC7ADC"/>
<stop offset="0.92" stop-color="#B033C9"/>
<stop offset="1" stop-color="#9D00BC"/>
</radialGradient>
<radialGradient id="paint8_radial_26_2762" cx="0" cy="0" r="1" gradientUnits="userSpaceOnUse" gradientTransform="translate(42.4103 97.4912) rotate(149.89) scale(30.4425 30.5099)">
<stop/>
<stop offset="0.09" stop-color="#060406"/>
<stop offset="0.22" stop-color="#181018"/>
<stop offset="0.36" stop-color="#352435"/>
<stop offset="0.53" stop-color="#5E415E"/>
<stop offset="0.7" stop-color="#936593"/>
<stop offset="0.88" stop-color="#D291D2"/>
<stop offset="1" stop-color="#FFB0FF"/>
</radialGradient>
<radialGradient id="paint9_radial_26_2762" cx="0" cy="0" r="1" gradientUnits="userSpaceOnUse" gradientTransform="translate(91.8538 80.7827) rotate(149.89) scale(51.3319 51.4456)">
<stop/>
<stop offset="0.21" stop-color="#020202"/>
<stop offset="0.34" stop-color="#0B090B"/>
<stop offset="0.45" stop-color="#1A161A"/>
<stop offset="0.56" stop-color="#2F282F"/>
<stop offset="0.65" stop-color="#4B3F4A"/>
<stop offset="0.74" stop-color="#6C5C6B"/>
<stop offset="0.83" stop-color="#947E93"/>
<stop offset="0.91" stop-color="#C3A6C1"/>
<stop offset="0.99" stop-color="#F6D1F3"/>
<stop offset="1" stop-color="#FFD9FC"/>
</radialGradient>
<linearGradient id="paint10_linear_26_2762" x1="47.7976" y1="6.54834" x2="47.7976" y2="84.9193" gradientUnits="userSpaceOnUse">
<stop stop-color="#5D0053" stop-opacity="0"/>
<stop offset="1" stop-color="#B907A7"/>
</linearGradient>
<linearGradient id="paint11_linear_26_2762" x1="47.7976" y1="6.54834" x2="47.7976" y2="84.9193" gradientUnits="userSpaceOnUse">
<stop stop-color="#5D0053" stop-opacity="0"/>
<stop offset="1" stop-color="#B907A7"/>
</linearGradient>
<radialGradient id="paint12_radial_26_2762" cx="0" cy="0" r="1" gradientUnits="userSpaceOnUse" gradientTransform="translate(44.9972 71.1972) rotate(149.89) scale(50.0047 50.1155)">
<stop/>
<stop offset="0.21" stop-color="#020102"/>
<stop offset="0.34" stop-color="#0B060B"/>
<stop offset="0.45" stop-color="#1A0F19"/>
<stop offset="0.56" stop-color="#2F1B2D"/>
<stop offset="0.65" stop-color="#4B2A48"/>
<stop offset="0.74" stop-color="#6C3D69"/>
<stop offset="0.83" stop-color="#94548F"/>
<stop offset="0.91" stop-color="#C36FBC"/>
<stop offset="0.99" stop-color="#F68CED"/>
<stop offset="1" stop-color="#FF91F6"/>
</radialGradient>
<radialGradient id="paint13_radial_26_2762" cx="0" cy="0" r="1" gradientUnits="userSpaceOnUse" gradientTransform="translate(48.983 126.931) rotate(149.89) scale(55.272 55.3944)">
<stop/>
<stop offset="0.21" stop-color="#020102"/>
<stop offset="0.34" stop-color="#0B060B"/>
<stop offset="0.45" stop-color="#1A0F19"/>
<stop offset="0.56" stop-color="#2F1B2D"/>
<stop offset="0.65" stop-color="#4B2A48"/>
<stop offset="0.74" stop-color="#6C3D69"/>
<stop offset="0.83" stop-color="#94548F"/>
<stop offset="0.91" stop-color="#C36FBC"/>
<stop offset="0.99" stop-color="#F68CED"/>
<stop offset="1" stop-color="#FF91F6"/>
</radialGradient>
<linearGradient id="paint14_linear_26_2762" x1="31.2261" y1="4.46777" x2="31.2261" y2="84.2258" gradientUnits="userSpaceOnUse">
<stop stop-color="#5D0053" stop-opacity="0"/>
<stop offset="1" stop-color="#5D0053"/>
</linearGradient>
<radialGradient id="paint15_radial_26_2762" cx="0" cy="0" r="1" gradientUnits="userSpaceOnUse" gradientTransform="translate(84.9642 31.9544) rotate(149.89) scale(87.3043 87.4977)">
<stop/>
<stop offset="0.21" stop-color="#020002"/>
<stop offset="0.34" stop-color="#0B020B"/>
<stop offset="0.45" stop-color="#1A0519"/>
<stop offset="0.56" stop-color="#2F092D"/>
<stop offset="0.65" stop-color="#4B0F48"/>
<stop offset="0.74" stop-color="#6C1568"/>
<stop offset="0.83" stop-color="#941D8F"/>
<stop offset="0.91" stop-color="#C327BB"/>
<stop offset="0.99" stop-color="#F631EC"/>
<stop offset="1" stop-color="#FF33F5"/>
</radialGradient>
<radialGradient id="paint16_radial_26_2762" cx="0" cy="0" r="1" gradientUnits="userSpaceOnUse" gradientTransform="translate(65.3426 57.7966) rotate(149.89) scale(46.7144 46.8178)">
<stop stop-color="#FF5CFF"/>
<stop offset="1"/>
</radialGradient>
<radialGradient id="paint17_radial_26_2762" cx="0" cy="0" r="1" gradientUnits="userSpaceOnUse" gradientTransform="translate(66.4957 76.7803) rotate(149.89) scale(60.5946 60.7288)">
<stop stop-color="#FF5CFF"/>
<stop offset="1"/>
</radialGradient>
<radialGradient id="paint18_radial_26_2762" cx="0" cy="0" r="1" gradientUnits="userSpaceOnUse" gradientTransform="translate(47.7676 72.5217) rotate(149.89) scale(33.8019 33.8768)">
<stop stop-color="#FF5CFF"/>
<stop offset="1"/>
</radialGradient>
<radialGradient id="paint19_radial_26_2762" cx="0" cy="0" r="1" gradientUnits="userSpaceOnUse" gradientTransform="translate(57.8966 72.0292) rotate(149.89) scale(19.5069 19.5502)">
<stop stop-color="#FFBAFF"/>
<stop offset="1"/>
</radialGradient>
<radialGradient id="paint20_radial_26_2762" cx="0" cy="0" r="1" gradientUnits="userSpaceOnUse" gradientTransform="translate(77.8183 38.581) rotate(149.89) scale(79.3135 79.4892)">
<stop/>
<stop offset="0.21" stop-color="#020102"/>
<stop offset="0.34" stop-color="#0B060B"/>
<stop offset="0.45" stop-color="#1A0F19"/>
<stop offset="0.56" stop-color="#2F1B2D"/>
<stop offset="0.65" stop-color="#4B2A48"/>
<stop offset="0.74" stop-color="#6C3D69"/>
<stop offset="0.83" stop-color="#94548F"/>
<stop offset="0.91" stop-color="#C36FBC"/>
<stop offset="0.99" stop-color="#F68CED"/>
<stop offset="1" stop-color="#FF91F6"/>
</radialGradient>
<radialGradient id="paint21_radial_26_2762" cx="0" cy="0" r="1" gradientUnits="userSpaceOnUse" gradientTransform="translate(55.0437 24.7039) rotate(149.89) scale(29.9171 29.9834)">
<stop/>
<stop offset="0.29" stop-color="#020102"/>
<stop offset="0.43" stop-color="#090409"/>
<stop offset="0.54" stop-color="#160B16"/>
<stop offset="0.62" stop-color="#281428"/>
<stop offset="0.7" stop-color="#402040"/>
<stop offset="0.77" stop-color="#5E2F5E"/>
<stop offset="0.84" stop-color="#814181"/>
<stop offset="0.9" stop-color="#A956A9"/>
<stop offset="0.96" stop-color="#D66DD6"/>
<stop offset="1" stop-color="#FF82FF"/>
</radialGradient>
<radialGradient id="paint22_radial_26_2762" cx="0" cy="0" r="1" gradientUnits="userSpaceOnUse" gradientTransform="translate(50.482 23.4255) rotate(149.89) scale(24.3457 24.3996)">
<stop/>
<stop offset="0.21" stop-color="#020102"/>
<stop offset="0.34" stop-color="#0B060B"/>
<stop offset="0.45" stop-color="#1A0F19"/>
<stop offset="0.56" stop-color="#2F1B2D"/>
<stop offset="0.65" stop-color="#4B2A48"/>
<stop offset="0.74" stop-color="#6C3D69"/>
<stop offset="0.83" stop-color="#94548F"/>
<stop offset="0.91" stop-color="#C36FBC"/>
<stop offset="0.99" stop-color="#F68CED"/>
<stop offset="1" stop-color="#FF91F6"/>
</radialGradient>
<radialGradient id="paint23_radial_26_2762" cx="0" cy="0" r="1" gradientUnits="userSpaceOnUse" gradientTransform="translate(49.4012 22.9315) rotate(149.89) scale(22.1337 22.1827)">
<stop stop-color="#FFBAFF"/>
<stop offset="1"/>
</radialGradient>
<radialGradient id="paint24_radial_26_2762" cx="0" cy="0" r="1" gradientUnits="userSpaceOnUse" gradientTransform="translate(43.5985 19.217) rotate(149.89) scale(1.00922 1.01146)">
<stop offset="0.38" stop-color="#FF33F5"/>
<stop offset="0.5" stop-color="#BE26B7"/>
<stop offset="0.63" stop-color="#7B1876"/>
<stop offset="0.76" stop-color="#460E43"/>
<stop offset="0.86" stop-color="#20061E"/>
<stop offset="0.95" stop-color="#080108"/>
<stop offset="1"/>
</radialGradient>
<radialGradient id="paint25_radial_26_2762" cx="0" cy="0" r="1" gradientUnits="userSpaceOnUse" gradientTransform="translate(44.6317 52.5573) rotate(149.89) scale(1.11982 1.1223)">
<stop offset="0.38" stop-color="#FF33F5"/>
<stop offset="0.5" stop-color="#BE26B7"/>
<stop offset="0.63" stop-color="#7B1876"/>
<stop offset="0.76" stop-color="#460E43"/>
<stop offset="0.86" stop-color="#20061E"/>
<stop offset="0.95" stop-color="#080108"/>
<stop offset="1"/>
</radialGradient>
<radialGradient id="paint26_radial_26_2762" cx="0" cy="0" r="1" gradientUnits="userSpaceOnUse" gradientTransform="translate(51.7319 31.0933) rotate(149.89) scale(2.22581 2.23074)">
<stop offset="0.38" stop-color="#FF33F5"/>
<stop offset="0.5" stop-color="#BE26B7"/>
<stop offset="0.63" stop-color="#7B1876"/>
<stop offset="0.76" stop-color="#460E43"/>
<stop offset="0.86" stop-color="#20061E"/>
<stop offset="0.95" stop-color="#080108"/>
<stop offset="1"/>
</radialGradient>
<radialGradient id="paint27_radial_26_2762" cx="0" cy="0" r="1" gradientUnits="userSpaceOnUse" gradientTransform="translate(33.8014 39.0414) rotate(149.89) scale(1.72811 1.73194)">
<stop offset="0.38" stop-color="#FF33F5"/>
<stop offset="0.5" stop-color="#BE26B7"/>
<stop offset="0.63" stop-color="#7B1876"/>
<stop offset="0.76" stop-color="#460E43"/>
<stop offset="0.86" stop-color="#20061E"/>
<stop offset="0.95" stop-color="#080108"/>
<stop offset="1"/>
</radialGradient>
<radialGradient id="paint28_radial_26_2762" cx="0" cy="0" r="1" gradientUnits="userSpaceOnUse" gradientTransform="translate(53.0061 44.0171) rotate(-119.89) scale(1.30243 1.29953)">
<stop offset="0.38" stop-color="#FF33F5"/>
<stop offset="0.5" stop-color="#BE26B7"/>
<stop offset="0.63" stop-color="#7B1876"/>
<stop offset="0.76" stop-color="#460E43"/>
<stop offset="0.86" stop-color="#20061E"/>
<stop offset="0.95" stop-color="#080108"/>
<stop offset="1"/>
</radialGradient>
<radialGradient id="paint29_radial_26_2762" cx="0" cy="0" r="1" gradientUnits="userSpaceOnUse" gradientTransform="translate(32.2758 49.2318) rotate(-119.89) scale(1.30243 1.29953)">
<stop offset="0.38" stop-color="#FF33F5"/>
<stop offset="0.5" stop-color="#BE26B7"/>
<stop offset="0.63" stop-color="#7B1876"/>
<stop offset="0.76" stop-color="#460E43"/>
<stop offset="0.86" stop-color="#20061E"/>
<stop offset="0.95" stop-color="#080108"/>
<stop offset="1"/>
</radialGradient>
<radialGradient id="paint30_radial_26_2762" cx="0" cy="0" r="1" gradientUnits="userSpaceOnUse" gradientTransform="translate(48.9883 22.658) rotate(149.89) scale(4.24425 4.25365)">
<stop stop-color="#FF5CFF"/>
<stop offset="0.09" stop-color="#D44CD4"/>
<stop offset="0.23" stop-color="#9C389C"/>
<stop offset="0.37" stop-color="#6C276C"/>
<stop offset="0.5" stop-color="#451945"/>
<stop offset="0.63" stop-color="#270E27"/>
<stop offset="0.76" stop-color="#110611"/>
<stop offset="0.89" stop-color="#040104"/>
<stop offset="1"/>
</radialGradient>
<radialGradient id="paint31_radial_26_2762" cx="0" cy="0" r="1" gradientUnits="userSpaceOnUse" gradientTransform="translate(48.9887 22.6579) rotate(149.89) scale(2.83411 2.84039)">
<stop stop-color="white"/>
<stop offset="0.09" stop-color="#D4D4D4"/>
<stop offset="0.23" stop-color="#9C9C9C"/>
<stop offset="0.37" stop-color="#6C6C6C"/>
<stop offset="0.5" stop-color="#454545"/>
<stop offset="0.63" stop-color="#272727"/>
<stop offset="0.76" stop-color="#111111"/>
<stop offset="0.89" stop-color="#040404"/>
<stop offset="1"/>
</radialGradient>
<radialGradient id="paint32_radial_26_2762" cx="0" cy="0" r="1" gradientUnits="userSpaceOnUse" gradientTransform="translate(39.7037 74.1389) rotate(149.89) scale(4.97697 4.98799)">
<stop stop-color="#FF33F5"/>
<stop offset="0.09" stop-color="#D42ACB"/>
<stop offset="0.23" stop-color="#9C1F96"/>
<stop offset="0.37" stop-color="#6C1568"/>
<stop offset="0.5" stop-color="#450D42"/>
<stop offset="0.63" stop-color="#270725"/>
<stop offset="0.76" stop-color="#110310"/>
<stop offset="0.89" stop-color="#040004"/>
<stop offset="1"/>
</radialGradient>
<radialGradient id="paint33_radial_26_2762" cx="0" cy="0" r="1" gradientUnits="userSpaceOnUse" gradientTransform="translate(39.7037 74.1389) rotate(149.89) scale(3.31798 3.32533)">
<stop stop-color="white"/>
<stop offset="0.09" stop-color="#D4D4D4"/>
<stop offset="0.23" stop-color="#9C9C9C"/>
<stop offset="0.37" stop-color="#6C6C6C"/>
<stop offset="0.5" stop-color="#454545"/>
<stop offset="0.63" stop-color="#272727"/>
<stop offset="0.76" stop-color="#111111"/>
<stop offset="0.89" stop-color="#040404"/>
<stop offset="1"/>
</radialGradient>
<linearGradient id="paint34_linear_26_2762" x1="28.8096" y1="23.1936" x2="28.8096" y2="57.871" gradientUnits="userSpaceOnUse">
<stop stop-color="white"/>
<stop offset="1" stop-color="white" stop-opacity="0"/>
</linearGradient>
<linearGradient id="paint35_linear_26_2762" x1="56.4285" y1="6.54834" x2="56.4285" y2="37.0645" gradientUnits="userSpaceOnUse">
<stop stop-color="white"/>
<stop offset="1" stop-color="white" stop-opacity="0"/>
</linearGradient>
<radialGradient id="paint36_radial_26_2762" cx="0" cy="0" r="1" gradientUnits="userSpaceOnUse" gradientTransform="translate(37.0952 37.7581) rotate(92.4259) scale(32.626 14.1588)">
<stop stop-color="white"/>
<stop offset="1" stop-color="white" stop-opacity="0"/>
</radialGradient>
<radialGradient id="paint37_radial_26_2762" cx="0" cy="0" r="1" gradientUnits="userSpaceOnUse" gradientTransform="translate(62.643 40.5323) rotate(91.8555) scale(21.3245 7.08205)">
<stop stop-color="white"/>
<stop offset="1" stop-color="white" stop-opacity="0"/>
</radialGradient>
<radialGradient id="paint38_radial_26_2762" cx="0" cy="0" r="1" gradientUnits="userSpaceOnUse" gradientTransform="translate(39.8571 73.8226) rotate(154.555) scale(14.5283 12.4234)">
<stop stop-color="white"/>
<stop offset="1" stop-color="white" stop-opacity="0"/>
</radialGradient>
<clipPath id="clip0_26_2762">
<rect width="58" height="86" fill="white" transform="translate(15 1)"/>
</clipPath>
</defs>
</svg>
