<svg width="88" height="104" viewBox="0 0 88 104" fill="none" xmlns="http://www.w3.org/2000/svg">
<g filter="url(#filter0_d_26_2762)">
<path fill-rule="evenodd" clip-rule="evenodd" d="M60.5927 24.8506C64.2371 32.8277 67.8392 40.9255 71.2671 49.5247C70.4278 57.6354 66.9174 76.0243 64.7224 83.1914C64.0518 83.7725 58.0545 88.2916 56.8879 88.6478L32.4233 93.3853L20.4955 88.1137C19.6656 85.6158 18.5446 73.0681 18.2063 69.7886C19.0386 59.6959 24.4102 29.176 25.412 25.6479C32.6794 19.3993 39.1105 13.027 42.4253 10.416C44.1745 12.0443 57.759 22.778 60.5927 24.8506Z" fill="url(#paint0_radial_26_2762)"/>
</g>
<path fill-rule="evenodd" clip-rule="evenodd" d="M52.3939 79.1931L39.7033 81.139L20.5071 88.1068L32.435 93.3784L56.8876 88.6478C58.0422 88.2985 64.0515 83.7725 64.7221 83.1915L58.204 79.2032L52.3939 79.1931Z" fill="url(#paint1_radial_26_2762)" style="mix-blend-mode:multiply"/>
<path fill-rule="evenodd" clip-rule="evenodd" d="M42.4257 10.4159L49.3963 29.5338C54.0368 33.4737 63.5947 41.2248 68.8 47.3678C69.4222 47.8398 70.9629 49.1887 71.2625 49.5435C67.8465 40.9374 64.2444 32.8396 60.5881 24.8694C57.7544 22.7968 44.1699 12.0632 42.4207 10.4348L42.4257 10.4159Z" fill="url(#paint2_radial_26_2762)"/>
<path fill-rule="evenodd" clip-rule="evenodd" d="M49.3884 29.5218L42.4179 10.4039C39.1031 13.0149 32.6721 19.3872 25.4046 25.6358C29.5669 31.823 33.5803 38.417 37.4379 45.4056C42.0914 39.5196 45.129 34.6508 49.4004 29.5149L49.3884 29.5218Z" fill="url(#paint3_radial_26_2762)" style="mix-blend-mode:multiply"/>
<path fill-rule="evenodd" clip-rule="evenodd" d="M68.7923 47.3561C64.718 57.551 61.3816 68.8077 58.1851 79.1983L64.7032 83.1865C66.917 76.0245 70.4274 57.6356 71.2667 49.5249C70.9671 49.1701 69.4264 47.8212 68.8042 47.3491L68.7923 47.3561Z" fill="url(#paint4_radial_26_2762)"/>
<path fill-rule="evenodd" clip-rule="evenodd" d="M58.2041 79.2033C61.3936 68.8007 64.7181 57.5509 68.8112 47.361C63.606 41.2181 54.048 33.4669 49.4075 29.5271C45.148 34.656 42.0985 39.5318 37.445 45.4178L39.5974 70.7735C43.651 73.6923 47.9494 76.5652 52.394 79.1932L58.2041 79.2033Z" fill="url(#paint5_radial_26_2762)"/>
<path d="M49.5451 33.1145L39.4238 45.8223C39.2592 46.0291 39.1831 46.2926 39.2121 46.5553L39.7269 51.2088C39.795 51.8247 40.3989 52.2313 40.9898 52.0446C44.527 50.9268 50.5038 48.6286 52.9763 46.1451C54.5365 44.578 57.6391 44.7076 60.666 45.4089C61.7801 45.667 62.8537 43.9118 62.0124 43.1372L51.0047 33.0018C50.5777 32.6087 49.9067 32.6604 49.5451 33.1145Z" fill="url(#paint6_linear_26_2762)"/>
<path fill-rule="evenodd" clip-rule="evenodd" d="M52.3943 79.193C47.9497 76.565 43.6702 73.6972 39.5977 70.7733C39.5076 73.6126 39.6387 78.0853 39.7036 81.1389L52.3943 79.193Z" fill="white"/>
<path fill-rule="evenodd" clip-rule="evenodd" d="M39.7034 81.1389C39.6385 78.0853 39.5193 73.6057 39.5975 70.7734L37.4451 45.4177C33.5876 38.4291 29.5742 31.8352 25.4119 25.6479C24.41 29.176 19.0453 59.7079 18.2062 69.7886C18.5445 73.0681 19.6655 85.6158 20.4953 88.1137L39.6915 81.1459L39.7034 81.1389Z" fill="url(#paint7_radial_26_2762)" style="mix-blend-mode:multiply"/>
<path fill-rule="evenodd" clip-rule="evenodd" d="M52.3939 79.1931L39.7033 81.139L20.5071 88.1068L32.435 93.3784L56.8876 88.6478C58.0422 88.2985 64.0515 83.7725 64.7221 83.1915L58.204 79.2032L52.3939 79.1931Z" fill="url(#paint8_radial_26_2762)"/>
<path fill-rule="evenodd" clip-rule="evenodd" d="M67.033 57.3618C68.8538 54.2877 69.2511 59.2788 69.3229 62.3444C70.2189 57.3561 70.9416 52.6766 71.2667 49.5249C70.9671 49.1701 69.4264 47.8212 68.8042 47.3491C64.73 57.5441 61.3935 68.8008 58.1971 79.1914L64.7151 83.1796C64.825 82.8436 64.921 82.4836 65.0341 82.0977C64.8786 82.1879 64.7231 82.278 64.547 82.3322C62.9047 82.804 60.7848 80.2534 60.4531 78.8441C60.0606 77.2458 60.1915 75.0877 60.5922 73.5099C61.2047 71.0245 61.8033 68.5151 62.7503 66.14C63.9616 63.1151 65.3684 60.153 67.033 57.3618Z" fill="url(#paint9_radial_26_2762)"/>
<path d="M32.9524 84.9838C36.819 83.8741 43.3095 82.672 46.0714 82.2096C49.5238 81.5915 53.6667 85.6774 50.9048 87.758C48.7394 89.3892 37.9973 91.1537 32.5862 91.8764C32.3732 91.9048 32.1605 91.8627 31.9729 91.758L27.2004 89.0948C26.6217 88.7719 26.5312 88.0052 27.0776 87.6304C28.244 86.8303 30.2185 85.7684 32.9524 84.9838Z" fill="url(#paint10_linear_26_2762)"/>
<path d="M59.7032 25.8862L44.6905 13.5483C47.951 16.8234 51.0334 25.2895 52.2282 29.3052C52.2671 29.4359 52.3306 29.5541 52.4177 29.659L55.0275 32.8048C55.7245 33.6449 54.6801 34.8022 53.7731 34.1949C52.9736 33.6595 51.9469 34.5345 52.3279 35.418C55.1345 41.9246 58.7439 52.0802 57.8095 57.2419C56.8417 62.5886 50.1507 67.2612 45.7215 69.5808C45.0057 69.9557 44.9486 70.991 45.6406 71.4081L53.8849 76.3766C54.1789 76.5538 54.5431 76.5678 54.8499 76.4138L56.8527 75.4079C57.0265 75.3206 57.171 75.1846 57.2687 75.0165L59.8069 70.6459C60.3379 69.7316 61.7395 70.1594 61.6694 71.2143L61.2875 76.9684C61.271 77.217 61.3479 77.4628 61.5031 77.6577L62.718 79.183C63.242 79.841 64.2949 79.5973 64.4766 78.776L69.4558 56.2697C69.5145 56.0046 69.4628 55.727 69.3126 55.5007L69.0769 55.1456C68.664 54.5235 67.7374 54.5645 67.3811 55.2207C66.8334 56.2293 65.2956 55.6547 65.5435 54.534L66.7093 49.2645C66.7587 49.0411 66.7301 48.8076 66.6282 48.6028L64.5336 44.395C64.1239 43.5721 64.9629 42.6853 65.8072 43.0488C66.6376 43.4062 67.4716 42.5518 67.0941 41.7303L59.977 26.2412C59.9138 26.1037 59.8202 25.9823 59.7032 25.8862Z" fill="url(#paint11_linear_26_2762)"/>
<path fill-rule="evenodd" clip-rule="evenodd" d="M64.0088 55.0953C63.8374 58.5423 63.1957 61.7814 62.5527 65.1014C64.4632 59.0763 66.5159 53.0488 68.8048 47.3488C63.5995 41.2059 54.0416 33.4547 49.401 29.5149C45.1416 34.6438 42.092 39.5196 37.4385 45.4056L38.2766 55.1863C38.4184 52.3813 38.6295 49.3918 39.1014 47.6606C40.0977 44.0397 44.6867 37.9028 48.1988 36.5227C49.0452 36.192 50.072 35.981 50.9044 36.3472C55.3184 38.2561 62.5786 47.0033 63.8757 51.7289C64.1751 52.8046 64.0586 53.9613 64.0139 55.0764L64.0088 55.0953Z" fill="url(#paint12_radial_26_2762)"/>
<path fill-rule="evenodd" clip-rule="evenodd" d="M51.0058 80.1903C59.9579 79.5636 63.0482 85.4115 55.8669 87.9263C49.8983 90.0262 40.8038 91.3762 34.4741 92.4041C32.6238 92.7083 31.5602 92.7165 30.173 92.3838L32.423 93.3853L56.8876 88.6478C58.0422 88.2985 64.0515 83.7725 64.7221 83.1915L58.204 79.2032L52.3939 79.1931L39.7033 81.139L20.5071 88.1068L23.4367 89.403C23.1289 87.9798 26.8563 86.4749 28.6347 85.796C36.5777 82.7754 42.3618 80.7985 51.0177 80.1834L51.0058 80.1903Z" fill="url(#paint13_radial_26_2762)" style="mix-blend-mode:screen"/>
<path d="M26.9646 27.1918L37.2783 16.8322C38.1029 16.0039 39.4358 17.021 38.8546 18.035L29.7584 33.904C29.5964 34.1866 29.5822 34.5305 29.7204 34.8255L34.9535 45.9954C35 46.0946 35.0299 46.2008 35.0419 46.3097L37.7856 71.1129V89.0588C37.7856 89.5173 37.4739 89.917 37.0292 90.0287L32.683 91.1201C32.4143 91.1875 32.1297 91.1405 31.897 90.9903L22.9595 85.2191C22.7271 85.0691 22.5672 84.8294 22.5179 84.5572L19.8639 69.8952C19.8436 69.7831 19.8426 69.6684 19.861 69.556L26.6863 27.7363C26.7199 27.5302 26.8172 27.3398 26.9646 27.1918Z" fill="url(#paint14_linear_26_2762)"/>
<path fill-rule="evenodd" clip-rule="evenodd" d="M27.6471 85.5197C27.4933 67.8302 28.4276 50.2305 30.1634 32.9988C28.597 30.4956 27.0086 28.0373 25.3999 25.6547C24.3981 29.1828 19.0334 59.7146 18.1942 69.7954C18.5325 73.0748 19.6535 85.6226 20.4833 88.1205L27.6351 85.5267L27.6471 85.5197Z" fill="url(#paint15_radial_26_2762)"/>
<path fill-rule="evenodd" clip-rule="evenodd" d="M47.2421 32.2242C52.6993 41.8569 59.7301 55.254 63.3513 62.6359C63.5608 62.0019 63.7704 61.3678 63.98 60.7337C58.5478 51.3107 53.2989 41.1248 48.2198 30.9845C47.886 31.4023 47.5641 31.8133 47.2421 32.2242Z" fill="url(#paint16_radial_26_2762)"/>
<path fill-rule="evenodd" clip-rule="evenodd" d="M61.2634 69.2121C55.4081 59.0254 49.1562 47.0667 43.9901 36.6085C43.573 37.1868 43.1559 37.765 42.7388 38.3432C48.2938 47.6469 55.2832 60.9719 60.4596 71.8085C60.7298 70.9471 60.9931 70.0736 61.2634 69.2121Z" fill="url(#paint17_radial_26_2762)"/>
<path fill-rule="evenodd" clip-rule="evenodd" d="M47.872 76.4019C44.6917 71.1188 40.9225 63.9508 38.5962 58.8771C38.6631 59.6872 38.737 60.5093 38.804 61.3193C40.9642 64.8556 44.0811 70.5279 46.2108 75.3151C46.752 75.674 47.312 76.038 47.8651 76.3899L47.872 76.4019Z" fill="url(#paint18_radial_26_2762)"/>
<path fill-rule="evenodd" clip-rule="evenodd" d="M64.7036 58.5523L58.9821 78.1434C58.8185 78.7188 59.0215 79.3218 59.5181 79.6585L64.2085 82.8806C60.1919 80.5811 59.4642 79.4815 54.8501 79.1942L57.0984 79.0276C57.6652 78.9872 58.1141 78.6307 58.2984 78.0914L64.7155 58.5454L64.7036 58.5523Z" fill="url(#paint19_radial_26_2762)"/>
<path fill-rule="evenodd" clip-rule="evenodd" d="M24.0183 37.0109C24.7658 32.5411 27.1143 30.6346 29.5061 31.9384C28.1588 29.7887 26.7964 27.6957 25.4118 25.6477C24.41 29.1757 19.0453 59.7076 18.2062 69.7883C18.5444 73.0678 19.6655 85.6155 20.4953 88.1134L39.6915 81.1456C39.6528 79.7745 39.6284 78.1229 39.597 76.4594C39.4063 77.0985 39.1521 77.7104 38.7502 78.2318C35.7477 82.1353 26.5069 85.2838 23.2129 80.9956C20.5701 77.563 19.7374 70.1497 20.1501 65.8741C21.0818 56.2042 22.4249 46.584 24.0302 37.004L24.0183 37.0109Z" fill="url(#paint20_radial_26_2762)"/>
<path opacity="0.5" fill-rule="evenodd" clip-rule="evenodd" d="M49.3884 29.5218L42.4179 10.4039C39.1031 13.0149 32.6721 19.3872 25.4046 25.6358C29.5669 31.823 33.5803 38.417 37.4379 45.4056C42.0914 39.5196 45.129 34.6508 49.4004 29.5149L49.3884 29.5218Z" fill="url(#paint21_radial_26_2762)"/>
<path fill-rule="evenodd" clip-rule="evenodd" d="M39.9404 12.5296C37.9498 21.3561 31.8977 30.1353 30.1752 32.9922C32.6595 36.9812 35.0844 41.1168 37.445 45.4178C42.0984 39.5318 45.1361 34.6629 49.4075 29.5271L42.437 10.4091C41.7337 10.9611 40.9044 11.6822 39.9524 12.5227L39.9404 12.5296Z" fill="url(#paint22_radial_26_2762)" style="mix-blend-mode:screen"/>
<path fill-rule="evenodd" clip-rule="evenodd" d="M67.1747 45.5395C61.8104 39.8411 55.6844 34.6485 49.8615 29.0399C47.4566 24.4122 45.7882 19.3735 43.8926 14.4665C45.5693 19.4364 47.407 24.409 48.7873 29.3906C46.5738 33.1408 43.798 36.8007 41.1851 40.4942C43.8846 37.0068 46.4759 33.4699 49.4979 30.0997C55.6399 35.0427 61.5805 40.1346 67.1816 45.5515L67.1747 45.5395Z" fill="url(#paint23_radial_26_2762)"/>
<path fill-rule="evenodd" clip-rule="evenodd" d="M49.9507 44.5081C50.0511 44.7382 49.8993 44.8903 49.6872 44.9652C49.4512 45.054 49.1885 44.902 49.095 44.684C49.0103 44.5089 49.2131 44.2791 49.3843 44.2439C49.641 44.1912 49.8246 44.2609 49.9387 44.515L49.9507 44.5081Z" fill="#F543FF"/>
<path opacity="0.6" fill-rule="evenodd" clip-rule="evenodd" d="M55.1263 36.2854C55.2336 36.5275 55.0698 36.6865 54.8458 36.7684C54.5979 36.8641 54.3282 36.7001 54.2279 36.47C54.1482 36.276 54.351 36.0463 54.5341 36.0041C54.8028 35.9444 54.9933 36.0262 55.1263 36.2854Z" fill="#F543FF"/>
<path opacity="0.6" fill-rule="evenodd" clip-rule="evenodd" d="M32.5416 43.4884C32.6489 43.7305 32.4851 43.8895 32.2611 43.9714C32.0132 44.0671 31.7435 43.9032 31.6431 43.6731C31.5635 43.479 31.7663 43.2493 31.9494 43.2071C32.218 43.1474 32.4085 43.2292 32.5416 43.4884Z" fill="#F543FF"/>
<path opacity="0.5" fill-rule="evenodd" clip-rule="evenodd" d="M48.0819 64.7001C48.1891 64.9422 48.0254 65.1012 47.8014 65.183C47.5534 65.2788 47.2838 65.1148 47.1834 64.8847C47.1038 64.6907 47.3066 64.4609 47.4897 64.4188C47.7583 64.3591 47.9488 64.4408 48.075 64.688L48.0819 64.7001Z" fill="#F543FF"/>
<path opacity="0.5" fill-rule="evenodd" clip-rule="evenodd" d="M31.8814 65.7823C31.9887 66.0244 31.825 66.1835 31.6009 66.2653C31.353 66.3611 31.0833 66.1971 30.983 65.967C30.9033 65.7729 31.1061 65.5432 31.2892 65.5011C31.5579 65.4414 31.7484 65.5231 31.8814 65.7823Z" fill="#F543FF"/>
<path fill-rule="evenodd" clip-rule="evenodd" d="M48.8251 52.7046C48.9876 53.0428 48.759 53.2554 48.4444 53.3738C48.0939 53.513 47.74 53.2858 47.5844 52.9596C47.4702 52.7055 47.76 52.3773 48.0047 52.3315C48.3778 52.2592 48.6437 52.3613 48.8132 52.7115L48.8251 52.7046Z" fill="url(#paint24_radial_26_2762)"/>
<path fill-rule="evenodd" clip-rule="evenodd" d="M29.9057 37.3769C30.0682 37.7151 29.8396 37.9278 29.525 38.0462C29.1744 38.1854 28.8206 37.9582 28.665 37.632C28.5508 37.3778 28.8405 37.0496 29.0853 37.0038C29.4584 36.9316 29.7243 37.0336 29.8937 37.3839L29.9057 37.3769Z" fill="#F543FF"/>
<path fill-rule="evenodd" clip-rule="evenodd" d="M45.9225 68.3226C45.9984 68.4548 45.8926 68.5482 45.7712 68.5866C45.6258 68.6388 45.4781 68.5483 45.421 68.4212C45.3658 68.3251 45.4936 68.1869 45.5912 68.1624C45.7503 68.1342 45.8516 68.1716 45.9225 68.3226Z" fill="#F543FF"/>
<path fill-rule="evenodd" clip-rule="evenodd" d="M26.3895 59.1967C26.4654 59.3288 26.3597 59.4222 26.2382 59.4606C26.0929 59.5128 25.9452 59.4223 25.8881 59.2953C25.8328 59.1992 25.9607 59.0609 26.0582 59.0364C26.2174 59.0082 26.3186 59.0456 26.3895 59.1967Z" fill="#F543FF"/>
<path fill-rule="evenodd" clip-rule="evenodd" d="M40.77 35.8333C40.8399 35.7608 41.0759 35.672 41.1614 35.6544C41.2401 35.6248 41.4848 35.5789 41.569 35.6422C41.5507 35.749 41.5015 35.8576 41.4504 35.9352C41.4114 36.006 41.2853 36.1751 41.2117 36.1858C41.0645 36.2071 40.8239 36.0103 40.7787 35.8763L40.758 35.8403L40.77 35.8333Z" fill="#FC99FF"/>
<path opacity="0.4" fill-rule="evenodd" clip-rule="evenodd" d="M37.6039 39.5914C37.5188 39.7209 37.1273 39.8998 36.9939 39.9452C36.8794 39.9956 36.4842 40.1126 36.3434 40.0341C36.3461 39.8723 36.4087 39.6759 36.4868 39.5345C36.536 39.4259 36.7163 39.1292 36.8377 39.0908C37.0636 39.0399 37.4759 39.3133 37.5813 39.5244L37.6158 39.5845L37.6039 39.5914Z" fill="#FC99FF"/>
<path fill-rule="evenodd" clip-rule="evenodd" d="M49.481 31.7909C49.6375 31.9244 49.806 32.4673 49.853 32.6323C49.9 32.7972 49.9931 33.3198 49.862 33.508C49.6495 33.4711 49.4143 33.3672 49.234 33.2475C49.0863 33.157 48.7425 32.8919 48.7075 32.72C48.6701 32.4053 49.1047 31.913 49.3835 31.8154L49.4691 31.7978L49.481 31.7909Z" fill="#F543FF"/>
<path fill-rule="evenodd" clip-rule="evenodd" d="M29.2879 49.2032C29.2971 49.358 29.0847 49.7374 29.0166 49.841C28.9486 49.9445 28.7016 50.2639 28.5424 50.2922C28.4596 50.148 28.3988 49.959 28.3656 49.8181C28.3463 49.7012 28.314 49.3675 28.394 49.2571C28.5439 49.074 29.032 49.0632 29.2363 49.169L29.2948 49.2152L29.2879 49.2032Z" fill="#F543FF"/>
<path fill-rule="evenodd" clip-rule="evenodd" d="M53.9564 42.906C54.0755 42.7248 54.1882 42.6434 54.3755 42.7751C54.5816 42.9118 54.6217 43.0647 54.4856 43.2718C54.3615 43.4719 54.2469 43.5223 54.0578 43.3597C53.8755 43.2091 53.8323 43.1061 53.9684 42.899L53.9564 42.906Z" fill="url(#paint25_radial_26_2762)"/>
<path fill-rule="evenodd" clip-rule="evenodd" d="M26.0253 42.3342C26.1444 42.153 26.2571 42.0716 26.4443 42.2033C26.6505 42.34 26.6906 42.4929 26.5545 42.7C26.4303 42.9002 26.3158 42.9506 26.1266 42.788C25.9444 42.6374 25.9011 42.5343 26.0372 42.3273L26.0253 42.3342Z" fill="#FC99FF"/>
<path fill-rule="evenodd" clip-rule="evenodd" d="M28.8114 70.622C28.9305 70.4409 29.0432 70.3595 29.2305 70.4911C29.4366 70.6278 29.4767 70.7808 29.3406 70.9879C29.2164 71.188 29.1019 71.2384 28.9128 71.0758C28.7305 70.9252 28.6872 70.8222 28.8234 70.6151L28.8114 70.622Z" fill="#FC99FF"/>
<path fill-rule="evenodd" clip-rule="evenodd" d="M45.1609 39.8378C45.1117 39.9464 44.8587 40.0611 44.7423 40.0805C44.5712 40.1157 44.3089 40.0756 44.2532 39.8677C44.2113 39.6837 44.3952 39.4489 44.5783 39.4068C44.847 39.3471 45.0536 39.5957 45.1659 39.8188L45.1609 39.8378Z" fill="#F543FF"/>
<path fill-rule="evenodd" clip-rule="evenodd" d="M43.4075 26.4397C43.258 26.3182 43.2556 26.1754 43.3577 26.0201C43.4478 25.8718 43.6654 25.8897 43.7773 26.001C43.908 26.1175 43.9448 26.3203 43.829 26.4516C43.7131 26.5829 43.5313 26.5441 43.4075 26.4397Z" fill="url(#paint26_radial_26_2762)"/>
<path fill-rule="evenodd" clip-rule="evenodd" d="M42.7135 26.7303C42.4304 26.2377 42.6041 25.6245 43.0825 25.347C43.5609 25.0696 44.1834 25.2372 44.4596 25.7177C44.7358 26.1982 44.569 26.8235 44.0906 27.1009C43.6122 27.3783 42.9897 27.2108 42.7135 26.7303Z" fill="url(#paint27_radial_26_2762)"/>
<path fill-rule="evenodd" clip-rule="evenodd" d="M44.4097 59.782C44.2532 59.6485 44.2371 59.4817 44.3511 59.3195C44.4652 59.1572 44.6897 59.1872 44.8204 59.3036C44.9699 59.4251 44.9898 59.6538 44.8689 59.804C44.7479 59.9543 44.5404 59.8984 44.3977 59.7889L44.4097 59.782Z" fill="url(#paint28_radial_26_2762)"/>
<path fill-rule="evenodd" clip-rule="evenodd" d="M43.651 60.126C43.3403 59.5854 43.5222 58.9033 44.0604 58.5912C44.5986 58.2791 45.2777 58.4619 45.5884 59.0024C45.8991 59.543 45.7172 60.2251 45.179 60.5372C44.6408 60.8493 43.9617 60.6666 43.651 60.126Z" fill="url(#paint29_radial_26_2762)"/>
<path fill-rule="evenodd" clip-rule="evenodd" d="M52.4965 38.4511C52.2123 38.8722 51.8443 38.9254 51.3759 38.7486C51.0653 38.6244 50.7068 38.1116 50.916 37.782C51.1643 37.3817 51.686 37.2073 52.1033 37.4618C52.4691 37.6821 52.7688 38.0369 52.4965 38.4511Z" fill="#F543FF"/>
<path fill-rule="evenodd" clip-rule="evenodd" d="M49.8065 39.21C49.1919 38.1408 49.5559 36.7766 50.6202 36.1593C51.6846 35.5421 53.0429 35.9076 53.6574 36.9767C54.2719 38.0459 53.908 39.4101 52.8436 40.0274C51.7792 40.6446 50.421 40.2791 49.8065 39.21Z" fill="url(#paint30_radial_26_2762)"/>
<path fill-rule="evenodd" clip-rule="evenodd" d="M34.393 46.3226C34.1718 46.6591 33.8893 46.6948 33.5222 46.5553C33.2751 46.4583 33.0095 46.0518 33.1557 45.8068C33.3599 45.4962 33.7601 45.3602 34.0813 45.5584C34.3698 45.7274 34.5971 46.012 34.381 46.3295L34.393 46.3226Z" fill="url(#paint31_radial_26_2762)"/>
<path fill-rule="evenodd" clip-rule="evenodd" d="M32.3065 46.9083C31.8301 46.0795 32.1131 45.0184 32.9383 44.5398C33.7635 44.0613 34.8199 44.3456 35.2963 45.1744C35.7728 46.0033 35.4897 47.0644 34.6645 47.543C33.8393 48.0215 32.7829 47.7372 32.3065 46.9083Z" fill="url(#paint32_radial_26_2762)"/>
<path fill-rule="evenodd" clip-rule="evenodd" d="M52.8039 51.4704C52.5651 51.3046 52.5332 51.0828 52.6348 50.8157C52.7042 50.6313 53.0133 50.42 53.1937 50.5396C53.4256 50.6934 53.5297 50.9855 53.3835 51.2304C53.2543 51.4495 53.0478 51.6173 52.8089 51.4515L52.8039 51.4704Z" fill="url(#paint33_radial_26_2762)"/>
<path fill-rule="evenodd" clip-rule="evenodd" d="M52.357 49.888C52.9789 49.5273 53.7712 49.7405 54.1302 50.3652C54.4893 50.9899 54.277 51.7857 53.6551 52.1463C53.0332 52.507 52.2409 52.2937 51.8819 51.6691C51.5228 51.0444 51.7351 50.2486 52.357 49.888Z" fill="url(#paint34_radial_26_2762)"/>
<path fill-rule="evenodd" clip-rule="evenodd" d="M32.0861 56.6782C31.8473 56.5124 31.8155 56.2906 31.917 56.0234C31.9864 55.839 32.2955 55.6277 32.4759 55.7474C32.7078 55.9012 32.8119 56.1932 32.6537 56.4451C32.5245 56.6642 32.318 56.832 32.0792 56.6662L32.0861 56.6782Z" fill="url(#paint35_radial_26_2762)"/>
<path fill-rule="evenodd" clip-rule="evenodd" d="M31.6388 55.0957C32.2606 54.7351 33.0529 54.9483 33.412 55.573C33.771 56.1976 33.5587 56.9934 32.9369 57.3541C32.315 57.7147 31.5227 57.5015 31.1636 56.8768C30.8046 56.2522 31.0169 55.4564 31.6388 55.0957Z" fill="url(#paint36_radial_26_2762)"/>
<path d="M46.689 25.6578C44.4895 26.9333 43.7359 29.7582 45.0058 31.9675C46.2756 34.1767 49.0881 34.9337 51.2875 33.6581C53.487 32.3826 54.2406 29.5577 52.9707 27.3484C51.7009 25.1392 48.8884 24.3822 46.689 25.6578Z" fill="url(#paint37_radial_26_2762)"/>
<path d="M47.4558 26.9911C45.9895 27.8415 45.4871 29.7248 46.3337 31.1976C47.1803 32.6704 49.0552 33.1751 50.5215 32.3247C51.9878 31.4744 52.4902 29.5911 51.6437 28.1182C50.7971 26.6454 48.9221 26.1408 47.4558 26.9911Z" fill="url(#paint38_radial_26_2762)"/>
<path d="M37.0039 76.4419C34.4214 77.9396 33.5365 81.2566 35.0276 83.8506C36.5186 86.4447 39.8209 87.3335 42.4035 85.8358C44.986 84.3381 45.8709 81.0211 44.3798 78.4271C42.8888 75.833 39.5865 74.9443 37.0039 76.4419Z" fill="url(#paint39_radial_26_2762)"/>
<path d="M37.9015 78.0036C36.1776 79.0033 35.587 81.2174 36.5822 82.949C37.5775 84.6806 39.7819 85.2739 41.5058 84.2741C43.2297 83.2744 43.8204 81.0603 42.8251 79.3287C41.8298 77.5971 39.6254 77.0038 37.9015 78.0036Z" fill="url(#paint40_radial_26_2762)"/>
<path d="M35.5795 45.2388L27.4429 32.3957C26.9523 31.6214 25.7653 31.8601 25.6122 32.7638L22.1009 53.4847C21.9004 54.6674 25.4732 56.2935 26.503 55.6785C27.4092 55.1373 28.4092 54.7113 29.5001 54.4678C34.4715 53.3581 36.635 60.9409 37.0954 64.871L35.7323 45.703C35.7205 45.538 35.6681 45.3785 35.5795 45.2388Z" fill="url(#paint41_linear_26_2762)"/>
<path d="M47.1873 15.6003L44.6904 13.5483C45.5606 14.0946 46.3965 14.7958 47.1873 15.6003L59.7032 25.8862C59.8201 25.9823 59.9137 26.1037 59.9769 26.2412L66.2701 39.937C66.7176 40.9109 65.5516 41.7849 64.7557 41.0672C60.0784 36.8494 54.3571 31.2495 54.3571 29.5C54.3571 27.1628 51.4167 19.9031 47.1873 15.6003Z" fill="url(#paint42_linear_26_2762)"/>
<path d="M26.0476 26.7258L37.0952 45.4516M37.0952 45.4516L39.8571 71.1129V80.8226M37.0952 45.4516L49.5238 29.5" stroke="url(#paint43_radial_26_2762)"/>
<path d="M57.1191 35.7419L68.8572 47.5323L60.5715 71.1129" stroke="url(#paint44_radial_26_2762)"/>
<path d="M23.2856 87.0645L39.8571 80.8226M39.8571 80.8226L39.1666 67.6451M39.8571 80.8226L58.4999 79.4355L62.6428 82.2097" stroke="url(#paint45_radial_26_2762)"/>
<defs>
<filter id="filter0_d_26_2762" x="8.2063" y="0.416016" width="73.0608" height="102.969" filterUnits="userSpaceOnUse" color-interpolation-filters="sRGB">
<feFlood flood-opacity="0" result="BackgroundImageFix"/>
<feColorMatrix in="SourceAlpha" type="matrix" values="0 0 0 0 0 0 0 0 0 0 0 0 0 0 0 0 0 0 127 0" result="hardAlpha"/>
<feOffset/>
<feGaussianBlur stdDeviation="5"/>
<feComposite in2="hardAlpha" operator="out"/>
<feColorMatrix type="matrix" values="0 0 0 0 1 0 0 0 0 0 0 0 0 0 1 0 0 0 0.3 0"/>
<feBlend mode="normal" in2="BackgroundImageFix" result="effect1_dropShadow_26_2762"/>
<feBlend mode="normal" in="SourceGraphic" in2="effect1_dropShadow_26_2762" result="shape"/>
</filter>
<radialGradient id="paint0_radial_26_2762" cx="0" cy="0" r="1" gradientUnits="userSpaceOnUse" gradientTransform="translate(41.9469 10.6934) rotate(149.89) scale(82.8527 83.0362)">
<stop stop-color="#FFA1FA"/>
<stop offset="1" stop-color="#EB36E4"/>
</radialGradient>
<radialGradient id="paint1_radial_26_2762" cx="0" cy="0" r="1" gradientUnits="userSpaceOnUse" gradientTransform="translate(41.494 57.3726) rotate(149.89) scale(47.8618 47.9678)">
<stop offset="0.47" stop-color="white"/>
<stop offset="0.51" stop-color="#FBF5FA"/>
<stop offset="0.59" stop-color="#F3DCEF"/>
<stop offset="0.68" stop-color="#E6B3DC"/>
<stop offset="0.79" stop-color="#D37AC2"/>
<stop offset="0.92" stop-color="#BB33A2"/>
<stop offset="1" stop-color="#AB008B"/>
</radialGradient>
<radialGradient id="paint2_radial_26_2762" cx="0" cy="0" r="1" gradientUnits="userSpaceOnUse" gradientTransform="translate(83.1249 2.57417) rotate(149.89) scale(44.0876 44.1853)">
<stop stop-color="#FF82FF" stop-opacity="0"/>
<stop offset="1" stop-color="#FF82FF"/>
</radialGradient>
<radialGradient id="paint3_radial_26_2762" cx="0" cy="0" r="1" gradientUnits="userSpaceOnUse" gradientTransform="translate(66.3914 35.1337) rotate(149.89) scale(45.1522 45.2522)">
<stop offset="0.47" stop-color="white"/>
<stop offset="0.51" stop-color="#FBF5FC"/>
<stop offset="0.59" stop-color="#F1DCF5"/>
<stop offset="0.68" stop-color="#E2B3EB"/>
<stop offset="0.79" stop-color="#CC7ADC"/>
<stop offset="0.92" stop-color="#B033C9"/>
<stop offset="1" stop-color="#9D00BC"/>
</radialGradient>
<radialGradient id="paint4_radial_26_2762" cx="0" cy="0" r="1" gradientUnits="userSpaceOnUse" gradientTransform="translate(123.162 83.4653) rotate(149.89) scale(64.2167 64.3589)">
<stop stop-color="#F6C8F2" stop-opacity="0"/>
<stop offset="1" stop-color="#FFCFFB"/>
</radialGradient>
<radialGradient id="paint5_radial_26_2762" cx="0" cy="0" r="1" gradientUnits="userSpaceOnUse" gradientTransform="translate(23.1988 93.289) rotate(149.89) scale(74.7651 74.9307)">
<stop stop-color="#FFB0FF" stop-opacity="0"/>
<stop offset="1" stop-color="#FFB0FF"/>
</radialGradient>
<linearGradient id="paint6_linear_26_2762" x1="52.9763" y1="32.2742" x2="52.9763" y2="52.3871" gradientUnits="userSpaceOnUse">
<stop stop-color="#5D0053"/>
<stop offset="1" stop-color="#5D0053" stop-opacity="0"/>
</linearGradient>
<radialGradient id="paint7_radial_26_2762" cx="0" cy="0" r="1" gradientUnits="userSpaceOnUse" gradientTransform="translate(-10.9484 48.2235) rotate(149.89) scale(60.954 61.089)">
<stop offset="0.47" stop-color="white"/>
<stop offset="0.51" stop-color="#FBF5FC"/>
<stop offset="0.59" stop-color="#F1DCF5"/>
<stop offset="0.68" stop-color="#E2B3EB"/>
<stop offset="0.79" stop-color="#CC7ADC"/>
<stop offset="0.92" stop-color="#B033C9"/>
<stop offset="1" stop-color="#9D00BC"/>
</radialGradient>
<radialGradient id="paint8_radial_26_2762" cx="0" cy="0" r="1" gradientUnits="userSpaceOnUse" gradientTransform="translate(42.4103 104.491) rotate(149.89) scale(30.4425 30.5099)">
<stop stop-color="#FFB0FF" stop-opacity="0"/>
<stop offset="1" stop-color="#FF99FF"/>
</radialGradient>
<radialGradient id="paint9_radial_26_2762" cx="0" cy="0" r="1" gradientUnits="userSpaceOnUse" gradientTransform="translate(91.8538 87.7827) rotate(149.89) scale(51.3319 51.4456)">
<stop stop-color="#F6D1F3" stop-opacity="0"/>
<stop offset="1" stop-color="#FFD9FC"/>
</radialGradient>
<linearGradient id="paint10_linear_26_2762" x1="47.7976" y1="13.5483" x2="47.7976" y2="91.9193" gradientUnits="userSpaceOnUse">
<stop stop-color="#5D0053" stop-opacity="0"/>
<stop offset="1" stop-color="#B907A7"/>
</linearGradient>
<linearGradient id="paint11_linear_26_2762" x1="47.7976" y1="13.5483" x2="47.7976" y2="91.9193" gradientUnits="userSpaceOnUse">
<stop stop-color="#5D0053" stop-opacity="0"/>
<stop offset="1" stop-color="#B907A7"/>
</linearGradient>
<radialGradient id="paint12_radial_26_2762" cx="0" cy="0" r="1" gradientUnits="userSpaceOnUse" gradientTransform="translate(44.9972 78.1972) rotate(149.89) scale(50.0047 50.1155)">
<stop stop-color="#F68CED" stop-opacity="0"/>
<stop offset="1" stop-color="#FF91F6"/>
</radialGradient>
<radialGradient id="paint13_radial_26_2762" cx="0" cy="0" r="1" gradientUnits="userSpaceOnUse" gradientTransform="translate(48.983 133.931) rotate(149.89) scale(55.272 55.3944)">
<stop/>
<stop offset="0.21" stop-color="#020102"/>
<stop offset="0.34" stop-color="#0B060B"/>
<stop offset="0.45" stop-color="#1A0F19"/>
<stop offset="0.56" stop-color="#2F1B2D"/>
<stop offset="0.65" stop-color="#4B2A48"/>
<stop offset="0.74" stop-color="#6C3D69"/>
<stop offset="0.83" stop-color="#94548F"/>
<stop offset="0.91" stop-color="#C36FBC"/>
<stop offset="0.99" stop-color="#F68CED"/>
<stop offset="1" stop-color="#FF91F6"/>
</radialGradient>
<linearGradient id="paint14_linear_26_2762" x1="31.2261" y1="11.4678" x2="31.2261" y2="91.2258" gradientUnits="userSpaceOnUse">
<stop stop-color="#5D0053" stop-opacity="0"/>
<stop offset="1" stop-color="#5D0053"/>
</linearGradient>
<radialGradient id="paint15_radial_26_2762" cx="0" cy="0" r="1" gradientUnits="userSpaceOnUse" gradientTransform="translate(84.9642 38.9544) rotate(149.89) scale(87.3043 87.4977)">
<stop stop-color="#94008D" stop-opacity="0"/>
<stop offset="1" stop-color="#FF33F5"/>
</radialGradient>
<radialGradient id="paint16_radial_26_2762" cx="0" cy="0" r="1" gradientUnits="userSpaceOnUse" gradientTransform="translate(68.861 73.4178) rotate(149.89) scale(49.2973 54.8602)">
<stop stop-color="white"/>
<stop offset="1" stop-color="#FF5CFF" stop-opacity="0"/>
</radialGradient>
<radialGradient id="paint17_radial_26_2762" cx="0" cy="0" r="1" gradientUnits="userSpaceOnUse" gradientTransform="translate(66.4957 83.7803) rotate(149.89) scale(60.5946 60.7288)">
<stop stop-color="white"/>
<stop offset="1" stop-color="#FF5CFF" stop-opacity="0"/>
</radialGradient>
<radialGradient id="paint18_radial_26_2762" cx="0" cy="0" r="1" gradientUnits="userSpaceOnUse" gradientTransform="translate(47.7676 79.5217) rotate(149.89) scale(33.8019 33.8768)">
<stop stop-color="#FF5CFF"/>
<stop offset="1" stop-color="#FF5CFF" stop-opacity="0"/>
</radialGradient>
<radialGradient id="paint19_radial_26_2762" cx="0" cy="0" r="1" gradientUnits="userSpaceOnUse" gradientTransform="translate(57.8966 79.0292) rotate(149.89) scale(19.5069 19.5502)">
<stop stop-color="#FFBAFF"/>
<stop offset="1" stop-color="#FFBAFF" stop-opacity="0"/>
</radialGradient>
<radialGradient id="paint20_radial_26_2762" cx="0" cy="0" r="1" gradientUnits="userSpaceOnUse" gradientTransform="translate(77.8183 45.581) rotate(149.89) scale(79.3135 79.4892)">
<stop stop-color="#F68CED" stop-opacity="0"/>
<stop offset="1" stop-color="#FF91F6"/>
</radialGradient>
<radialGradient id="paint21_radial_26_2762" cx="0" cy="0" r="1" gradientUnits="userSpaceOnUse" gradientTransform="translate(55.0437 31.7039) rotate(149.89) scale(29.9171 29.9834)">
<stop stop-color="#FF82FF" stop-opacity="0"/>
<stop offset="1" stop-color="#FF82FF"/>
</radialGradient>
<radialGradient id="paint22_radial_26_2762" cx="0" cy="0" r="1" gradientUnits="userSpaceOnUse" gradientTransform="translate(50.482 30.4255) rotate(149.89) scale(24.3457 24.3996)">
<stop stop-color="#F68CED" stop-opacity="0"/>
<stop offset="1" stop-color="#FF91F6"/>
</radialGradient>
<radialGradient id="paint23_radial_26_2762" cx="0" cy="0" r="1" gradientUnits="userSpaceOnUse" gradientTransform="translate(49.4012 29.9315) rotate(149.89) scale(22.1337 22.1827)">
<stop stop-color="white"/>
<stop offset="1" stop-color="#FFBAFF" stop-opacity="0"/>
</radialGradient>
<radialGradient id="paint24_radial_26_2762" cx="0" cy="0" r="1" gradientUnits="userSpaceOnUse" gradientTransform="translate(48.2157 52.8537) rotate(149.89) scale(0.556534 0.537026)">
<stop stop-color="white"/>
<stop offset="1" stop-color="white" stop-opacity="0"/>
</radialGradient>
<radialGradient id="paint25_radial_26_2762" cx="0" cy="0" r="1" gradientUnits="userSpaceOnUse" gradientTransform="translate(54.2321 43.0819) rotate(149.89) scale(0.310587 0.331028)">
<stop stop-color="white"/>
<stop offset="1" stop-color="white" stop-opacity="0"/>
</radialGradient>
<radialGradient id="paint26_radial_26_2762" cx="0" cy="0" r="1" gradientUnits="userSpaceOnUse" gradientTransform="translate(43.5926 26.2286) rotate(149.89) scale(0.269884 0.299957)">
<stop stop-color="white"/>
<stop offset="1" stop-color="white" stop-opacity="0"/>
</radialGradient>
<radialGradient id="paint27_radial_26_2762" cx="0" cy="0" r="1" gradientUnits="userSpaceOnUse" gradientTransform="translate(43.5865 26.224) rotate(149.89) scale(0.931936 0.934002)">
<stop stop-color="white"/>
<stop offset="1" stop-color="white" stop-opacity="0"/>
</radialGradient>
<radialGradient id="paint28_radial_26_2762" cx="0" cy="0" r="1" gradientUnits="userSpaceOnUse" gradientTransform="translate(44.6183 59.5525) rotate(149.89) scale(0.297 0.332849)">
<stop stop-color="white"/>
<stop offset="1" stop-color="white" stop-opacity="0"/>
</radialGradient>
<radialGradient id="paint29_radial_26_2762" cx="0" cy="0" r="1" gradientUnits="userSpaceOnUse" gradientTransform="translate(44.6197 59.5642) rotate(149.89) scale(1.03407 1.03636)">
<stop stop-color="white"/>
<stop offset="1" stop-color="white" stop-opacity="0"/>
</radialGradient>
<radialGradient id="paint30_radial_26_2762" cx="0" cy="0" r="1" gradientUnits="userSpaceOnUse" gradientTransform="translate(51.7319 38.0933) rotate(149.89) scale(2.05537 2.05992)">
<stop stop-color="white"/>
<stop offset="1" stop-color="white" stop-opacity="0"/>
</radialGradient>
<radialGradient id="paint31_radial_26_2762" cx="0" cy="0" r="1" gradientUnits="userSpaceOnUse" gradientTransform="translate(33.8002 46.0518) rotate(149.89) scale(0.572577 0.571028)">
<stop stop-color="white"/>
<stop offset="1" stop-color="white" stop-opacity="0"/>
</radialGradient>
<radialGradient id="paint32_radial_26_2762" cx="0" cy="0" r="1" gradientUnits="userSpaceOnUse" gradientTransform="translate(33.8014 46.0414) rotate(149.89) scale(1.59578 1.59931)">
<stop stop-color="white"/>
<stop offset="1" stop-color="white" stop-opacity="0"/>
</radialGradient>
<radialGradient id="paint33_radial_26_2762" cx="0" cy="0" r="1" gradientUnits="userSpaceOnUse" gradientTransform="translate(53.0115 51.0211) rotate(149.89) scale(0.426576 0.42979)">
<stop stop-color="white"/>
<stop offset="1" stop-color="white" stop-opacity="0"/>
</radialGradient>
<radialGradient id="paint34_radial_26_2762" cx="0" cy="0" r="1" gradientUnits="userSpaceOnUse" gradientTransform="translate(53.0061 51.0171) rotate(149.89) scale(1.20003 1.20268)">
<stop stop-color="white"/>
<stop offset="1" stop-color="white" stop-opacity="0"/>
</radialGradient>
<radialGradient id="paint35_radial_26_2762" cx="0" cy="0" r="1" gradientUnits="userSpaceOnUse" gradientTransform="translate(32.2935 56.229) rotate(149.89) scale(0.426326 0.42979)">
<stop stop-color="white"/>
<stop offset="1" stop-color="white" stop-opacity="0"/>
</radialGradient>
<radialGradient id="paint36_radial_26_2762" cx="0" cy="0" r="1" gradientUnits="userSpaceOnUse" gradientTransform="translate(32.2878 56.2249) rotate(149.89) scale(1.20003 1.20268)">
<stop stop-color="white"/>
<stop offset="1" stop-color="white" stop-opacity="0"/>
</radialGradient>
<radialGradient id="paint37_radial_26_2762" cx="0" cy="0" r="1" gradientUnits="userSpaceOnUse" gradientTransform="translate(48.9883 29.658) rotate(149.89) scale(4.25116 4.26058)">
<stop stop-color="white"/>
<stop offset="1" stop-color="white" stop-opacity="0"/>
</radialGradient>
<radialGradient id="paint38_radial_26_2762" cx="0" cy="0" r="1" gradientUnits="userSpaceOnUse" gradientTransform="translate(48.9887 29.6579) rotate(149.89) scale(2.83411 2.84039)">
<stop stop-color="white"/>
<stop offset="1" stop-color="white" stop-opacity="0"/>
</radialGradient>
<radialGradient id="paint39_radial_26_2762" cx="0" cy="0" r="1" gradientUnits="userSpaceOnUse" gradientTransform="translate(39.7037 81.1389) rotate(149.89) scale(4.9916 5.00266)">
<stop stop-color="white"/>
<stop offset="1" stop-color="white" stop-opacity="0"/>
</radialGradient>
<radialGradient id="paint40_radial_26_2762" cx="0" cy="0" r="1" gradientUnits="userSpaceOnUse" gradientTransform="translate(39.7037 81.1389) rotate(149.89) scale(3.33199 3.33937)">
<stop stop-color="white"/>
<stop offset="1" stop-color="white" stop-opacity="0"/>
</radialGradient>
<linearGradient id="paint41_linear_26_2762" x1="28.8096" y1="30.1936" x2="28.8096" y2="64.871" gradientUnits="userSpaceOnUse">
<stop stop-color="white"/>
<stop offset="1" stop-color="white" stop-opacity="0"/>
</linearGradient>
<linearGradient id="paint42_linear_26_2762" x1="56.4285" y1="13.5483" x2="56.4285" y2="44.0645" gradientUnits="userSpaceOnUse">
<stop stop-color="white"/>
<stop offset="1" stop-color="white" stop-opacity="0"/>
</linearGradient>
<radialGradient id="paint43_radial_26_2762" cx="0" cy="0" r="1" gradientUnits="userSpaceOnUse" gradientTransform="translate(37.0952 44.7581) rotate(92.4259) scale(32.626 14.1588)">
<stop stop-color="white"/>
<stop offset="1" stop-color="white" stop-opacity="0"/>
</radialGradient>
<radialGradient id="paint44_radial_26_2762" cx="0" cy="0" r="1" gradientUnits="userSpaceOnUse" gradientTransform="translate(62.643 47.5323) rotate(91.8555) scale(21.3245 7.08205)">
<stop stop-color="white"/>
<stop offset="1" stop-color="white" stop-opacity="0"/>
</radialGradient>
<radialGradient id="paint45_radial_26_2762" cx="0" cy="0" r="1" gradientUnits="userSpaceOnUse" gradientTransform="translate(39.8571 80.8226) rotate(154.555) scale(14.5283 12.4234)">
<stop stop-color="white"/>
<stop offset="1" stop-color="white" stop-opacity="0"/>
</radialGradient>
</defs>
</svg>
