<svg width="115" height="113" viewBox="0 0 115 113" fill="none" xmlns="http://www.w3.org/2000/svg">
<g filter="url(#filter0_f_773_9928)">
<ellipse cx="57.5" cy="56.5001" rx="17.5" ry="16.5" fill="white" fill-opacity="0.66"/>
</g>
<path d="M54.1674 14.9576H61.6056L58.8078 56.7209H56.0781L54.1674 14.9576Z" fill="url(#paint0_linear_773_9928)"/>
<path d="M54.1674 95.8912H61.6056L58.8078 54.1279H56.0781L54.1674 95.8912Z" fill="url(#paint1_linear_773_9928)"/>
<path d="M110.227 51.7054L110.227 59.1437L56.59 56.3458L56.59 53.6162L110.227 51.7054Z" fill="url(#paint2_linear_773_9928)"/>
<path d="M4.99985 51.7054L4.99985 59.1437L59.183 56.3458L59.183 53.6162L4.99985 51.7054Z" fill="url(#paint3_linear_773_9928)"/>
<path d="M87.1408 99.1295L80.6991 102.849L56.3036 54.9985L58.6675 53.6337L87.1408 99.1295Z" fill="url(#paint4_linear_773_9928)"/>
<path d="M31.5557 8.00009L25.114 11.7192L54.6286 57.2443L56.9925 55.8794L31.5557 8.00009Z" fill="url(#paint5_linear_773_9928)"/>
<path d="M105.038 78.5103L101.319 84.952L56.2664 55.7103L57.6312 53.3464L105.038 78.5103Z" fill="url(#paint6_linear_773_9928)"/>
<path d="M10.937 25.8966L7.21789 32.3383L55.5408 57.0068L56.9056 54.6429L10.937 25.8966Z" fill="url(#paint7_linear_773_9928)"/>
<path d="M34.5274 102.849L28.0857 99.1295L57.3273 54.0773L59.6912 55.4421L34.5274 102.849Z" fill="url(#paint8_linear_773_9928)"/>
<path d="M89.9528 11.719L83.5111 7.9999L58.8426 56.3228L61.2065 57.6876L89.9528 11.719Z" fill="url(#paint9_linear_773_9928)"/>
<path d="M13.9087 84.9522L10.1895 78.5105L58.0397 54.1149L59.4045 56.4788L13.9087 84.9522Z" fill="url(#paint10_linear_773_9928)"/>
<path d="M107.849 32.3385L104.13 25.8968L58.6047 55.4114L59.9695 57.7753L107.849 32.3385Z" fill="url(#paint11_linear_773_9928)"/>
<defs>
<filter id="filter0_f_773_9928" x="0" y="6.10352e-05" width="115" height="113" filterUnits="userSpaceOnUse" color-interpolation-filters="sRGB">
<feFlood flood-opacity="0" result="BackgroundImageFix"/>
<feBlend mode="normal" in="SourceGraphic" in2="BackgroundImageFix" result="shape"/>
<feGaussianBlur stdDeviation="20" result="effect1_foregroundBlur_773_9928"/>
</filter>
<linearGradient id="paint0_linear_773_9928" x1="57.8865" y1="14.9576" x2="57.8865" y2="56.7209" gradientUnits="userSpaceOnUse">
<stop stop-color="white" stop-opacity="0"/>
<stop offset="1" stop-color="white" stop-opacity="0.1"/>
</linearGradient>
<linearGradient id="paint1_linear_773_9928" x1="57.8865" y1="95.8912" x2="57.8865" y2="54.1279" gradientUnits="userSpaceOnUse">
<stop stop-color="white" stop-opacity="0"/>
<stop offset="1" stop-color="white" stop-opacity="0.1"/>
</linearGradient>
<linearGradient id="paint2_linear_773_9928" x1="105.246" y1="55.4246" x2="56.59" y2="55.4246" gradientUnits="userSpaceOnUse">
<stop stop-color="white" stop-opacity="0"/>
<stop offset="1" stop-color="white" stop-opacity="0.1"/>
</linearGradient>
<linearGradient id="paint3_linear_773_9928" x1="5.7505" y1="55.4246" x2="59.183" y2="55.4246" gradientUnits="userSpaceOnUse">
<stop stop-color="white" stop-opacity="0"/>
<stop offset="1" stop-color="white" stop-opacity="0.1"/>
</linearGradient>
<linearGradient id="paint4_linear_773_9928" x1="81.4292" y1="96.6749" x2="57.1014" y2="54.5379" gradientUnits="userSpaceOnUse">
<stop stop-color="white" stop-opacity="0"/>
<stop offset="1" stop-color="white" stop-opacity="0.1"/>
</linearGradient>
<linearGradient id="paint5_linear_773_9928" x1="28.7102" y1="10.5097" x2="55.4264" y2="56.7836" gradientUnits="userSpaceOnUse">
<stop stop-color="white" stop-opacity="0"/>
<stop offset="1" stop-color="white" stop-opacity="0.1"/>
</linearGradient>
<linearGradient id="paint6_linear_773_9928" x1="98.8641" y1="79.2403" x2="56.7271" y2="54.9125" gradientUnits="userSpaceOnUse">
<stop stop-color="white" stop-opacity="0"/>
<stop offset="1" stop-color="white" stop-opacity="0.1"/>
</linearGradient>
<linearGradient id="paint7_linear_773_9928" x1="9.72753" y1="29.4928" x2="56.0014" y2="56.209" gradientUnits="userSpaceOnUse">
<stop stop-color="white" stop-opacity="0"/>
<stop offset="1" stop-color="white" stop-opacity="0.1"/>
</linearGradient>
<linearGradient id="paint8_linear_773_9928" x1="33.7973" y1="96.6749" x2="58.1251" y2="54.5379" gradientUnits="userSpaceOnUse">
<stop stop-color="white" stop-opacity="0"/>
<stop offset="1" stop-color="white" stop-opacity="0.1"/>
</linearGradient>
<linearGradient id="paint9_linear_773_9928" x1="86.3566" y1="10.5095" x2="59.6404" y2="56.7834" gradientUnits="userSpaceOnUse">
<stop stop-color="white" stop-opacity="0"/>
<stop offset="1" stop-color="white" stop-opacity="0.1"/>
</linearGradient>
<linearGradient id="paint10_linear_773_9928" x1="16.3633" y1="79.2405" x2="58.5003" y2="54.9127" gradientUnits="userSpaceOnUse">
<stop stop-color="white" stop-opacity="0"/>
<stop offset="1" stop-color="white" stop-opacity="0.1"/>
</linearGradient>
<linearGradient id="paint11_linear_773_9928" x1="105.339" y1="29.4929" x2="59.0653" y2="56.2092" gradientUnits="userSpaceOnUse">
<stop stop-color="white" stop-opacity="0"/>
<stop offset="1" stop-color="white" stop-opacity="0.1"/>
</linearGradient>
</defs>
</svg>
